<?xml version="1.0" standalone="no"?>
<!DOCTYPE svg PUBLIC "-//W3C//DTD SVG 1.1//EN" "http://www.w3.org/Graphics/SVG/1.1/DTD/svg11.dtd" >
<svg xmlns="http://www.w3.org/2000/svg">
<metadata></metadata>
<defs>
<font id="seat_meta_black_italicregular" horiz-adv-x="1147" >
<font-face units-per-em="2048" ascent="1638" descent="-410" />
<missing-glyph horiz-adv-x="460" />
<glyph horiz-adv-x="2048" />
<glyph horiz-adv-x="2048" />
<glyph unicode="&#xd;" horiz-adv-x="460" />
<glyph unicode=" "  horiz-adv-x="460" />
<glyph unicode="&#x09;" horiz-adv-x="460" />
<glyph unicode="&#xa0;" horiz-adv-x="460" />
<glyph unicode="!" horiz-adv-x="653" d="M27 164q0 53 27 99.5t73 74t100 27.5q53 0 98 -27.5t72 -74.5t27 -101q0 -82 -60 -139.5t-145 -57.5q-80 0 -136 58.5t-56 140.5zM147 420l132 989l426 59l-291 -1048h-267z" />
<glyph unicode="&#x22;" horiz-adv-x="954" d="M20 815l134 635h333l-133 -635h-334zM573 815l134 635h331l-133 -635h-332z" />
<glyph unicode="#" horiz-adv-x="1112" d="M20 395l48 217h180l78 228h-154l47 217h180l129 370h240l-127 -370h164l129 370h240l-127 -370h151l-47 -217h-180l-78 -228h154l-48 -217h-180l-139 -395h-240l140 395h-166l-140 -395h-239l139 395h-154zM487 612h166l76 228h-166z" />
<glyph unicode="$" horiz-adv-x="1235" d="M-61 104l190 287q73 -48 174 -81.5t203 -33.5q54 0 107 15t87.5 49.5t34.5 91.5q0 36 -30 60.5t-91 42.5l-157 47q-125 38 -198 127t-73 206q0 108 45.5 199.5t123.5 159.5t176 111.5t200 58.5l35 170h217l-35 -166q241 -18 381 -127l-225 -264q-64 46 -146 71t-159 25 q-39 0 -79 -13t-65.5 -41t-25.5 -69q0 -78 114 -110l140 -39q301 -86 301 -320q0 -127 -53.5 -230t-145.5 -176.5t-209.5 -118t-236.5 -56.5l-33 -152h-217l33 154q-113 10 -205.5 41.5t-177.5 80.5z" />
<glyph unicode="%" horiz-adv-x="1683" d="M137 0l1172 1427h331l-1171 -1427h-332zM145 987q0 147 58.5 252.5t159 160t227.5 54.5q138 0 218.5 -74.5t80.5 -205.5q0 -103 -49 -204.5t-151 -166t-253 -64.5q-138 0 -214.5 69.5t-76.5 178.5zM420 983q0 -36 15 -48.5t46 -12.5q39 0 69 41.5t45 108t15 136.5 q0 39 -11 53.5t-40 14.5q-66 0 -102.5 -84.5t-36.5 -208.5zM883 219q0 147 57.5 252t158.5 160t228 55q138 0 218.5 -74.5t80.5 -205.5q0 -103 -49 -204.5t-151 -166t-252 -64.5q-138 0 -214.5 69.5t-76.5 178.5zM1157 215q0 -36 15.5 -48.5t46.5 -12.5q39 0 69 41.5t45 108 t15 136.5q0 39 -11 53.5t-41 14.5q-66 0 -102.5 -84.5t-36.5 -208.5z" />
<glyph unicode="&#x26;" horiz-adv-x="1444" d="M29 309q0 110 78 226t241 184q-104 77 -104 217q0 106 45 188.5t123 139t173.5 85.5t198.5 29q116 0 201 -34.5t128.5 -95.5t43.5 -140q0 -143 -91.5 -237t-246.5 -162l144 -183q27 46 51 181h289q-60 -279 -162 -408l231 -299h-477l-39 55q-41 -23 -91 -41.5 t-128.5 -29.5t-177.5 -11q-430 0 -430 336zM410 352q0 -135 149 -135q90 0 146 29l-218 278q-77 -70 -77 -172zM623 1008q0 -29 22 -68l31 -51q48 27 84.5 78t36.5 102q0 32 -17 50t-45 18q-50 0 -81 -38.5t-31 -90.5z" />
<glyph unicode="'" horiz-adv-x="567" d="M184 815l133 635h332l-133 -635h-332z" />
<glyph unicode="(" horiz-adv-x="705" d="M115 217q0 58 6.5 123.5t17.5 136.5t33 185q103 503 406 749q144 118 344 205l49 -219q-73 -50 -127.5 -96.5t-87 -83.5t-60.5 -83.5t-61 -113.5q-20 -44 -49.5 -145.5t-58 -227t-47.5 -252.5t-19 -217q0 -95 14 -153.5t52.5 -104.5t111.5 -90l-123 -195 q-192 56 -296.5 204.5t-104.5 377.5z" />
<glyph unicode=")" horiz-adv-x="705" d="M-186 -141q157 106 224.5 183.5t115.5 182.5q33 75 61.5 181t44.5 186q19 87 39 239t20 238q0 132 -30 207t-133 137l120 203q97 -31 168.5 -81t120.5 -119.5t76 -166.5t27 -215q0 -150 -56 -438q-33 -168 -92 -310.5t-150.5 -265.5t-220 -220.5t-296.5 -164.5z" />
<glyph unicode="*" horiz-adv-x="961" d="M156 1036l133 246l233 -96l58 268h266l-58 -268l273 82l22 -246l-270 -78l113 -227l-250 -156l-117 223l-203 -209l-176 158l215 211z" />
<glyph unicode="+" horiz-adv-x="1407" d="M33 537l67 323h478l102 479h334l-103 -479h478l-68 -323h-477l-105 -488h-333l104 488h-477z" />
<glyph unicode="," horiz-adv-x="610" d="M-86 -178q54 10 109 41t55 80q0 26 -27.5 53.5t-41 50t-13.5 86.5q0 54 26.5 107t81 87.5t132.5 34.5q97 0 151.5 -57.5t54.5 -152.5q0 -173 -121 -293t-311 -174z" />
<glyph unicode="-" horiz-adv-x="752" d="M80 424l61 293h559l-61 -293h-559z" />
<glyph unicode="." horiz-adv-x="588" d="M6 174q0 56 28 103t76 75.5t105 28.5t105.5 -28.5t77 -76.5t28.5 -102q0 -87 -63 -149t-148 -62q-86 0 -147.5 62.5t-61.5 148.5z" />
<glyph unicode="/" horiz-adv-x="860" d="M-145 -324l964 1899h252l-965 -1899h-251z" />
<glyph unicode="0" d="M76 418q0 195 43 370t130.5 312.5t217.5 216t297 78.5q124 0 210 -53.5t129.5 -159t43.5 -256.5q0 -183 -43 -352.5t-130 -305t-219 -215.5t-300 -80q-183 0 -281 114t-98 331zM457 344q0 -62 10.5 -89.5t40.5 -27.5q78 0 135 164.5t82 310.5q33 193 33 312v34 q0 95 -45 95q-53 0 -100 -90.5t-76.5 -196.5t-42.5 -182q-37 -207 -37 -330z" />
<glyph unicode="1" d="M170 0l57 266h203l150 713q-63 -33 -95 -49t-73 -33t-82 -29l-51 189l493 319h225l-233 -1110h186l-57 -266h-723z" />
<glyph unicode="2" d="M6 0l55 258q115 85 185 138.5t151.5 122.5t147.5 134q50 50 88.5 90.5t70 83.5t54 95.5t22.5 101.5q0 42 -27.5 68t-78.5 26q-59 0 -120.5 -30t-154.5 -99l-188 209q91 64 151.5 99t125 60.5t140 38.5t171.5 13q125 0 210 -40.5t127 -115t42 -174.5q0 -136 -66 -256.5 t-171 -218t-224.5 -174.5t-249.5 -145q68 12 172 12h412l-142 -297h-903z" />
<glyph unicode="3" d="M14 201q70 -13 125 -13q127 0 219.5 20t157 58.5t96 89t31.5 113.5q0 86 -129 96q-14 1 -41 1q-50 0 -158 -11l64 301q68 -10 137 -10q240 4 240 174q0 38 -32 59t-89 21q-155 0 -285 -111l-104 254q90 58 219.5 104t286.5 46q125 0 216 -35.5t141 -101.5t50 -156 q0 -118 -60.5 -228.5t-199.5 -162.5q79 -22 119.5 -84t40.5 -146q0 -107 -51 -207t-156 -180t-268 -127t-375 -47q-104 0 -191 10z" />
<glyph unicode="4" d="M-10 246l49 227l534 897h355l-371 -649q-67 -119 -127 -168q6 2 47 2h154q20 0 26 -2q0 14 2 25q36 150 78 266l66 180l323 55l-71 -329q-28 -128 -51 -197h122l-65 -307h-74q-31 0 -43 4q0 -27 -12 -82l-62 -289l-364 -24l76 350q5 28 14 49q-16 -8 -66 -8h-540z" />
<glyph unicode="5" d="M66 207q102 -23 215 -23q92 0 178 31t142 97t56 163q0 125 -184 125q-77 0 -144.5 -10t-135.5 -29l233 811h762l-119 -309h-377l-63 -195q39 6 98 6q97 0 170.5 -40t113.5 -111t40 -160q0 -120 -54 -234.5t-159.5 -208.5t-257.5 -149t-338 -55q-77 0 -156 14z" />
<glyph unicode="6" d="M39 362q0 179 77.5 360t223 338t350 271.5t449.5 165.5l18 -264q-144 -40 -254.5 -90.5t-190 -120.5t-132.5 -168q61 41 196 41q115 0 194.5 -41t119.5 -115t40 -176q0 -91 -38.5 -196.5t-116 -197t-199.5 -149t-282 -57.5q-217 0 -336 103.5t-119 295.5zM430 362 q0 -129 121 -129q50 0 99 32.5t80.5 92.5t31.5 134q0 54 -27 85t-84 31q-74 0 -178 -41q-12 -36 -27.5 -95.5t-15.5 -109.5z" />
<glyph unicode="7" d="M141 -133q71 275 183.5 506.5t218.5 383.5t231 308q-18 -6 -55 -6h-473l114 311h902l-93 -291q-90 -114 -206.5 -276.5t-244 -398t-171.5 -445.5z" />
<glyph unicode="8" d="M-20 287q0 108 42.5 194t108.5 140t137 77q-54 29 -87.5 86.5t-33.5 139.5q0 106 47.5 194t134 152t202.5 98.5t249 34.5q142 0 243 -37t151.5 -107t50.5 -165q0 -135 -82 -232.5t-244 -126.5q248 -70 248 -264q0 -110 -49 -201.5t-143 -158.5t-224.5 -102.5 t-286.5 -35.5q-249 0 -356.5 89.5t-107.5 224.5zM391 350q0 -117 152 -117q81 0 135.5 41t54.5 119q0 38 -23 64t-77 47l-129 51q-43 -22 -78 -78t-35 -127zM522 995q0 -37 27.5 -58t107.5 -54q160 71 160 176q0 86 -119 86q-76 0 -126 -40t-50 -110z" />
<glyph unicode="9" d="M66 92q218 65 370.5 176.5t198.5 192.5q-71 -33 -152 -33q-100 0 -183 38.5t-131 115.5t-48 184q0 129 47 244.5t133 201.5t210.5 135.5t272.5 49.5q195 0 300.5 -101.5t105.5 -269.5q0 -203 -65 -380t-189.5 -320.5t-308 -256.5t-422.5 -194zM510 862q0 -66 37 -106.5 t102 -40.5q55 0 96 24q19 41 37.5 121t18.5 133q0 121 -99 121q-50 0 -93.5 -30.5t-71 -89t-27.5 -132.5z" />
<glyph unicode=":" horiz-adv-x="616" d="M25 174q0 56 28 103t76 75.5t104 28.5q57 0 105.5 -28.5t77 -76.5t28.5 -102q0 -87 -63 -149t-148 -62t-146.5 62.5t-61.5 148.5zM152 754q0 56 28 103t75.5 75.5t104.5 28.5q58 0 106 -28.5t76.5 -76t28.5 -102.5q0 -87 -63 -149t-148 -62t-146.5 62.5t-61.5 148.5z" />
<glyph unicode=";" horiz-adv-x="684" d="M-45 -160q46 8 108 46t62 87q0 26 -8 44.5t-24.5 44.5t-25 50t-8.5 62q0 57 28 103.5t76 75t105 28.5q64 0 111 -26.5t73.5 -73t26.5 -107.5q0 -119 -56.5 -213t-152.5 -158.5t-219 -99.5zM186 754q0 57 28 103.5t75.5 75t105.5 28.5t106 -28.5t76.5 -76t28.5 -102.5 q0 -87 -63 -149t-148 -62t-147 62t-62 149z" />
<glyph unicode="&#x3c;" horiz-adv-x="756" d="M8 612l629 637l221 -196l-448 -451l243 -448l-288 -179z" />
<glyph unicode="=" horiz-adv-x="1364" d="M49 227l70 332h1159l-70 -332h-1159zM145 682l70 332h1159l-69 -332h-1160z" />
<glyph unicode="&#x3e;" horiz-adv-x="756" d="M-43 172l449 451l-244 448l287 178l358 -637l-629 -637z" />
<glyph unicode="?" horiz-adv-x="963" d="M158 164q0 53 27 99.5t73 74t100 27.5q53 0 98 -27.5t72 -74.5t27 -101q0 -82 -60 -139.5t-145 -57.5q-80 0 -136 58.5t-56 140.5zM242 420q5 169 71 278.5t165 177t164 112.5t65 91t-31.5 70.5t-85.5 24.5q-70 0 -132.5 -28.5t-105.5 -66.5l-110 221q98 78 207.5 118 t252.5 40q113 0 195 -37.5t124 -103t42 -146.5q0 -155 -65.5 -237.5t-193 -160.5t-192 -148.5t-67.5 -204.5h-303z" />
<glyph unicode="@" horiz-adv-x="1835" d="M70 393q0 187 64.5 355.5t181 294t277.5 197t345 71.5q174 0 326.5 -55t265.5 -154.5t177.5 -238.5t64.5 -300q0 -131 -37 -243t-105.5 -195.5t-157 -127.5t-186.5 -44q-128 0 -181 42.5t-69 117.5q-56 -57 -131.5 -93t-154.5 -36q-136 0 -212.5 83.5t-76.5 235.5 q0 130 39.5 245t117.5 206.5t188.5 141.5t250.5 50q124 0 309 -98q-32 -104 -51 -193l-76 -352q-10 -46 -10 -77q0 -40 16 -56t47 -16q51 0 97 49.5t73 141t27 218.5q0 128 -37.5 224.5t-112 166t-175.5 104t-226 34.5q-152 0 -287.5 -95.5t-216 -256t-80.5 -347.5 q0 -282 153 -430.5t394 -148.5q75 0 150 12.5t159 38.5l47 -209q-194 -64 -356 -64q-241 0 -429 91.5t-295 272.5t-107 437zM727 295q0 -57 16.5 -82t49.5 -25q38 0 83.5 26.5t84 78t55.5 125.5l71 323q-31 9 -49 9q-155 0 -233 -134t-78 -321z" />
<glyph unicode="A" horiz-adv-x="1210" d="M-133 0l762 1427h381l129 -1427h-383l-17 274h-338l-135 -274h-399zM539 557h182l-10 260v21q0 96 16 180q-26 -85 -88 -227z" />
<glyph unicode="B" horiz-adv-x="1225" d="M20 0l304 1427h632q89 0 159 -34t108.5 -97t38.5 -145q0 -72 -28.5 -151t-92 -143.5t-162.5 -94.5q85 -22 142 -95.5t57 -174.5q0 -98 -51 -211.5t-180.5 -197t-346.5 -83.5h-580zM453 305h139q75 0 121.5 55t46.5 138q0 90 -113 90h-135zM573 879h146q39 0 74.5 21.5 t56 60.5t20.5 88q0 77 -102 77h-141z" />
<glyph unicode="C" horiz-adv-x="1110" d="M61 453q0 224 83.5 446t242.5 365q104 91 227.5 139.5t286.5 48.5q240 0 367 -104l-201 -248q-78 67 -203 67q-116 0 -207 -94q-35 -37 -66.5 -101t-56 -146.5t-39 -171.5t-14.5 -167q0 -102 53.5 -156.5t137.5 -54.5q47 0 89 10t83.5 31t89.5 58l108 -254 q-85 -66 -207 -106t-270 -40q-156 0 -269.5 59t-174 168t-60.5 251z" />
<glyph unicode="D" horiz-adv-x="1274" d="M20 0l304 1427h503q199 0 327 -93t128 -349q0 -139 -39 -307t-125 -323t-232 -255t-347 -100h-519zM453 305h122q74 0 132 71t97 181t58 218.5t19 187.5q0 101 -34.5 132t-107.5 31h-112z" />
<glyph unicode="E" horiz-adv-x="991" d="M20 0l304 1427h829l-90 -301h-436l-52 -239h357l-62 -291h-356l-61 -291h489l-65 -305h-857z" />
<glyph unicode="F" horiz-adv-x="870" d="M20 0l304 1427h786l-90 -301h-395l-52 -239h322l-61 -291h-320l-127 -596h-367z" />
<glyph unicode="G" horiz-adv-x="1389" d="M84 473q0 122 42 286t138 322.5t264 263.5t408 105q310 0 479 -180l-239 -209q-45 46 -121 72t-158 26q-145 0 -233 -122.5t-123 -277.5t-35 -255q0 -77 20.5 -128.5t62.5 -75.5t105 -24q81 0 137 21l48 225h-174l20 291h582l-148 -696q-137 -75 -269 -108.5t-276 -33.5 q-160 0 -266.5 53t-164 134t-78.5 164t-21 147z" />
<glyph unicode="H" horiz-adv-x="1276" d="M20 0l304 1427h366l-110 -524h292l111 524h367l-303 -1427h-367l127 600h-293l-127 -600h-367z" />
<glyph unicode="I" horiz-adv-x="625" d="M20 0l304 1427h374l-303 -1427h-375z" />
<glyph unicode="J" horiz-adv-x="623" d="M-215 -209q102 61 152.5 115.5t76 125.5t58.5 220l250 1175h374l-282 -1331q-26 -120 -102 -216t-179 -163.5t-217 -105.5z" />
<glyph unicode="K" horiz-adv-x="1257" d="M20 0l304 1427h366l-303 -1427h-367zM555 768l455 659h454l-514 -653l283 -774h-483z" />
<glyph unicode="L" horiz-adv-x="971" d="M20 0l304 1427h370l-239 -1124h485l-133 -303h-787z" />
<glyph unicode="M" horiz-adv-x="1700" d="M-20 0l442 1427h442l19 -565q1 -23 1 -67q0 -92 -12 -203h2q47 138 119 291l260 544h441l-172 -1427h-351l89 575q29 189 49 287h-2q-27 -82 -52.5 -149.5t-52.5 -118.5l-301 -594h-313l-29 578q-2 44 -2 68q0 97 16 218h-2q-32 -156 -69 -295l-150 -569h-372z" />
<glyph unicode="N" horiz-adv-x="1317" d="M20 0l304 1427h352l155 -489q20 -58 35.5 -127t26.5 -145q10 110 55 319l94 442h349l-304 -1427h-376l-148 496q-32 106 -53 268q-4 -121 -55 -363l-86 -401h-349z" />
<glyph unicode="O" horiz-adv-x="1425" d="M86 467q0 144 43 311t141 322t263 253.5t397 98.5q502 0 502 -524q0 -108 -32 -259.5t-120 -312t-256.5 -271t-421.5 -110.5q-167 0 -283 59.5t-174.5 169t-58.5 263.5zM496 473q0 -121 39 -165t135 -44q93 0 162 78.5t112.5 198.5t62.5 234.5t19 199.5q0 111 -39 150.5 t-129 39.5q-120 0 -202.5 -125.5t-121 -290.5t-38.5 -276z" />
<glyph unicode="P" horiz-adv-x="1182" d="M20 0l304 1427h464q243 0 369.5 -80t126.5 -251q0 -142 -65 -276.5t-210 -223t-372 -88.5h-141l-109 -508h-367zM557 799h107q81 0 128 34.5t66 90.5t19 118q0 49 -31 66.5t-92 17.5h-127z" />
<glyph unicode="Q" horiz-adv-x="1430" d="M88 469q0 143 43.5 311t141 321.5t262.5 252t397 98.5q500 0 504 -524q0 -62 -15.5 -166t-59.5 -231t-131.5 -249.5t-225.5 -205.5q23 -11 71 -47t87 -54t98 -18q67 0 92 2l-123 -227q-29 -6 -105 -6q-81 0 -136 24.5t-127.5 84t-114 90t-111.5 50.5q-139 0 -243.5 33.5 t-171.5 97.5t-99.5 156t-32.5 207zM498 453q0 -102 44 -145.5t130 -43.5q106 0 177 87t109 209t54 235.5t16 179.5q0 111 -39.5 150.5t-128.5 39.5q-92 0 -162 -76t-114.5 -195t-65 -236t-20.5 -205z" />
<glyph unicode="R" horiz-adv-x="1221" d="M20 0l304 1427h491q256 0 368.5 -81.5t112.5 -237.5q0 -100 -40.5 -203.5t-130 -182.5t-224.5 -101q23 -13 56 -59t49 -95q12 -35 38.5 -132t52 -201t31.5 -134h-423l-72 391q-19 110 -41.5 142t-83.5 32l-121 -565h-367zM567 848h105q72 0 118 26.5t66.5 69.5t20.5 96 q0 49 -35.5 67.5t-112.5 18.5h-102z" />
<glyph unicode="S" horiz-adv-x="1274" d="M-41 104l191 287q73 -48 174 -81.5t202 -33.5q54 0 107.5 15t88 49.5t34.5 91.5q0 36 -30 60.5t-91 42.5l-158 49q-125 40 -197.5 128t-72.5 203q0 124 58.5 226.5t153 170t214 104t237.5 36.5q147 0 273 -34t207 -97l-226 -264q-64 46 -146.5 71t-158.5 25 q-39 0 -79 -13t-65.5 -41t-25.5 -69q0 -78 115 -110l139 -41q121 -34 210 -111t89 -209q0 -187 -108.5 -320t-281 -198.5t-355.5 -65.5q-148 0 -268.5 33t-229.5 96z" />
<glyph unicode="T" horiz-adv-x="1049" d="M145 1124l64 303h1077l-106 -303h-332l-240 -1124h-370l239 1124h-332z" />
<glyph unicode="U" horiz-adv-x="1307" d="M90 311q0 61 14 121l213 995h369l-199 -931q-10 -52 -10 -86q0 -134 135 -134q65 0 107 23.5t67 70.5t39 119l199 938h367l-220 -1034q-88 -418 -626 -418q-195 0 -325 77t-130 259z" />
<glyph unicode="V" horiz-adv-x="1237" d="M156 1427h397l55 -587q13 -143 13 -185q0 -36 -3 -84h3q61 149 135 279l325 577h394l-807 -1427h-330z" />
<glyph unicode="W" horiz-adv-x="1716" d="M156 1427h385v-385q0 -216 -9 -328t-20 -186h2q58 204 178 504l158 395h401l-8 -477q-2 -118 -9 -218t-24 -202h2q27 96 88 263t107 280l147 354h400l-674 -1427h-391l14 414q6 185 11.5 285t13.5 163h-2q-29 -109 -164 -448l-164 -414h-399z" />
<glyph unicode="X" horiz-adv-x="1145" d="M-176 0l620 758l-260 669h441l88 -342l219 342h440l-520 -677l266 -750h-444l-103 395l-272 -395h-475z" />
<glyph unicode="Y" horiz-adv-x="1149" d="M135 1427h426l62 -303q17 -93 30 -204q68 122 115 198l190 309h449l-631 -823l-129 -604h-375l127 596z" />
<glyph unicode="Z" horiz-adv-x="1096" d="M-53 0l53 250l635 766q81 101 113 125q-40 -15 -148 -15h-369l88 301h926l-53 -256l-664 -802q-37 -47 -82 -76q53 12 160 12h412l-96 -305h-975z" />
<glyph unicode="[" horiz-adv-x="668" d="M-47 -319l387 1818h491l-49 -225h-180l-291 -1368h181l-48 -225h-491z" />
<glyph unicode="\" horiz-adv-x="870" d="M188 1479l320 102l268 -1610l-317 -102z" />
<glyph unicode="]" horiz-adv-x="668" d="M-119 -319l47 225h181l290 1368h-180l49 225h494l-387 -1818h-494z" />
<glyph unicode="^" horiz-adv-x="1163" d="M82 797l446 653h418l172 -653h-385l-63 333l-207 -333h-381z" />
<glyph unicode="_" horiz-adv-x="899" d="M-219 -256l22 102h1024l-22 -102h-1024z" />
<glyph unicode="`" horiz-adv-x="600" d="M182 1307l185 231l395 -248l-144 -180z" />
<glyph unicode="a" horiz-adv-x="1102" d="M23 328q0 166 62.5 329t164.5 267q48 47 94 76.5t96 47t110.5 26.5t135.5 9q114 0 232.5 -18t171.5 -45q-41 -97 -80 -289l-80 -381q-4 -18 -4 -36q0 -74 45 -124l-289 -231q-31 18 -53 54.5t-27 70.5q-44 -46 -117.5 -81.5t-156.5 -35.5q-305 0 -305 361zM381 336 q0 -54 17 -78.5t53 -24.5q30 0 73.5 40t50.5 69l99 463q-17 14 -43 14q-79 0 -129 -57q-35 -41 -63.5 -116.5t-43 -159.5t-14.5 -150z" />
<glyph unicode="b" horiz-adv-x="1161" d="M37 55q25 45 45 148l180 856q53 253 53 340q0 28 -2 43l375 63v-22q0 -104 -29 -236l-22 -106q-16 -84 -39 -123q34 27 90.5 46t128.5 19q94 0 165 -38.5t109.5 -116t38.5 -189.5q0 -99 -23 -197.5t-66 -188t-105.5 -165t-140.5 -127.5q-69 -45 -141.5 -66.5 t-161.5 -21.5q-104 0 -184 11t-139 27.5t-132 43.5zM455 276q27 -24 84 -24q67 0 113 76.5t68.5 180.5t22.5 181q0 61 -20.5 84t-65.5 23q-55 0 -104 -52z" />
<glyph unicode="c" horiz-adv-x="907" d="M45 344q0 86 21 174q28 132 82 238t132 180t176 110.5t214 36.5q109 0 181 -29.5t138 -95.5l-209 -215q-22 33 -60 55.5t-73 22.5q-43 0 -77 -26t-62 -89.5t-49 -164.5q-29 -140 -29 -195q0 -56 21.5 -82t68.5 -26q114 0 213 94l107 -209q-183 -150 -412 -150 q-183 0 -283 94.5t-100 276.5z" />
<glyph unicode="d" horiz-adv-x="1106" d="M47 317q0 157 56.5 333.5t191 304.5t350.5 128q38 0 115 -30q2 36 26 161l60 285l348 -39l-219 -1040q-53 -249 -53 -339q0 -39 8 -81h-312q-10 25 -10 76q-33 -47 -98.5 -75t-149.5 -28q-150 0 -231.5 90t-81.5 254zM416 344q0 -102 71 -102q30 0 61.5 22t45.5 47 l98 457q-4 18 -23 29.5t-44 11.5q-74 0 -120.5 -92t-67.5 -205.5t-21 -167.5z" />
<glyph unicode="e" horiz-adv-x="1063" d="M49 362q0 144 42.5 276.5t123 233t197.5 157t258 56.5q88 0 159 -17t125 -52.5t84.5 -93.5t30.5 -138q0 -76 -34 -142t-102 -119t-166.5 -83t-225.5 -30q-93 0 -125 8q-6 -31 -6 -64q0 -75 32 -103t115 -28q66 0 148 29.5t149 75.5l70 -224q-234 -131 -435 -131 q-112 0 -195.5 23.5t-137.5 70.5t-80.5 121.5t-26.5 173.5zM473 655q25 -10 74 -10q66 0 117 32t51 85q0 36 -21 55t-59 19q-124 0 -162 -181z" />
<glyph unicode="f" horiz-adv-x="666" d="M-127 -315q141 155 184 376l154 762h-98l49 234h92q2 34 20 127q44 203 167.5 272.5t273.5 69.5q154 0 252 -56l-136 -223q-43 25 -94 25q-33 0 -62 -21t-36 -55l-29 -139h224l-97 -234h-170l-153 -753q-64 -323 -326 -574z" />
<glyph unicode="g" horiz-adv-x="1120" d="M-82 -373l119 221q92 -71 282 -71q83 0 140.5 47t70.5 119q15 69 27 90q-69 -62 -197 -62q-105 0 -172 37.5t-102 121.5t-35 218q0 101 27.5 221.5t98 239.5t199 197.5t320.5 78.5q244 0 416 -59q-8 -20 -29 -104l-127 -572q-29 -130 -41 -201t-23.5 -151.5t-21.5 -130.5 q-24 -118 -101 -192.5t-196 -109t-274 -34.5q-113 0 -219.5 28t-161.5 68zM410 367q0 -78 19.5 -106t66.5 -28q21 0 50.5 25t39.5 41l108 500q-9 18 -73 18q-59 0 -107.5 -77t-76 -184.5t-27.5 -188.5z" />
<glyph unicode="h" horiz-adv-x="1167" d="M20 0l226 1059q55 256 55 362v23l373 61q0 -97 -33 -258l-33 -157q-4 -19 -8.5 -40t-11.5 -46q102 79 262 79q120 0 192 -44.5t72 -157.5q0 -45 -12 -107l-164 -774h-356l147 694q10 48 10 68q0 24 -13.5 33.5t-51.5 9.5q-30 0 -72 -21.5t-67 -44.5l-158 -739h-357z" />
<glyph unicode="i" horiz-adv-x="580" d="M20 0l222 1040l364 33l-229 -1073h-357zM270 1325q0 83 61.5 142t147.5 59q54 0 101 -27t73.5 -74t26.5 -100q0 -84 -61 -142.5t-146 -58.5q-54 0 -101 27t-74.5 73.5t-27.5 100.5z" />
<glyph unicode="j" horiz-adv-x="541" d="M-199 -297q75 51 116.5 119t66.5 188l217 1030l364 33l-219 -1038q-32 -152 -81.5 -245t-133 -154t-227.5 -117zM236 1325q0 54 28 100.5t76.5 73.5t103.5 27q54 0 101 -27t73.5 -74t26.5 -100q0 -84 -61 -142.5t-146 -58.5q-53 0 -100 27t-74.5 73.5t-27.5 100.5z" />
<glyph unicode="k" horiz-adv-x="1079" d="M20 0l224 1059q36 168 47 238.5t11 118.5q0 19 -1 28l373 61q0 -54 -8.5 -119t-30.5 -172l-258 -1214h-357zM506 598l285 459h417l-381 -430l224 -627h-400z" />
<glyph unicode="l" horiz-adv-x="610" d="M51 154q0 60 27 186l153 721q8 39 21.5 104.5t17.5 86t10.5 76.5t6.5 96v20l370 61v-22q0 -104 -30 -242l-168 -784q-27 -127 -27 -170q0 -36 15 -51t49 -15q17 0 39 6l10 -221q-38 -14 -103.5 -23.5t-134.5 -9.5q-142 0 -199 45t-57 136z" />
<glyph unicode="m" horiz-adv-x="1653" d="M20 0l142 666q37 185 37 264q0 35 -9 94l316 59q11 -46 14 -112q129 112 307 112q161 0 211 -116q62 56 143.5 86t168.5 30q249 0 249 -190q0 -45 -14 -113l-166 -780h-342l144 676q8 35 8 65q0 54 -55 54q-42 0 -72.5 -22t-67.5 -77l-147 -696h-334l143 676q11 53 11 72 q0 25 -11.5 36t-40.5 11q-42 0 -72.5 -22t-66.5 -77l-149 -696h-347z" />
<glyph unicode="n" horiz-adv-x="1165" d="M20 0l142 666q37 185 37 264q0 35 -9 94l316 59q16 -67 18 -114q60 52 148 83t174 31q148 0 208 -56.5t60 -152.5q0 -39 -10 -94l-166 -780h-356l143 676q8 32 8 59q0 32 -14 46t-45 14q-44 0 -78.5 -23t-69.5 -76l-149 -696h-357z" />
<glyph unicode="o" horiz-adv-x="1110" d="M33 354q0 115 33.5 239t109 237t201 183t303.5 70q85 0 155.5 -21t124 -66.5t82.5 -116.5t29 -170q0 -115 -33.5 -240.5t-110 -239t-203 -185t-300.5 -71.5q-124 0 -211.5 44t-133.5 131t-46 206zM406 319q0 -48 19 -72t60 -24q52 0 91 63t65 156t39.5 179t13.5 118 q0 54 -19 75.5t-61 21.5q-66 0 -112.5 -103t-71 -232.5t-24.5 -181.5z" />
<glyph unicode="p" horiz-adv-x="1155" d="M-72 -467l240 1133q37 185 37 264q0 28 -8 94l315 59q13 -41 16 -114q140 114 306 114q106 0 171 -42.5t92 -114t27 -164.5q0 -85 -20 -180q-44 -206 -124 -340.5t-195.5 -201.5t-258.5 -67q-78 0 -157 35q1 -6 1 -21q0 -35 -20 -141l-45 -217zM442 283q2 -13 19.5 -21 t42.5 -8q50 0 85 18t67.5 83.5t60.5 195.5q26 121 26 168q0 80 -65 80q-45 0 -77.5 -24t-68.5 -79z" />
<glyph unicode="q" horiz-adv-x="1135" d="M47 315q3 152 41 287t116.5 243.5t205.5 173t305 64.5q293 0 413 -65q-25 -64 -73 -287l-238 -1118l-377 -94l84 393q14 64 31 104q-68 -43 -195 -43q-313 0 -313 342zM422 365q0 -55 20.5 -81t67.5 -26q31 0 57.5 16.5t40.5 34.5l107 494q-16 16 -60 16 q-115 0 -174 -168.5t-59 -285.5z" />
<glyph unicode="r" horiz-adv-x="770" d="M20 0l138 643q41 192 41 277q0 56 -11 104l318 59q17 -56 20 -120q46 51 114.5 87.5t145.5 36.5q60 0 127 -30l-143 -289q-48 29 -98 29q-45 0 -77.5 -24t-68.5 -77l-149 -696h-357z" />
<glyph unicode="s" horiz-adv-x="1022" d="M-66 104l164 236q57 -43 148 -77t176 -34q50 0 89.5 23.5t39.5 66.5q0 38 -29 55t-114 36l-89 20q-70 16 -117.5 51t-71.5 87t-24 120q0 77 34 147.5t100 127t162 88.5t221 32q113 0 205.5 -23t193.5 -73l-158 -221q-61 35 -126.5 53.5t-121.5 18.5q-33 0 -69.5 -17 t-36.5 -65q0 -23 25 -40t88 -34l94 -25q108 -27 163.5 -85t55.5 -169q0 -78 -35 -153t-106 -138.5t-178.5 -101t-241.5 -37.5q-228 0 -441 131z" />
<glyph unicode="t" horiz-adv-x="637" d="M51 158q0 35 10 90l123 575h-86l52 234h86q38 181 67 262l365 53q-34 -108 -76 -315h192l-96 -234h-147l-90 -426q-15 -61 -15 -106q0 -42 20.5 -58t67.5 -16q52 0 94 21l-2 -205q-141 -62 -264 -62q-153 0 -227 40t-74 147z" />
<glyph unicode="u" horiz-adv-x="1157" d="M61 180q0 70 33 234l131 618l367 47l-150 -702q-8 -38 -8 -61q0 -19 6 -32.5t19.5 -19.5t34.5 -6q44 0 79 23.5t68 74.5l145 676l367 47l-147 -692q-19 -89 -19 -164t19 -151l-334 -119q-18 33 -35 131q-133 -111 -315 -111q-115 0 -188 47.5t-73 159.5z" />
<glyph unicode="v" horiz-adv-x="946" d="M70 1036l362 35l27 -315q8 -83 12 -305h4q48 149 139 327l140 279h368l-608 -1057h-274z" />
<glyph unicode="w" horiz-adv-x="1434" d="M82 1032l354 39l-14 -328q-8 -221 -25 -354h2q41 142 146 377l129 291h321l2 -379q0 -178 -12 -283h2q48 160 123 363l113 299h358l-530 -1057h-322l-2 395q0 164 16 273q-49 -155 -106 -283l-170 -385h-313z" />
<glyph unicode="x" horiz-adv-x="989" d="M-199 0l502 565l-194 436l368 95l53 -142q26 -68 29 -155h2q18 64 86 168l60 90h430l-441 -525l256 -532h-417l-60 164q-22 61 -22 119h-4q-10 -27 -33 -62t-78 -110l-80 -111h-457z" />
<glyph unicode="y" horiz-adv-x="1106" d="M-86 -256q113 24 182 51.5t119 73t111 131.5h-99v20q0 38 -3 84t-7 91.5t-8 76.5l-96 775l360 26l41 -553q6 -82 6 -126q0 -51 -4 -91h2q74 206 141 328l234 426h369l-623 -1059q-103 -175 -164.5 -255.5t-174 -139.5t-308.5 -88z" />
<glyph unicode="z" horiz-adv-x="891" d="M-86 0l45 233l537 570h-398l56 254h823l-55 -254l-494 -543h395l-94 -260h-815z" />
<glyph unicode="{" horiz-adv-x="674" d="M31 455l59 274q81 0 114 25.5t48 97.5l70 322q27 122 76 192.5t121 101.5t169 31h162l-68 -309h-47q-94 0 -121 -109l-65 -309q-38 -180 -189 -180v-4q120 0 120 -112q0 -28 -7 -62l-67 -316q-4 -18 -4 -30q0 -78 79 -78h47l-65 -309h-162q-240 0 -240 215q0 51 13 112 l67 320q8 38 8 59q0 43 -26 55.5t-92 12.5z" />
<glyph unicode="|" horiz-adv-x="666" d="M12 -426l418 1974h340l-418 -1974h-340z" />
<glyph unicode="}" horiz-adv-x="674" d="M-129 -319l66 309h47q53 0 82 34t38 74l68 316q37 174 186 174v4q-47 0 -82.5 21.5t-35.5 90.5q0 33 8 68l65 309q5 17 5 37q0 72 -80 72h-48l68 309h162q120 0 181 -47t61 -156q0 -53 -15 -122l-69 -322q-7 -35 -7 -52q0 -40 27 -55.5t92 -15.5l-59 -274 q-80 0 -112.5 -22.5t-51.5 -104.5l-68 -320q-68 -327 -366 -327h-162z" />
<glyph unicode="~" horiz-adv-x="1049" d="M82 739q119 121 280 121q62 0 110 -18.5t104 -52.5t95.5 -51t94.5 -17t115.5 32.5t103.5 84.5l2 -320q-48 -63 -124.5 -100t-162.5 -37q-70 0 -121 18.5t-105.5 52.5t-90.5 51t-84 17q-55 0 -103 -23t-104 -73z" />
<glyph unicode="&#xa1;" horiz-adv-x="653" d="M-59 -479l292 1048h267l-133 -989zM223 827q0 54 27 98.5t75 71.5t103 27q81 0 137 -58t56 -141q0 -54 -27.5 -100t-74 -73t-99.5 -27q-80 0 -138.5 60t-58.5 142z" />
<glyph unicode="&#xa2;" horiz-adv-x="905" d="M41 342q0 117 32 232.5t95.5 217.5t158 174t208.5 99l51 248h254l-52 -240q109 -22 197 -115l-209 -215q-23 33 -60.5 55.5t-72.5 22.5q-75 0 -123.5 -84.5t-71 -196.5t-22.5 -194q0 -56 21.5 -82t68.5 -26q114 0 213 94l107 -209q-129 -105 -277 -135l-55 -256h-254 l55 254q-127 26 -195.5 116.5t-68.5 239.5z" />
<glyph unicode="&#xa3;" horiz-adv-x="1124" d="M-27 0l58 270h141l74 344h-142l56 258h141l27 134q18 85 63 163t126 147t197.5 109.5t266.5 40.5q123 0 213.5 -24t159.5 -84l-250 -256q-64 55 -160 55q-97 0 -150 -45t-67 -113l-27 -127h293l-55 -258h-293l-74 -344h496l-57 -270h-1037z" />
<glyph unicode="&#xa5;" horiz-adv-x="1106" d="M-39 209l57 272h314l22 117h-311l57 272h168l-176 557h438l62 -303q13 -69 29 -198q6 9 48.5 80t67.5 112l191 309h436l-428 -557h164l-58 -272h-311l-24 -117h311l-57 -272h-312l-45 -209h-375l45 209h-313z" />
<glyph unicode="&#xa6;" horiz-adv-x="586" d="M-86 -426l188 889h340l-188 -889h-340zM143 659l189 889h340l-189 -889h-340z" />
<glyph unicode="&#xa7;" horiz-adv-x="1167" d="M-86 -37l377 162q8 -154 164 -154q139 0 139 76q0 26 -24 44t-84.5 43.5t-73.5 31.5l-150 67q-90 41 -135 111.5t-45 155.5q0 107 59.5 201t157.5 159q-59 62 -59 160q0 103 52.5 184.5t135.5 136t183 84t196 29.5q79 0 147 -12.5t131 -43t109.5 -83t69.5 -127.5 l-373 -184q-26 137 -139 137q-40 0 -73.5 -19t-33.5 -57q0 -23 19 -39t61 -37l186 -84q122 -54 195.5 -123t73.5 -174q0 -97 -60 -183.5t-151 -141.5q49 -69 49 -156q0 -146 -94.5 -253.5t-238.5 -161.5t-284 -54q-183 0 -311 69t-176 236zM463 602q0 -27 17 -46t44.5 -32.5 t53.5 -25.5l170 -82q22 14 36.5 40t14.5 50q0 32 -24 51.5t-66 38.5l-195 96q-51 -30 -51 -90z" />
<glyph unicode="&#xa8;" horiz-adv-x="899" d="M211 1331q0 47 24 86.5t63.5 62.5t86.5 23q51 0 92.5 -23t66.5 -62t25 -87q0 -46 -24.5 -85t-65 -61t-86.5 -22q-72 0 -127 49t-55 119zM668 1331q0 72 50 122t122 50q52 0 93.5 -23t66 -62t24.5 -87q0 -45 -24 -84.5t-64.5 -61.5t-87.5 -22q-49 0 -90.5 22.5t-65.5 61.5 t-24 84z" />
<glyph unicode="&#xa9;" horiz-adv-x="1679" d="M131 725q0 154 58.5 291.5t163.5 243t245 166.5t295 61q156 0 297 -61t245 -166.5t162 -244t58 -290.5q0 -151 -58 -289.5t-163.5 -245t-245 -167t-295.5 -60.5q-155 0 -294 60.5t-245 167t-164.5 244.5t-58.5 290zM389 725q0 -140 68.5 -261.5t184.5 -194t251 -72.5 t251 72.5t184.5 194t68.5 261.5q0 107 -38.5 201.5t-109 169t-162 116t-194.5 41.5q-102 0 -194 -42t-161.5 -115.5t-109 -168.5t-39.5 -202zM522 707q0 184 105.5 295.5t279.5 111.5q144 0 244 -84l-119 -174q-59 51 -121 51q-60 0 -81 -34.5t-21 -120.5q0 -121 19.5 -166 t89.5 -45q71 0 124 61l129 -162q-67 -58 -130.5 -85t-147.5 -27q-99 0 -184.5 41t-136 126.5t-50.5 211.5z" />
<glyph unicode="&#xaa;" horiz-adv-x="903" d="M72 471l45 217h819l-45 -217h-819zM199 1030q0 111 41.5 239t154 224t307.5 96q100 0 185 -17.5t127 -35.5q-20 -49 -58 -227l-51 -246q-6 -30 -6 -53q0 -47 39 -86l-254 -179q-38 29 -55 70q-32 -31 -78.5 -50.5t-91.5 -19.5q-113 0 -186.5 66t-73.5 219zM508 1057 q0 -60 29 -60q37 0 61 64l64 295q-7 2 -23 2q-41 0 -70.5 -48t-45 -118t-15.5 -135z" />
<glyph unicode="&#xab;" horiz-adv-x="1255" d="M66 522l456 508l201 -160l-309 -348l161 -348l-268 -158zM639 522l457 508l200 -160l-309 -348l162 -348l-268 -158z" />
<glyph unicode="&#xac;" horiz-adv-x="1087" d="M33 379l59 276h977l-119 -563h-325l59 287h-651z" />
<glyph unicode="&#xad;" horiz-adv-x="752" d="M80 424l61 293h559l-61 -293h-559z" />
<glyph unicode="&#xae;" horiz-adv-x="1679" d="M131 725q0 154 58.5 291.5t163.5 243t245 166.5t295 61q156 0 297 -61t245 -166.5t162 -244t58 -290.5q0 -151 -58 -289.5t-163.5 -245t-245 -167t-295.5 -60.5q-155 0 -294 60.5t-245 167t-164.5 244.5t-58.5 290zM389 725q0 -140 68.5 -261.5t184.5 -194t251 -72.5 t251 72.5t184.5 194t68.5 261.5q0 107 -38.5 201.5t-109 169t-162 116t-194.5 41.5q-102 0 -194 -42t-161.5 -115.5t-109 -168.5t-39.5 -202zM596 373v739h365q98 0 166.5 -57.5t68.5 -157.5q0 -93 -43 -146.5t-104 -68.5q42 -8 69 -36t51 -101l58 -172h-266q-8 29 -20 77 t-25 91t-25 65q-17 33 -45 33h-8v-266h-242zM838 821h45q45 0 45 51q0 23 -12 37.5t-33 14.5h-45v-103z" />
<glyph unicode="&#xaf;" horiz-adv-x="899" d="M-69 1581l22 102h1024l-22 -102h-1024z" />
<glyph unicode="&#xb0;" horiz-adv-x="801" d="M154 1032q0 94 33.5 171t95 134t143 87t176.5 30q90 0 157 -27.5t104.5 -83t37.5 -137.5q0 -125 -58.5 -222t-161.5 -149.5t-230 -52.5q-140 0 -218.5 64.5t-78.5 185.5zM434 1040q0 -77 60 -77q66 0 96.5 77t30.5 160q0 36 -15 57t-45 21q-67 0 -97 -77.5t-30 -160.5z " />
<glyph unicode="&#xb1;" horiz-adv-x="1063" d="M-45 -49l57 274h930l-57 -274h-930zM82 565l61 289h308l59 287h324l-60 -287h307l-61 -289h-307l-64 -297h-323l63 297h-307z" />
<glyph unicode="&#xb2;" horiz-adv-x="772" d="M-14 512l37 176q96 68 166.5 123t125.5 107q63 58 97 101t34 93q0 39 -47 39q-34 0 -69 -17t-97 -63l-139 148q111 75 198 107t189 32q120 0 184 -53t64 -144q0 -134 -106.5 -241.5t-264.5 -200.5q7 1 14.5 1.5t20.5 0.5h273l-103 -209h-577z" />
<glyph unicode="&#xb3;" horiz-adv-x="719" d="M-16 676q64 -12 100 -12q96 0 186 28.5t90 106.5q0 43 -81 43q-31 0 -121 -11l43 207q70 -8 102 -8q119 0 119 82q0 35 -47 35q-50 0 -90.5 -17t-91.5 -59l-82 182q164 101 333 101q76 0 137 -23t93.5 -64.5t32.5 -99.5q0 -67 -34.5 -127t-90.5 -94q67 -37 67 -131 q0 -118 -85.5 -196t-208.5 -114t-236 -36q-71 0 -131 8z" />
<glyph unicode="&#xb4;" horiz-adv-x="649" d="M207 1290l500 248l90 -231l-516 -197z" />
<glyph unicode="&#xb5;" horiz-adv-x="1188" d="M-66 -467l318 1499l371 64l-154 -721q-8 -40 -8 -61q0 -29 13.5 -42.5t45.5 -13.5q45 0 80 23.5t68 74.5l143 668l373 74l-152 -713q-18 -90 -18 -162q0 -73 18 -151l-334 -119q-17 33 -34 131q-113 -107 -246 -107q-33 0 -43 13l-2 -2q0 -54 -17 -138l-45 -221z" />
<glyph unicode="&#xb6;" horiz-adv-x="1188" d="M113 967q0 164 76.5 267t206 148t290.5 45h586l-359 -1685h-239l319 1501h-141l-320 -1501h-239l203 956q-195 0 -289 69.5t-94 199.5z" />
<glyph unicode="&#xb7;" horiz-adv-x="639" d="M123 555q0 56 29.5 107t79 80.5t108.5 29.5q58 0 106.5 -30t76.5 -80.5t28 -110.5q0 -86 -64 -148.5t-155 -62.5q-88 0 -148.5 63t-60.5 152z" />
<glyph unicode="&#xb8;" horiz-adv-x="430" d="M-178 -369l92 127q42 -22 94 -22q32 0 56 15.5t24 45.5q0 37 -59 37q-26 0 -60 -4l-12 35l92 176l158 -21l-47 -71q60 -4 92.5 -40t32.5 -91q0 -105 -87 -166.5t-196 -61.5q-47 0 -98.5 12t-81.5 29z" />
<glyph unicode="&#xb9;" horiz-adv-x="655" d="M33 512l41 190h145l76 363q-80 -41 -135 -55l-41 137l315 196h162l-135 -641h112l-41 -190h-499z" />
<glyph unicode="&#xba;" horiz-adv-x="920" d="M63 471l46 217h819l-45 -217h-820zM213 1049q0 135 64 261t177 202.5t255 76.5q82 0 155 -28t120.5 -93.5t47.5 -175.5q0 -108 -35.5 -207t-102.5 -176.5t-161.5 -122.5t-204.5 -45q-147 0 -231 83t-84 225zM530 1057q0 -80 60 -80q37 0 66 56.5t45 131t16 117.5 q0 70 -55 70q-46 0 -75 -53t-43 -122.5t-14 -119.5z" />
<glyph unicode="&#xbb;" horiz-adv-x="1257" d="M-31 174l310 348l-162 348l270 160l240 -508l-455 -506zM543 174l309 348l-162 348l271 160l239 -508l-455 -506z" />
<glyph unicode="&#xbc;" horiz-adv-x="1962" d="M43 512l41 190h145l78 363q-78 -40 -137 -55l-41 137l317 196h162l-137 -641h113l-41 -190h-500zM63 -315l1483 1882h281l-1485 -1882h-279zM1145 150l33 155l315 529h256l-231 -398q-28 -46 -48 -69h80q12 51 25.5 87t56.5 130l228 32l-33 -157q-2 -10 -10.5 -41 t-14.5 -51h72l-45 -217h-57l-13 2q0 -2 -0.5 -5t-1.5 -9.5t-2 -12.5l-33 -158l-260 -18l41 190l4 15q-3 -1 -9 -2.5t-9 -1.5h-344z" />
<glyph unicode="&#xbd;" horiz-adv-x="1958" d="M0 -315l1483 1882h280l-1484 -1882h-279zM18 512l41 190h146l78 363q-79 -40 -138 -55l-41 137l318 196h162l-138 -641h113l-41 -190h-500zM1126 0l37 176q193 135 293 230q60 55 95.5 99.5t35.5 94.5q0 39 -47 39q-34 0 -69 -17t-97 -63l-139 148q111 75 198.5 107 t188.5 32q120 0 184 -53t64 -144q0 -134 -106.5 -241.5t-264.5 -200.5q7 1 14.5 1.5t20.5 0.5h272l-102 -209h-578z" />
<glyph unicode="&#xbe;" horiz-adv-x="2064" d="M47 676q64 -12 103 -12q95 0 184.5 28.5t89.5 106.5q0 43 -80 43q-33 0 -123 -11l45 207q70 -8 103 -8q118 0 118 82q0 35 -47 35q-48 0 -91 -17.5t-93 -58.5l-80 182q166 101 334 101q120 0 191 -50t71 -137q0 -65 -34.5 -125.5t-92.5 -95.5q34 -18 52 -53.5t18 -77.5 q0 -118 -85.5 -196t-208.5 -114t-237 -36q-71 0 -131 8zM174 -315l1483 1882h280l-1484 -1882h-279zM1247 150l33 155l315 529h256l-231 -398q-20 -36 -47 -69h80q11 53 25 88t57 129l227 32l-33 -157q-7 -34 -24 -92h71l-45 -217h-57l-12 2q0 -2 -0.5 -5t-1.5 -9.5 t-2 -12.5l-33 -158l-260 -18l41 190l4 15l-10 -2.5t-9 -1.5h-344z" />
<glyph unicode="&#xbf;" horiz-adv-x="963" d="M-92 -182q0 79 23.5 146t89 134.5t178.5 128.5q90 51 132.5 96t59 95t35.5 151h303q-2 -176 -63 -287.5t-211 -205.5q-40 -25 -91.5 -56.5t-72.5 -55.5t-21 -54q0 -90 136 -90q113 0 212 90l111 -221q-99 -78 -208 -118t-253 -40q-171 0 -265.5 74t-94.5 213zM416 827 q0 54 27 98.5t75 71.5t103 27q80 0 136 -58t56 -141q0 -84 -59 -142t-142 -58q-79 0 -137.5 60t-58.5 142z" />
<glyph unicode="&#xc0;" horiz-adv-x="1210" d="M-133 0l762 1427h381l129 -1427h-383l-17 274h-338l-135 -274h-399zM539 557h182l-10 260v21q0 96 16 180q-26 -85 -88 -227zM553 1651l185 231l395 -248l-144 -180z" />
<glyph unicode="&#xc1;" horiz-adv-x="1210" d="M-133 0l762 1427h381l129 -1427h-383l-17 274h-338l-135 -274h-399zM539 557h182l-10 260v21q0 96 16 180q-26 -85 -88 -227zM565 1634l500 248l90 -231l-516 -197z" />
<glyph unicode="&#xc2;" horiz-adv-x="1210" d="M-133 0l762 1427h381l129 -1427h-383l-17 274h-338l-135 -274h-399zM469 1647l434 233l336 -243l-155 -191l-252 146l-299 -146zM539 557h182l-10 260v21q0 96 16 180q-26 -85 -88 -227z" />
<glyph unicode="&#xc3;" horiz-adv-x="1210" d="M-133 0l762 1427h381l129 -1427h-383l-17 274h-338l-135 -274h-399zM461 1732q61 59 126.5 90t139.5 31q46 0 75 -9.5t64 -27.5t62 -26.5t61 -8.5q41 0 88.5 18t73.5 41l47 -215q-59 -56 -125.5 -84t-151.5 -28q-40 0 -66 8.5t-60.5 28t-63.5 29.5t-68 10q-80 0 -155 -62 zM539 557h182l-10 260v21q0 96 16 180q-26 -85 -88 -227z" />
<glyph unicode="&#xc4;" horiz-adv-x="1210" d="M-133 0l762 1427h381l129 -1427h-383l-17 274h-338l-135 -274h-399zM416 1659q0 47 24 86.5t63.5 62.5t86.5 23q51 0 92.5 -23t66.5 -62t25 -87q0 -46 -24.5 -85t-65 -61t-86.5 -22q-72 0 -127 49t-55 119zM539 557h182l-10 260v21q0 96 16 180q-26 -85 -88 -227z M873 1659q0 72 50 122t122 50q52 0 93.5 -23t66 -62t24.5 -87q0 -45 -24 -84.5t-64.5 -61.5t-87.5 -22q-49 0 -90.5 22.5t-65.5 61.5t-24 84z" />
<glyph unicode="&#xc5;" horiz-adv-x="1210" d="M-133 0l762 1427h381l129 -1427h-383l-17 274h-338l-135 -274h-399zM539 557h182l-10 260v21q0 96 16 180q-26 -85 -88 -227zM584 1671q0 59 33.5 108.5t89.5 79t119 29.5t117 -29.5t86 -80t32 -107.5t-33.5 -108t-88 -80t-113.5 -29q-67 0 -122.5 29t-87.5 78.5 t-32 109.5zM738 1671q0 -35 24.5 -60.5t59.5 -25.5q38 0 62 25t24 61q0 22 -12 42.5t-31 32t-39 11.5q-42 0 -65 -24t-23 -62z" />
<glyph unicode="&#xc6;" horiz-adv-x="1595" d="M-266 0l1136 1427h887l-110 -301h-426l-52 -239h357l-62 -291h-356l-61 -291h499l-65 -305h-867l58 270h-330l-197 -270h-411zM567 578h170l58 270q17 74 20 86h-4q-27 -50 -66.5 -110t-79 -114t-98.5 -132z" />
<glyph unicode="&#xc7;" horiz-adv-x="1110" d="M61 453q0 224 83.5 446t242.5 365q104 91 227.5 139.5t286.5 48.5q240 0 367 -104l-201 -248q-78 67 -203 67q-116 0 -207 -94q-35 -37 -66.5 -101t-56 -146.5t-39 -171.5t-14.5 -167q0 -102 53.5 -156.5t137.5 -54.5q47 0 89 10t83.5 31t89.5 58l108 -254 q-174 -136 -446 -146l-18 -26q60 -4 92 -40t32 -91q0 -105 -86.5 -166.5t-195.5 -61.5q-47 0 -98.5 12t-81.5 29l92 127q41 -22 94 -22q32 0 56 15.5t24 45.5q0 37 -60 37q-27 0 -59 -4l-12 35l63 121q-91 19 -160 58t-118 101t-74 140.5t-25 167.5z" />
<glyph unicode="&#xc8;" horiz-adv-x="991" d="M20 0l304 1427h829l-90 -301h-436l-52 -239h357l-62 -291h-356l-61 -291h489l-65 -305h-857zM354 1651l185 231l395 -248l-144 -180z" />
<glyph unicode="&#xc9;" horiz-adv-x="991" d="M20 0l304 1427h829l-90 -301h-436l-52 -239h357l-62 -291h-356l-61 -291h489l-65 -305h-857zM461 1634l500 248l90 -231l-516 -197z" />
<glyph unicode="&#xca;" horiz-adv-x="991" d="M20 0l304 1427h829l-90 -301h-436l-52 -239h357l-62 -291h-356l-61 -291h489l-65 -305h-857zM391 1653l434 233l336 -243l-155 -191l-252 146l-299 -146z" />
<glyph unicode="&#xcb;" horiz-adv-x="991" d="M20 0l304 1427h829l-90 -301h-436l-52 -239h357l-62 -291h-356l-61 -291h489l-65 -305h-857zM315 1667q0 47 24 86.5t63.5 62.5t86.5 23q51 0 92.5 -23t66.5 -62t25 -87q0 -46 -24.5 -85t-65 -61t-86.5 -22q-72 0 -127 49t-55 119zM772 1667q0 72 50 122t122 50 q52 0 93.5 -23t66 -62t24.5 -87q0 -45 -24 -84.5t-64.5 -61.5t-87.5 -22q-49 0 -90.5 22.5t-65.5 61.5t-24 84z" />
<glyph unicode="&#xcc;" horiz-adv-x="625" d="M20 0l304 1427h374l-303 -1427h-375zM270 1651l185 231l395 -248l-144 -180z" />
<glyph unicode="&#xcd;" horiz-adv-x="625" d="M20 0l304 1427h374l-303 -1427h-375zM260 1634l500 248l90 -231l-516 -197z" />
<glyph unicode="&#xce;" horiz-adv-x="625" d="M20 0l304 1427h374l-303 -1427h-375zM176 1647l434 233l336 -243l-155 -191l-252 146l-299 -146z" />
<glyph unicode="&#xcf;" horiz-adv-x="625" d="M20 0l304 1427h374l-303 -1427h-375zM137 1665q0 47 24 86.5t63.5 62.5t86.5 23q51 0 92.5 -23t66.5 -62t25 -87q0 -46 -24.5 -85t-65 -61t-86.5 -22q-72 0 -127 49t-55 119zM594 1665q0 72 50 122t122 50q52 0 93.5 -23t66 -62t24.5 -87q0 -45 -24 -84.5t-64.5 -61.5 t-87.5 -22q-49 0 -90.5 22.5t-65.5 61.5t-24 84z" />
<glyph unicode="&#xd0;" horiz-adv-x="1274" d="M4 606l47 223h146l127 598h503q199 0 327 -93t128 -349q0 -139 -39 -307t-125 -323t-232 -255t-347 -100h-519l130 606h-146zM453 305h122q74 0 132 71t97 181t58 218.5t19 187.5q0 101 -34.5 132t-107.5 31h-112l-64 -297h174l-96 -223h-125z" />
<glyph unicode="&#xd1;" horiz-adv-x="1317" d="M20 0l304 1427h352l155 -489q20 -58 35.5 -127t26.5 -145q10 110 55 319l94 442h349l-304 -1427h-376l-148 496q-32 106 -53 268q-4 -121 -55 -363l-86 -401h-349zM492 1710q61 59 126.5 90t139.5 31q46 0 75 -9.5t64 -27.5t62 -26.5t61 -8.5q41 0 88.5 18t73.5 41 l47 -215q-59 -56 -125.5 -84t-151.5 -28q-40 0 -66 8.5t-60.5 28t-63.5 29.5t-68 10q-80 0 -155 -62z" />
<glyph unicode="&#xd2;" horiz-adv-x="1425" d="M86 467q0 144 43 311t141 322t263 253.5t397 98.5q502 0 502 -524q0 -108 -32 -259.5t-120 -312t-256.5 -271t-421.5 -110.5q-167 0 -283 59.5t-174.5 169t-58.5 263.5zM496 473q0 -121 39 -165t135 -44q93 0 162 78.5t112.5 198.5t62.5 234.5t19 199.5q0 111 -39 150.5 t-129 39.5q-120 0 -202.5 -125.5t-121 -290.5t-38.5 -276zM612 1663l185 231l395 -248l-144 -180z" />
<glyph unicode="&#xd3;" horiz-adv-x="1425" d="M86 467q0 144 43 311t141 322t263 253.5t397 98.5q502 0 502 -524q0 -108 -32 -259.5t-120 -312t-256.5 -271t-421.5 -110.5q-167 0 -283 59.5t-174.5 169t-58.5 263.5zM496 473q0 -121 39 -165t135 -44q93 0 162 78.5t112.5 198.5t62.5 234.5t19 199.5q0 111 -39 150.5 t-129 39.5q-120 0 -202.5 -125.5t-121 -290.5t-38.5 -276zM653 1634l500 248l90 -231l-516 -197z" />
<glyph unicode="&#xd4;" horiz-adv-x="1425" d="M86 467q0 144 43 311t141 322t263 253.5t397 98.5q502 0 502 -524q0 -108 -32 -259.5t-120 -312t-256.5 -271t-421.5 -110.5q-167 0 -283 59.5t-174.5 169t-58.5 263.5zM496 473q0 -121 39 -165t135 -44q93 0 162 78.5t112.5 198.5t62.5 234.5t19 199.5q0 111 -39 150.5 t-129 39.5q-120 0 -202.5 -125.5t-121 -290.5t-38.5 -276zM600 1655l434 233l336 -243l-155 -191l-252 146l-299 -146z" />
<glyph unicode="&#xd5;" horiz-adv-x="1425" d="M86 467q0 144 43 311t141 322t263 253.5t397 98.5q502 0 502 -524q0 -108 -32 -259.5t-120 -312t-256.5 -271t-421.5 -110.5q-167 0 -283 59.5t-174.5 169t-58.5 263.5zM496 473q0 -121 39 -165t135 -44q93 0 162 78.5t112.5 198.5t62.5 234.5t19 199.5q0 111 -39 150.5 t-129 39.5q-120 0 -202.5 -125.5t-121 -290.5t-38.5 -276zM590 1732q61 59 126.5 90t139.5 31q46 0 75 -9.5t64 -27.5t62 -26.5t61 -8.5q41 0 88.5 18t73.5 41l47 -215q-59 -56 -125.5 -84t-151.5 -28q-40 0 -66 8.5t-60.5 28t-63.5 29.5t-68 10q-80 0 -155 -62z" />
<glyph unicode="&#xd6;" horiz-adv-x="1425" d="M86 467q0 144 43 311t141 322t263 253.5t397 98.5q502 0 502 -524q0 -108 -32 -259.5t-120 -312t-256.5 -271t-421.5 -110.5q-167 0 -283 59.5t-174.5 169t-58.5 263.5zM496 473q0 -121 39 -165t135 -44q93 0 162 78.5t112.5 198.5t62.5 234.5t19 199.5q0 111 -39 150.5 t-129 39.5q-120 0 -202.5 -125.5t-121 -290.5t-38.5 -276zM539 1667q0 47 24 86.5t63.5 62.5t86.5 23q51 0 92.5 -23t66.5 -62t25 -87q0 -46 -24.5 -85t-65 -61t-86.5 -22q-72 0 -127 49t-55 119zM996 1667q0 72 50 122t122 50q52 0 93.5 -23t66 -62t24.5 -87 q0 -45 -24 -84.5t-64.5 -61.5t-87.5 -22q-49 0 -90.5 22.5t-65.5 61.5t-24 84z" />
<glyph unicode="&#xd7;" horiz-adv-x="1384" d="M63 356l410 338l-268 338l287 236l266 -338l411 338l179 -230l-408 -338l270 -344l-286 -235l-273 344l-407 -338z" />
<glyph unicode="&#xd8;" horiz-adv-x="1337" d="M-154 -90l195 237q-94 123 -94 320q0 242 105 470.5t299 371.5t442 143q171 0 280 -59l164 198l154 -102l-179 -215q84 -120 84 -309q0 -107 -26 -228t-73 -234.5t-117 -215t-148 -162.5q-190 -150 -467 -150q-162 0 -277 56l-192 -234zM360 532l488 590q-35 43 -127 43 q-169 0 -249.5 -194.5t-111.5 -438.5zM412 301q41 -37 120 -37q120 0 192 98.5t103 223.5t54 284z" />
<glyph unicode="&#xd9;" horiz-adv-x="1307" d="M90 311q0 61 14 121l213 995h369l-199 -931q-10 -52 -10 -86q0 -134 135 -134q65 0 107 23.5t67 70.5t39 119l199 938h367l-220 -1034q-88 -418 -626 -418q-195 0 -325 77t-130 259zM565 1651l185 231l395 -248l-144 -180z" />
<glyph unicode="&#xda;" horiz-adv-x="1307" d="M90 311q0 61 14 121l213 995h369l-199 -931q-10 -52 -10 -86q0 -134 135 -134q65 0 107 23.5t67 70.5t39 119l199 938h367l-220 -1034q-88 -418 -626 -418q-195 0 -325 77t-130 259zM608 1634l500 248l90 -231l-516 -197z" />
<glyph unicode="&#xdb;" horiz-adv-x="1307" d="M90 311q0 61 14 121l213 995h369l-199 -931q-10 -52 -10 -86q0 -134 135 -134q65 0 107 23.5t67 70.5t39 119l199 938h367l-220 -1034q-88 -418 -626 -418q-195 0 -325 77t-130 259zM526 1653l434 233l336 -243l-155 -191l-252 146l-299 -146z" />
<glyph unicode="&#xdc;" horiz-adv-x="1307" d="M90 311q0 61 14 121l213 995h369l-199 -931q-10 -52 -10 -86q0 -134 135 -134q65 0 107 23.5t67 70.5t39 119l199 938h367l-220 -1034q-88 -418 -626 -418q-195 0 -325 77t-130 259zM475 1659q0 47 24 86.5t63.5 62.5t86.5 23q51 0 92.5 -23t66.5 -62t25 -87 q0 -46 -24.5 -85t-65 -61t-86.5 -22q-72 0 -127 49t-55 119zM932 1659q0 72 50 122t122 50q52 0 93.5 -23t66 -62t24.5 -87q0 -45 -24 -84.5t-64.5 -61.5t-87.5 -22q-49 0 -90.5 22.5t-65.5 61.5t-24 84z" />
<glyph unicode="&#xdd;" horiz-adv-x="1149" d="M135 1427h426l62 -303q17 -93 30 -204q68 122 115 198l190 309h449l-631 -823l-129 -604h-375l127 596zM506 1634l500 248l90 -231l-516 -197z" />
<glyph unicode="&#xde;" horiz-adv-x="1212" d="M49 0l303 1427h367l-47 -225h96q496 0 496 -332q0 -142 -65 -276t-211 -222.5t-372 -88.5h-141l-59 -283h-367zM537 573h106q81 0 128 34.5t66 90.5t19 119q0 49 -30.5 66.5t-92.5 17.5h-127z" />
<glyph unicode="&#xdf;" horiz-adv-x="1219" d="M-51 0q61 133 92 285l104 491h-168l60 281h168l10 49q24 115 95.5 198t187.5 127t270 44q130 0 225 -32.5t147 -98.5t52 -162q0 -86 -41 -163t-109 -130q-31 -24 -56 -37.5t-54.5 -26t-38 -17t-8.5 -11.5q0 -10 58 -42t98 -59.5t78 -84t38 -134.5q0 -142 -82 -257 t-221 -180t-305 -65q-101 0 -160 25l98 264q37 -18 88 -18q98 0 145.5 60t47.5 130q0 48 -26.5 76t-77.5 60t-78 65.5t-27 93.5q0 83 31 131t90.5 90t85 72.5t25.5 95.5q0 76 -84 76q-45 0 -73 -17.5t-45.5 -55t-33.5 -107.5l-164 -776q-27 -126 -82 -240h-360z" />
<glyph unicode="&#xe0;" horiz-adv-x="1102" d="M23 328q0 166 62.5 329t164.5 267q48 47 94 76.5t96 47t110.5 26.5t135.5 9q114 0 232.5 -18t171.5 -45q-41 -97 -80 -289l-80 -381q-4 -18 -4 -36q0 -74 45 -124l-289 -231q-31 18 -53 54.5t-27 70.5q-44 -46 -117.5 -81.5t-156.5 -35.5q-305 0 -305 361zM376 1307 l185 231l395 -248l-144 -180zM381 336q0 -54 17 -78.5t53 -24.5q30 0 73.5 40t50.5 69l99 463q-17 14 -43 14q-79 0 -129 -57q-35 -41 -63.5 -116.5t-43 -159.5t-14.5 -150z" />
<glyph unicode="&#xe1;" horiz-adv-x="1102" d="M23 328q0 166 62.5 329t164.5 267q48 47 94 76.5t96 47t110.5 26.5t135.5 9q114 0 232.5 -18t171.5 -45q-41 -97 -80 -289l-80 -381q-4 -18 -4 -36q0 -74 45 -124l-289 -231q-31 18 -53 54.5t-27 70.5q-44 -46 -117.5 -81.5t-156.5 -35.5q-305 0 -305 361zM381 336 q0 -54 17 -78.5t53 -24.5q30 0 73.5 40t50.5 69l99 463q-17 14 -43 14q-79 0 -129 -57q-35 -41 -63.5 -116.5t-43 -159.5t-14.5 -150zM450 1290l500 248l90 -231l-516 -197z" />
<glyph unicode="&#xe2;" horiz-adv-x="1102" d="M23 328q0 166 62.5 329t164.5 267q48 47 94 76.5t96 47t110.5 26.5t135.5 9q114 0 232.5 -18t171.5 -45q-41 -97 -80 -289l-80 -381q-4 -18 -4 -36q0 -74 45 -124l-289 -231q-31 18 -53 54.5t-27 70.5q-44 -46 -117.5 -81.5t-156.5 -35.5q-305 0 -305 361zM322 1293 l434 233l336 -243l-155 -191l-252 146l-299 -146zM381 336q0 -54 17 -78.5t53 -24.5q30 0 73.5 40t50.5 69l99 463q-17 14 -43 14q-79 0 -129 -57q-35 -41 -63.5 -116.5t-43 -159.5t-14.5 -150z" />
<glyph unicode="&#xe3;" horiz-adv-x="1102" d="M23 328q0 166 62.5 329t164.5 267q48 47 94 76.5t96 47t110.5 26.5t135.5 9q114 0 232.5 -18t171.5 -45q-41 -97 -80 -289l-80 -381q-4 -18 -4 -36q0 -74 45 -124l-289 -231q-31 18 -53 54.5t-27 70.5q-44 -46 -117.5 -81.5t-156.5 -35.5q-305 0 -305 361zM324 1397 q61 59 126.5 90t139.5 31q46 0 75 -9.5t64 -27.5t62 -26.5t61 -8.5q41 0 88.5 18t73.5 41l47 -215q-59 -56 -125.5 -84t-151.5 -28q-40 0 -66 8.5t-60.5 28t-63.5 29.5t-68 10q-80 0 -155 -62zM381 336q0 -54 17 -78.5t53 -24.5q30 0 73.5 40t50.5 69l99 463q-17 14 -43 14 q-79 0 -129 -57q-35 -41 -63.5 -116.5t-43 -159.5t-14.5 -150z" />
<glyph unicode="&#xe4;" horiz-adv-x="1102" d="M23 328q0 166 62.5 329t164.5 267q48 47 94 76.5t96 47t110.5 26.5t135.5 9q114 0 232.5 -18t171.5 -45q-41 -97 -80 -289l-80 -381q-4 -18 -4 -36q0 -74 45 -124l-289 -231q-31 18 -53 54.5t-27 70.5q-44 -46 -117.5 -81.5t-156.5 -35.5q-305 0 -305 361zM285 1331 q0 47 24 86.5t63.5 62.5t86.5 23q51 0 92.5 -23t66.5 -62t25 -87q0 -46 -24.5 -85t-65 -61t-86.5 -22q-72 0 -127 49t-55 119zM381 336q0 -54 17 -78.5t53 -24.5q30 0 73.5 40t50.5 69l99 463q-17 14 -43 14q-79 0 -129 -57q-35 -41 -63.5 -116.5t-43 -159.5t-14.5 -150z M742 1331q0 72 50 122t122 50q52 0 93.5 -23t66 -62t24.5 -87q0 -45 -24 -84.5t-64.5 -61.5t-87.5 -22q-49 0 -90.5 22.5t-65.5 61.5t-24 84z" />
<glyph unicode="&#xe5;" horiz-adv-x="1102" d="M23 328q0 166 62.5 329t164.5 267q48 47 94 76.5t96 47t110.5 26.5t135.5 9q114 0 232.5 -18t171.5 -45q-41 -97 -80 -289l-80 -381q-4 -18 -4 -36q0 -74 45 -124l-289 -231q-31 18 -53 54.5t-27 70.5q-44 -46 -117.5 -81.5t-156.5 -35.5q-305 0 -305 361zM381 336 q0 -54 17 -78.5t53 -24.5q30 0 73.5 40t50.5 69l99 463q-17 14 -43 14q-79 0 -129 -57q-35 -41 -63.5 -116.5t-43 -159.5t-14.5 -150zM459 1327q0 59 33.5 108.5t89.5 79t119 29.5t117 -29.5t86 -80t32 -107.5t-33.5 -108t-88 -80t-113.5 -29q-67 0 -122.5 29t-87.5 78.5 t-32 109.5zM613 1327q0 -35 24.5 -60.5t59.5 -25.5q38 0 62 25t24 61q0 22 -12 42.5t-31 32t-39 11.5q-42 0 -65 -24t-23 -62z" />
<glyph unicode="&#xe6;" horiz-adv-x="1591" d="M23 219q0 122 50 211t132 141.5t180.5 76.5t193.5 24q18 0 52 -2l16 55q9 27 9 50q0 61 -74 61q-83 0 -161 -27.5t-163 -83.5l-82 225q81 44 162 73t167 44.5t177 15.5q165 0 246 -67q120 69 270 69q88 0 159 -17t125 -52.5t84.5 -93.5t30.5 -138q0 -76 -33.5 -142.5 t-101 -119.5t-167 -83.5t-226.5 -30.5q-80 0 -123 10q-8 -42 -8 -64q0 -75 32 -103t115 -28q65 0 147 29t150 76l70 -224q-120 -67 -232.5 -99t-201.5 -32q-148 0 -234.5 31.5t-128.5 101.5q-124 -133 -333 -133q-103 0 -170.5 31.5t-98 86t-30.5 128.5zM391 297 q0 -34 17 -54t43 -20q33 0 68.5 23t41.5 55l25 133q-17 2 -43 2q-70 0 -111 -35.5t-41 -103.5zM995 649q11 -4 80 -4q66 0 117 32t51 85q0 36 -21 55t-59 19q-65 0 -107 -50t-61 -137z" />
<glyph unicode="&#xe7;" horiz-adv-x="907" d="M45 344q0 86 21 174q28 132 82 238t132 180t176 110.5t214 36.5q109 0 181 -29.5t138 -95.5l-209 -215q-22 33 -60 55.5t-73 22.5q-43 0 -77 -26t-62 -89.5t-49 -164.5q-29 -140 -29 -195q0 -56 21.5 -82t68.5 -26q114 0 213 94l107 -209q-92 -76 -192.5 -112t-203.5 -38 l-16 -24q60 -4 92.5 -40t32.5 -91q0 -105 -87 -166.5t-196 -61.5q-48 0 -98.5 12t-81.5 29l92 127q42 -22 94 -22q31 0 54.5 15.5t23.5 45.5q0 37 -57 37q-27 0 -59 -4l-13 35l66 125q-119 32 -182.5 121.5t-63.5 232.5z" />
<glyph unicode="&#xe8;" horiz-adv-x="1063" d="M49 362q0 144 42.5 276.5t123 233t197.5 157t258 56.5q88 0 159 -17t125 -52.5t84.5 -93.5t30.5 -138q0 -76 -34 -142t-102 -119t-166.5 -83t-225.5 -30q-93 0 -125 8q-6 -31 -6 -64q0 -75 32 -103t115 -28q66 0 148 29.5t149 75.5l70 -224q-234 -131 -435 -131 q-112 0 -195.5 23.5t-137.5 70.5t-80.5 121.5t-26.5 173.5zM387 1307l185 231l395 -248l-144 -180zM473 655q25 -10 74 -10q66 0 117 32t51 85q0 36 -21 55t-59 19q-124 0 -162 -181z" />
<glyph unicode="&#xe9;" horiz-adv-x="1063" d="M49 362q0 144 42.5 276.5t123 233t197.5 157t258 56.5q88 0 159 -17t125 -52.5t84.5 -93.5t30.5 -138q0 -76 -34 -142t-102 -119t-166.5 -83t-225.5 -30q-93 0 -125 8q-6 -31 -6 -64q0 -75 32 -103t115 -28q66 0 148 29.5t149 75.5l70 -224q-234 -131 -435 -131 q-112 0 -195.5 23.5t-137.5 70.5t-80.5 121.5t-26.5 173.5zM428 1290l500 248l90 -231l-516 -197zM473 655q25 -10 74 -10q66 0 117 32t51 85q0 36 -21 55t-59 19q-124 0 -162 -181z" />
<glyph unicode="&#xea;" horiz-adv-x="1063" d="M49 362q0 144 42.5 276.5t123 233t197.5 157t258 56.5q88 0 159 -17t125 -52.5t84.5 -93.5t30.5 -138q0 -76 -34 -142t-102 -119t-166.5 -83t-225.5 -30q-93 0 -125 8q-6 -31 -6 -64q0 -75 32 -103t115 -28q66 0 148 29.5t149 75.5l70 -224q-234 -131 -435 -131 q-112 0 -195.5 23.5t-137.5 70.5t-80.5 121.5t-26.5 173.5zM313 1293l434 233l336 -243l-155 -191l-252 146l-299 -146zM473 655q25 -10 74 -10q66 0 117 32t51 85q0 36 -21 55t-59 19q-124 0 -162 -181z" />
<glyph unicode="&#xeb;" horiz-adv-x="1063" d="M49 362q0 144 42.5 276.5t123 233t197.5 157t258 56.5q88 0 159 -17t125 -52.5t84.5 -93.5t30.5 -138q0 -76 -34 -142t-102 -119t-166.5 -83t-225.5 -30q-93 0 -125 8q-6 -31 -6 -64q0 -75 32 -103t115 -28q66 0 148 29.5t149 75.5l70 -224q-234 -131 -435 -131 q-112 0 -195.5 23.5t-137.5 70.5t-80.5 121.5t-26.5 173.5zM315 1331q0 47 24 86.5t63.5 62.5t86.5 23q51 0 92.5 -23t66.5 -62t25 -87q0 -46 -24.5 -85t-65 -61t-86.5 -22q-72 0 -127 49t-55 119zM473 655q25 -10 74 -10q66 0 117 32t51 85q0 36 -21 55t-59 19 q-124 0 -162 -181zM772 1331q0 72 50 122t122 50q52 0 93.5 -23t66 -62t24.5 -87q0 -45 -24 -84.5t-64.5 -61.5t-87.5 -22q-49 0 -90.5 22.5t-65.5 61.5t-24 84z" />
<glyph unicode="&#xec;" horiz-adv-x="580" d="M20 0l222 1040l368 54l-233 -1094h-357zM180 1307l185 231l395 -248l-144 -180z" />
<glyph unicode="&#xed;" horiz-adv-x="580" d="M20 0l222 1040l368 54l-233 -1094h-357zM182 1290l500 248l90 -231l-516 -197z" />
<glyph unicode="&#xee;" horiz-adv-x="580" d="M20 0l222 1040l368 54l-233 -1094h-357zM104 1319l434 233l336 -243l-155 -191l-252 146l-299 -146z" />
<glyph unicode="&#xef;" horiz-adv-x="580" d="M20 0l222 1040l368 54l-233 -1094h-357zM64 1331q0 47 24 86.5t63.5 62.5t86.5 23q51 0 92.5 -23t66.5 -62t25 -87q0 -46 -24.5 -85t-65 -61t-86.5 -22q-72 0 -127 49t-55 119zM521 1331q0 72 50 122t122 50q52 0 93.5 -23t66 -62t24.5 -87q0 -45 -24 -84.5t-64.5 -61.5 t-87.5 -22q-49 0 -90.5 22.5t-65.5 61.5t-24 84z" />
<glyph unicode="&#xf0;" horiz-adv-x="1063" d="M-6 338q0 148 68.5 270t192 190t277.5 68q25 0 43 -6q-10 27 -50 70t-74 61l-111 -100l-170 74l123 110q-105 39 -262 60l274 260q129 -15 240 -62l84 88l186 -94l-98 -92q84 -63 143 -156.5t89 -204t30 -217.5q0 -134 -37 -257.5t-110.5 -219t-184.5 -149.5t-252 -54 q-198 0 -299.5 94.5t-101.5 266.5zM346 379q0 -54 26 -85.5t77 -31.5q92 0 134 103t44 233q-46 18 -107 18q-87 0 -130.5 -72t-43.5 -165z" />
<glyph unicode="&#xf1;" horiz-adv-x="1165" d="M20 0l142 666q37 185 37 264q0 35 -9 94l316 59q16 -67 18 -114q60 52 148 83t174 31q148 0 208 -56.5t60 -152.5q0 -39 -10 -94l-166 -780h-356l143 676q8 32 8 59q0 32 -14 46t-45 14q-44 0 -78.5 -23t-69.5 -76l-149 -696h-357zM359 1395q61 59 126.5 90t139.5 31 q46 0 75 -9.5t64 -27.5t62 -26.5t61 -8.5q41 0 88.5 18t73.5 41l47 -215q-59 -56 -125.5 -84t-151.5 -28q-40 0 -66 8.5t-60.5 28t-63.5 29.5t-68 10q-80 0 -155 -62z" />
<glyph unicode="&#xf2;" horiz-adv-x="1110" d="M33 354q0 115 33.5 239t109 237t201 183t303.5 70q85 0 155.5 -21t124 -66.5t82.5 -116.5t29 -170q0 -115 -33.5 -240.5t-110 -239t-203 -185t-300.5 -71.5q-124 0 -211.5 44t-133.5 131t-46 206zM350 1307l185 231l395 -248l-144 -180zM406 319q0 -48 19 -72t60 -24 q52 0 91 63t65 156t39.5 179t13.5 118q0 54 -19 75.5t-61 21.5q-66 0 -112.5 -103t-71 -232.5t-24.5 -181.5z" />
<glyph unicode="&#xf3;" horiz-adv-x="1110" d="M33 354q0 115 33.5 239t109 237t201 183t303.5 70q85 0 155.5 -21t124 -66.5t82.5 -116.5t29 -170q0 -115 -33.5 -240.5t-110 -239t-203 -185t-300.5 -71.5q-124 0 -211.5 44t-133.5 131t-46 206zM406 319q0 -48 19 -72t60 -24q52 0 91 63t65 156t39.5 179t13.5 118 q0 54 -19 75.5t-61 21.5q-66 0 -112.5 -103t-71 -232.5t-24.5 -181.5zM469 1290l500 248l90 -231l-516 -197z" />
<glyph unicode="&#xf4;" horiz-adv-x="1110" d="M33 354q0 115 33.5 239t109 237t201 183t303.5 70q85 0 155.5 -21t124 -66.5t82.5 -116.5t29 -170q0 -115 -33.5 -240.5t-110 -239t-203 -185t-300.5 -71.5q-124 0 -211.5 44t-133.5 131t-46 206zM328 1293l434 233l336 -243l-155 -191l-252 146l-299 -146zM406 319 q0 -48 19 -72t60 -24q52 0 91 63t65 156t39.5 179t13.5 118q0 54 -19 75.5t-61 21.5q-66 0 -112.5 -103t-71 -232.5t-24.5 -181.5z" />
<glyph unicode="&#xf5;" horiz-adv-x="1110" d="M33 354q0 115 33.5 239t109 237t201 183t303.5 70q85 0 155.5 -21t124 -66.5t82.5 -116.5t29 -170q0 -115 -33.5 -240.5t-110 -239t-203 -185t-300.5 -71.5q-124 0 -211.5 44t-133.5 131t-46 206zM342 1388q61 59 126.5 90t139.5 31q46 0 75 -9.5t64 -27.5t62 -26.5 t61 -8.5q41 0 88.5 18t73.5 41l47 -215q-59 -56 -125.5 -84t-151.5 -28q-40 0 -66 8.5t-60.5 28t-63.5 29.5t-68 10q-80 0 -155 -62zM406 319q0 -48 19 -72t60 -24q52 0 91 63t65 156t39.5 179t13.5 118q0 54 -19 75.5t-61 21.5q-66 0 -112.5 -103t-71 -232.5t-24.5 -181.5z " />
<glyph unicode="&#xf6;" horiz-adv-x="1110" d="M33 354q0 115 33.5 239t109 237t201 183t303.5 70q85 0 155.5 -21t124 -66.5t82.5 -116.5t29 -170q0 -115 -33.5 -240.5t-110 -239t-203 -185t-300.5 -71.5q-124 0 -211.5 44t-133.5 131t-46 206zM311 1333q0 47 24 86.5t63.5 62.5t86.5 23q51 0 92.5 -23t66.5 -62 t25 -87q0 -46 -24.5 -85t-65 -61t-86.5 -22q-72 0 -127 49t-55 119zM406 319q0 -48 19 -72t60 -24q52 0 91 63t65 156t39.5 179t13.5 118q0 54 -19 75.5t-61 21.5q-66 0 -112.5 -103t-71 -232.5t-24.5 -181.5zM768 1333q0 72 50 122t122 50q52 0 93.5 -23t66 -62t24.5 -87 q0 -45 -24 -84.5t-64.5 -61.5t-87.5 -22q-49 0 -90.5 22.5t-65.5 61.5t-24 84z" />
<glyph unicode="&#xf7;" horiz-adv-x="1143" d="M41 418l55 256h1034l-55 -256h-1034zM287 150q0 55 28.5 103t76 75.5t104.5 27.5t105 -28t77 -76.5t29 -101.5q0 -88 -62.5 -149.5t-148.5 -61.5t-147.5 62.5t-61.5 148.5zM459 958q0 56 28 103t76 75.5t105 28.5q87 0 149 -61t62 -146q0 -87 -62.5 -148.5t-148.5 -61.5 t-147.5 62.5t-61.5 147.5z" />
<glyph unicode="&#xf8;" horiz-adv-x="1040" d="M-53 -55l131 159q-76 96 -76 250q0 193 77.5 360.5t225 268t346.5 100.5q118 0 203 -39l133 160l123 -84l-137 -168q69 -88 69 -233q0 -146 -43 -278t-127 -238.5t-205.5 -168t-271.5 -61.5q-110 0 -198 37l-125 -151zM377 319q0 -48 19 -72t61 -24q52 0 91 63t65 156 t39.5 179t13.5 118q0 52 -19 74.5t-61 22.5q-67 0 -113.5 -103t-71 -232.5t-24.5 -181.5z" />
<glyph unicode="&#xf9;" horiz-adv-x="1157" d="M61 180q0 70 33 234l131 618l367 47l-150 -702q-8 -38 -8 -61q0 -19 6 -32.5t19.5 -19.5t34.5 -6q44 0 79 23.5t68 74.5l145 676l367 47l-147 -692q-19 -89 -19 -164t19 -151l-334 -119q-18 33 -35 131q-133 -111 -315 -111q-115 0 -188 47.5t-73 159.5zM376 1307 l185 231l395 -248l-144 -180z" />
<glyph unicode="&#xfa;" horiz-adv-x="1157" d="M61 180q0 70 33 234l131 618l367 47l-150 -702q-8 -38 -8 -61q0 -19 6 -32.5t19.5 -19.5t34.5 -6q44 0 79 23.5t68 74.5l145 676l367 47l-147 -692q-19 -89 -19 -164t19 -151l-334 -119q-18 33 -35 131q-133 -111 -315 -111q-115 0 -188 47.5t-73 159.5zM536 1290 l500 248l90 -231l-516 -197z" />
<glyph unicode="&#xfb;" horiz-adv-x="1157" d="M61 180q0 70 33 234l131 618l367 47l-150 -702q-8 -38 -8 -61q0 -19 6 -32.5t19.5 -19.5t34.5 -6q44 0 79 23.5t68 74.5l145 676l367 47l-147 -692q-19 -89 -19 -164t19 -151l-334 -119q-18 33 -35 131q-133 -111 -315 -111q-115 0 -188 47.5t-73 159.5zM354 1313 l434 233l336 -243l-155 -191l-252 146l-299 -146z" />
<glyph unicode="&#xfc;" horiz-adv-x="1157" d="M61 180q0 70 33 234l131 618l367 47l-150 -702q-8 -38 -8 -61q0 -19 6 -32.5t19.5 -19.5t34.5 -6q44 0 79 23.5t68 74.5l145 676l367 47l-147 -692q-19 -89 -19 -164t19 -151l-334 -119q-18 33 -35 131q-133 -111 -315 -111q-115 0 -188 47.5t-73 159.5zM320 1331 q0 47 24 86.5t63.5 62.5t86.5 23q51 0 92.5 -23t66.5 -62t25 -87q0 -46 -24.5 -85t-65 -61t-86.5 -22q-72 0 -127 49t-55 119zM777 1331q0 72 50 122t122 50q52 0 93.5 -23t66 -62t24.5 -87q0 -45 -24 -84.5t-64.5 -61.5t-87.5 -22q-49 0 -90.5 22.5t-65.5 61.5t-24 84z" />
<glyph unicode="&#xfd;" horiz-adv-x="1106" d="M-86 -256q113 24 182 51.5t119 73t111 131.5h-99v20q0 38 -3 84t-7 91.5t-8 76.5l-96 775l360 26l41 -553q6 -82 6 -126q0 -51 -4 -91h2q74 206 141 328l234 426h369l-623 -1059q-103 -175 -164.5 -255.5t-174 -139.5t-308.5 -88zM444 1290l500 248l90 -231l-516 -197z " />
<glyph unicode="&#xfe;" horiz-adv-x="1141" d="M-72 -467l322 1526q53 253 53 340q0 28 -2 43l375 63v-22q0 -104 -29 -236l-22 -106q-20 -90 -39 -123q34 27 90 46t129 19q95 0 165 -38.5t109 -115t39 -190.5q0 -99 -23 -197.5t-65 -186t-106.5 -165.5t-141.5 -129q-131 -88 -303 -88q-40 0 -102 4l-72 -348zM442 276 q29 -24 84 -24q66 0 113 76.5t69.5 180.5t22.5 181q0 59 -21 83t-65 24q-55 0 -104 -52z" />
<glyph unicode="&#xff;" horiz-adv-x="1106" d="M-86 -256q113 24 182 51.5t119 73t111 131.5h-99v20q0 38 -3 84t-7 91.5t-8 76.5l-96 775l360 26l41 -553q6 -82 6 -126q0 -51 -4 -91h2q74 206 141 328l234 426h369l-623 -1059q-103 -175 -164.5 -255.5t-174 -139.5t-308.5 -88zM311 1331q0 47 24 86.5t63.5 62.5 t86.5 23q51 0 92.5 -23t66.5 -62t25 -87q0 -46 -24.5 -85t-65 -61t-86.5 -22q-72 0 -127 49t-55 119zM768 1331q0 72 50 122t122 50q52 0 93.5 -23t66 -62t24.5 -87q0 -45 -24 -84.5t-64.5 -61.5t-87.5 -22q-49 0 -90.5 22.5t-65.5 61.5t-24 84z" />
<glyph unicode="&#x152;" horiz-adv-x="1688" d="M86 473q0 182 58 352t169.5 307t267.5 216t343 79h925l-110 -301h-426l-51 -239h356l-62 -291h-356l-61 -291h489l-65 -305h-955q-168 0 -286 55t-177 160.5t-59 257.5zM498 481q0 -110 44 -151t134 -41q51 0 94 12l176 825q-38 13 -94 13q-93 0 -161.5 -67t-111 -174 t-62 -219t-19.5 -198z" />
<glyph unicode="&#x153;" horiz-adv-x="1647" d="M33 354q0 115 33.5 239t109 237t201 183t303.5 70q82 0 150 -21t118 -65q135 88 305 88q88 0 159.5 -17t125.5 -52.5t84.5 -93.5t30.5 -138q0 -101 -61.5 -188t-181 -140t-286.5 -53q-59 0 -123 15q-8 -42 -8 -64q0 -75 32.5 -103t115.5 -28q66 0 148 29.5t149 75.5 l69 -224q-234 -131 -434 -131q-216 0 -323 99q-142 -99 -326 -99q-124 0 -211.5 44t-133.5 131t-46 206zM406 319q0 -48 19 -72t60 -24q52 0 91 63t65 156t39.5 179t13.5 118q0 54 -19 75.5t-61 21.5q-66 0 -112.5 -103t-71 -232.5t-24.5 -181.5zM1057 655q25 -10 73 -10 q66 0 117 32t51 85q0 74 -79 74q-125 0 -162 -181z" />
<glyph unicode="&#x178;" horiz-adv-x="1149" d="M135 1427h426l62 -303q17 -93 30 -204q68 122 115 198l190 309h449l-631 -823l-129 -604h-375l127 596zM373 1667q0 47 24 86.5t63.5 62.5t86.5 23q51 0 92.5 -23t66.5 -62t25 -87q0 -46 -24.5 -85t-65 -61t-86.5 -22q-72 0 -127 49t-55 119zM830 1667q0 72 50 122 t122 50q52 0 93.5 -23t66 -62t24.5 -87q0 -45 -24 -84.5t-64.5 -61.5t-87.5 -22q-49 0 -90.5 22.5t-65.5 61.5t-24 84z" />
<glyph unicode="&#x2c6;" horiz-adv-x="729" d="M141 1319l434 233l336 -243l-155 -191l-252 146l-299 -146z" />
<glyph unicode="&#x2dc;" horiz-adv-x="688" d="M156 1405q61 59 126.5 90t139.5 31q46 0 75 -9.5t64 -27.5t62 -26.5t61 -8.5q41 0 88.5 18t73.5 41l47 -215q-59 -56 -125.5 -84t-151.5 -28q-40 0 -66 8.5t-60.5 28t-63.5 29.5t-68 10q-80 0 -155 -62z" />
<glyph unicode="&#x2000;" horiz-adv-x="947" />
<glyph unicode="&#x2001;" horiz-adv-x="1894" />
<glyph unicode="&#x2002;" horiz-adv-x="947" />
<glyph unicode="&#x2003;" horiz-adv-x="1894" />
<glyph unicode="&#x2004;" horiz-adv-x="631" />
<glyph unicode="&#x2005;" horiz-adv-x="473" />
<glyph unicode="&#x2006;" horiz-adv-x="315" />
<glyph unicode="&#x2007;" horiz-adv-x="315" />
<glyph unicode="&#x2008;" horiz-adv-x="236" />
<glyph unicode="&#x2009;" horiz-adv-x="378" />
<glyph unicode="&#x200a;" horiz-adv-x="105" />
<glyph unicode="&#x2010;" horiz-adv-x="752" d="M80 424l61 293h559l-61 -293h-559z" />
<glyph unicode="&#x2011;" horiz-adv-x="752" d="M80 424l61 293h559l-61 -293h-559z" />
<glyph unicode="&#x2012;" horiz-adv-x="752" d="M80 424l61 293h559l-61 -293h-559z" />
<glyph unicode="&#x2013;" horiz-adv-x="1112" d="M47 420l57 272h1000l-57 -272h-1000z" />
<glyph unicode="&#x2014;" horiz-adv-x="1575" d="M47 420l57 272h1463l-58 -272h-1462z" />
<glyph unicode="&#x2018;" horiz-adv-x="571" d="M190 1024q0 116 57.5 210t155.5 158.5t220 98.5l96 -137q-53 -10 -108.5 -41t-55.5 -80q0 -27 27 -53t41 -50t14 -88q0 -54 -26.5 -107t-81 -87.5t-132.5 -34.5q-97 0 -152 59t-55 152z" />
<glyph unicode="&#x2019;" horiz-adv-x="571" d="M143 946q54 10 109 41t55 80q0 27 -27.5 53.5t-41 50.5t-13.5 86q0 86 62.5 158t177.5 72q97 0 152 -58t55 -153q0 -172 -120.5 -292.5t-311.5 -174.5z" />
<glyph unicode="&#x201a;" horiz-adv-x="569" d="M-109 -178q54 10 109 41t55 80q0 26 -27.5 53.5t-41 50t-13.5 86.5q0 54 26.5 107t81 87.5t132.5 34.5q97 0 152 -57t55 -153q0 -172 -120.5 -292.5t-311.5 -174.5z" />
<glyph unicode="&#x201c;" horiz-adv-x="1085" d="M190 1024q0 116 57.5 210t155.5 158.5t220 98.5l96 -137q-53 -10 -108.5 -41t-55.5 -80q0 -27 27 -53t41 -50t14 -88q0 -54 -26.5 -107t-81 -87.5t-132.5 -34.5q-97 0 -152 59t-55 152zM707 1024q0 116 57.5 210t155.5 158.5t219 98.5l96 -137q-53 -10 -108.5 -41 t-55.5 -80q0 -27 27 -53t41 -50t14 -88q0 -54 -26.5 -107t-81 -87.5t-132.5 -34.5q-97 0 -151.5 58.5t-54.5 152.5z" />
<glyph unicode="&#x201d;" horiz-adv-x="1087" d="M145 946q54 10 109 41t55 80q0 27 -27.5 53.5t-41 50.5t-13.5 86q0 86 62.5 158t177.5 72q97 0 152 -58t55 -153q0 -172 -120.5 -292.5t-311.5 -174.5zM662 946q52 9 107.5 40.5t55.5 80.5q0 27 -27.5 53.5t-41 50.5t-13.5 86q0 86 62.5 158t177.5 72q97 0 152 -58 t55 -153q0 -172 -120.5 -292.5t-311.5 -174.5z" />
<glyph unicode="&#x201e;" horiz-adv-x="1071" d="M-106 -178q52 9 107.5 40.5t55.5 80.5q0 26 -27.5 53.5t-41 50t-13.5 86.5q0 54 26.5 107t81 87.5t132.5 34.5q97 0 152 -57t55 -153q0 -172 -120.5 -292.5t-311.5 -174.5zM395 -178q54 10 109 41t55 80q0 26 -27.5 53.5t-41 50t-13.5 86.5q0 54 26.5 107t81 87.5 t132.5 34.5q97 0 152 -57t55 -153q0 -172 -120.5 -292.5t-311.5 -174.5z" />
<glyph unicode="&#x2022;" horiz-adv-x="944" d="M160 725q0 98 49 182t132 132t181 48t181.5 -48t132.5 -132t49 -182t-48.5 -182t-132.5 -132.5t-182 -48.5t-181.5 48.5t-132 132.5t-48.5 182z" />
<glyph unicode="&#x2026;" horiz-adv-x="1731" d="M27 174q0 56 27.5 103t75.5 75.5t103 28.5q89 0 151 -61t62 -146q0 -87 -62 -149t-148 -62q-88 0 -148.5 61.5t-60.5 149.5zM567 174q0 57 28.5 104t75.5 75t103 28q57 0 105.5 -28.5t77 -76.5t28.5 -102q0 -87 -63 -149t-148 -62t-146 62t-61 149zM1106 174q0 56 28 103 t76 75.5t105 28.5t105.5 -28.5t77 -76.5t28.5 -102q0 -87 -63 -149t-148 -62q-88 0 -148.5 61.5t-60.5 149.5z" />
<glyph unicode="&#x202f;" horiz-adv-x="378" />
<glyph unicode="&#x2039;" horiz-adv-x="678" d="M68 526l421 506l228 -178l-291 -328l152 -325l-293 -166z" />
<glyph unicode="&#x203a;" horiz-adv-x="678" d="M-55 201l317 325l-178 328l291 162l262 -490l-469 -491z" />
<glyph unicode="&#x205f;" horiz-adv-x="473" />
<glyph unicode="&#x20ac;" horiz-adv-x="1341" d="M41 434l45 211h211q16 86 29 129h-213l45 211h250q74 168 179 272.5t235.5 149.5t295.5 45q111 0 215.5 -31.5t143.5 -79.5l-209 -264q-84 76 -197 76q-97 0 -162.5 -38t-107.5 -130h313l-45 -211h-336q-15 -70 -24 -129h333l-45 -211h-305q1 -69 59.5 -113.5 t133.5 -44.5q131 0 268 86l104 -249q-86 -63 -209 -100.5t-270 -37.5q-227 0 -358 118t-137 341h-242z" />
<glyph unicode="&#x2122;" horiz-adv-x="2097" d="M172 1188l51 239h738l-52 -239h-225l-127 -604h-287l127 604h-225zM817 584l213 843h387l58 -481l254 481h358l-131 -843h-303l92 440h-4l-240 -440h-241l-56 440h-4l-92 -440h-291z" />
<glyph unicode="&#x25fc;" horiz-adv-x="1095" d="M0 0v1095h1095v-1095h-1095z" />
</font>
</defs>
</svg>
