<?xml version="1.0" standalone="no"?>
<!DOCTYPE svg PUBLIC "-//W3C//DTD SVG 1.1//EN" "http://www.w3.org/Graphics/SVG/1.1/DTD/svg11.dtd" >
<svg>
<metadata>
Created by FontForge 20110222 at Thu Feb  6 05:39:15 2014
 By Orthosie Webhosting
Copyright (c) Erik Spiekermann 1991,93,98 Published by FontShop International for FontFont Release 23.
</metadata>
<defs>
<font id="SeatMetaBlackRomanRegular" horiz-adv-x="1147" >
  <font-face 
    font-family="SeatMetaBlackRomanRegular"
    font-weight="400"
    font-stretch="normal"
    units-per-em="2048"
    panose-1="2 11 10 4 2 1 4 2 2 4"
    ascent="1638"
    descent="-410"
    x-height="1057"
    cap-height="1427"
    bbox="-410 -485 2413 1948"
    underline-thickness="102"
    underline-position="-103"
    unicode-range="U+0020-F006"
  />
<missing-glyph horiz-adv-x="1024" 
d="M51 0v1536h922v-1536h-922zM179 128h666v1280h-666v-1280z" />
    <glyph glyph-name=".notdef" horiz-adv-x="1024" 
d="M51 0v1536h922v-1536h-922zM179 128h666v1280h-666v-1280z" />
    <glyph glyph-name=".null" horiz-adv-x="0" 
 />
    <glyph glyph-name="nonmarkingreturn" horiz-adv-x="460" 
 />
    <glyph glyph-name="space" unicode=" " horiz-adv-x="460" 
 />
    <glyph glyph-name="exclam" unicode="!" horiz-adv-x="659" 
d="M537 1468l-70 -1048h-266l-78 989zM532 162q0 -82 -60 -139.5t-144 -57.5q-53 0 -97.5 26.5t-70 72t-25.5 100.5q0 53 27 99.5t74 74t100 27.5t97.5 -27t71.5 -74.5t27 -101.5z" />
    <glyph glyph-name="quotedbl" unicode="&#x22;" horiz-adv-x="1008" 
d="M926 815h-332v635h332v-635zM416 815h-334v635h334v-635z" />
    <glyph glyph-name="numbersign" unicode="#" horiz-adv-x="1118" 
d="M1077 840h-180l-31 -228h154v-217h-180l-56 -395h-239l55 395h-166l-55 -395h-240l56 395h-154v217h180l31 228h-154v217h181l51 370h239l-49 -370h164l51 370h240l-49 -370h151v-217zM655 840h-166l-28 -228h166z" />
    <glyph glyph-name="dollar" unicode="$" horiz-adv-x="1253" 
d="M1192 498q0 -226 -139.5 -359.5t-382.5 -158.5v-152h-217v154q-116 10 -215.5 41.5t-196.5 80.5l129 287q85 -49 193 -82t208 -33q103 0 152 35t49 97q0 47 -33 72t-110 44l-168 43q-166 44 -257 141.5t-91 272.5q0 119 54.5 217.5t153 161.5t230.5 84v170h217v-166
q245 -22 408 -135l-177 -260q-47 31 -104.5 54t-112 34.5t-104.5 11.5q-69 0 -107.5 -28.5t-38.5 -73.5q0 -87 140 -121l145 -37q106 -27 183.5 -64.5t134.5 -117.5t57 -213z" />
    <glyph glyph-name="percent" unicode="%" horiz-adv-x="1698" 
d="M1657 340q0 -108 -44.5 -191t-128 -129.5t-194.5 -46.5q-108 0 -189 39.5t-125 119t-44 194.5q0 77 28 144t78 115.5t115 74.5t145 26t144.5 -21t113.5 -64.5t75 -108t26 -152.5zM1374 336q0 98 -17 136t-63 38q-34 0 -50.5 -16.5t-23 -53.5t-6.5 -114q0 -98 16.5 -135
t63.5 -37q46 0 63 38t17 144zM1444 1427l-869 -1427h-331l868 1427h332zM766 1108q0 -108 -44.5 -191t-128 -129.5t-194.5 -46.5q-108 0 -189 39.5t-125 119t-44 194.5q0 77 28 144t77.5 115.5t115.5 74.5t146 26t145.5 -21.5t113 -64.5t73.5 -107.5t26 -152.5zM483 1104
q0 98 -17 136t-63 38q-33 0 -50 -16.5t-23 -53.5t-6 -114q0 -63 6.5 -101.5t23 -54.5t49.5 -16q46 0 63 38t17 144z" />
    <glyph glyph-name="ampersand" unicode="&#x26;" horiz-adv-x="1479" 
d="M1479 0h-471l-72 74q-73 -47 -184.5 -74t-216.5 -27q-137 0 -245.5 44.5t-168.5 133t-60 214.5q0 73 27 140.5t83 122.5t136 91q-76 49 -116.5 128t-40.5 173q0 160 125 259t329 99q101 0 183 -25t140.5 -70t89 -104.5t30.5 -129.5q0 -75 -24.5 -133t-83.5 -109.5
t-161 -101.5l205 -205q25 38 48 89.5t40 106.5l283 -82q-15 -52 -42.5 -113.5t-60 -117t-61.5 -92.5zM684 1040q0 43 -22 70t-56 27q-44 0 -66 -29t-22 -68q0 -33 8 -50.5t31 -49.5l43 -51q33 20 58.5 62.5t25.5 88.5zM745 264l-256 260q-49 -52 -49 -123q0 -70 45.5 -120
t126.5 -50q74 0 133 33z" />
    <glyph glyph-name="quotesingle" unicode="'" horiz-adv-x="496" 
d="M414 815h-332v635h332v-635z" />
    <glyph glyph-name="parenleft" unicode="(" horiz-adv-x="670" 
d="M711 -154l-90 -211q-355 109 -457.5 382t-102.5 599q0 173 23.5 317.5t84 272.5t169.5 231.5t276 176.5l95 -217q-74 -57 -114 -95.5t-82.5 -117.5t-68.5 -208.5t-26 -309.5q0 -207 19.5 -349.5t55 -230t87 -140.5t131.5 -100z" />
    <glyph glyph-name="parenright" unicode=")" horiz-adv-x="668" 
d="M606 680q0 -209 -24 -363t-85.5 -282t-169.5 -226t-278 -174l-90 220q136 104 198.5 211.5t79.5 242t17 369.5q0 148 -14 261.5t-46.5 200t-88.5 152.5t-142 111l90 213q124 -51 213.5 -104t166.5 -148t125 -264t48 -420z" />
    <glyph glyph-name="asterisk" unicode="*" horiz-adv-x="1014" 
d="M973 1022l-254 -78l162 -227l-217 -156l-164 223l-160 -209l-209 158l170 211l-260 92l82 246l254 -96v268h266v-268l254 82z" />
    <glyph glyph-name="plus" unicode="+" horiz-adv-x="1452" 
d="M1370 537h-477v-488h-334v488h-477v323h477v479h334v-479h477v-323z" />
    <glyph glyph-name="comma" unicode="," horiz-adv-x="598" 
d="M516 84q0 -141 -86 -256q-36 -44 -96 -84t-129 -55l-144 131q68 14 107 44t39 62q0 22 -7.5 33.5t-27.5 25.5t-35 29q-57 59 -57 154q0 83 58 138.5t143 55.5q110 0 172.5 -73.5t62.5 -204.5z" />
    <glyph glyph-name="hyphen" unicode="-" horiz-adv-x="723" 
d="M641 424h-559v293h559v-293z" />
    <glyph glyph-name="period" unicode="." horiz-adv-x="584" 
d="M502 174q0 -87 -63 -149t-148 -62q-86 0 -147.5 62.5t-61.5 148.5q0 56 28 103t76 75.5t105 28.5t105.5 -28.5t77 -76.5t28.5 -102z" />
    <glyph glyph-name="slash" unicode="/" horiz-adv-x="936" 
d="M874 1575l-561 -1899h-252l562 1899h251z" />
    <glyph glyph-name="zero" unicode="0" 
d="M1079 694q0 -160 -36.5 -291t-107 -229t-163.5 -149.5t-203 -51.5q-149 0 -263 87t-176 248.5t-62 373.5q0 230 64 390t179 241.5t264 81.5q152 0 266 -81t176 -239.5t62 -380.5zM686 702q0 247 -37 359q-28 86 -71 86q-54 0 -82 -82q-37 -110 -37 -391q0 -93 6 -183
t16 -141q26 -127 88 -127q40 0 61 30t34 89q22 105 22 360z" />
    <glyph glyph-name="one" unicode="1" 
d="M965 0h-764v266h243v721q-92 -53 -131 -73t-94 -37l-92 188l426 319h225v-1118h187v-266z" />
    <glyph glyph-name="two" unicode="2" 
d="M1090 297l-78 -297h-903v258q105 93 157.5 142t122.5 121t119 132q60 75 90.5 120.5t49 98t18.5 115.5q0 59 -31.5 95t-95.5 36q-60 0 -116.5 -31t-131.5 -98l-232 209q128 107 256 159t287 52q110 0 196 -29.5t143.5 -85t86.5 -132t29 -167.5q0 -109 -42 -206.5
t-116 -182.5t-168.5 -161t-222.5 -160q65 12 170 12h412z" />
    <glyph glyph-name="three" unicode="3" 
d="M1067 408q0 -140 -94 -249.5t-262.5 -170t-382.5 -60.5q-110 0 -193 11l-61 272q68 -12 127 -12q448 0 448 247q0 117 -153 129q-30 2 -44 2q-39 0 -153 -12v301q72 -10 139 -10q80 2 124 17t62.5 46.5t18.5 88.5q0 45 -34.5 73.5t-92.5 28.5q-168 0 -274 -111l-158 254
q50 36 115.5 69.5t157 57t200.5 23.5q140 0 249 -46t169.5 -130.5t60.5 -194.5q0 -227 -186 -313q69 -19 118 -65t74 -110t25 -136z" />
    <glyph glyph-name="four" unicode="4" 
d="M1110 246h-74q-13 0 -25 1.5t-18 2.5q1 -11 2.5 -35t1.5 -47v-225l-358 -27v289q0 11 1.5 26t2.5 23q-8 -2 -25 -5t-38 -3h-541v227l360 918h355l-248 -650q-13 -35 -26.5 -69.5t-30.5 -67.5t-35 -51q7 1 16 1.5t31 0.5h153q12 0 17.5 -0.5t9.5 -1.5q0 4 -0.5 10.5
t-1.5 14.5q0 143 20 286l19 129l319 47v-290q0 -63 -2.5 -109.5t-7.5 -87.5h123v-307z" />
    <glyph glyph-name="five" unicode="5" 
d="M1042 479q0 -154 -84 -280.5t-239 -199.5t-359 -73q-79 0 -157 15l-80 276q101 -22 219 -22q148 0 235 67t87 182q0 80 -55 123t-163 43q-77 0 -141.5 -10t-130.5 -29l62 811h761l-53 -309h-377l-22 -194q39 6 98 6q114 0 205 -53.5t142.5 -147t51.5 -205.5z" />
    <glyph glyph-name="six" unicode="6" 
d="M1110 451q0 -134 -66.5 -244.5t-186 -174t-267.5 -63.5q-128 0 -231.5 37t-176 110.5t-110 176.5t-37.5 235q0 161 52.5 311t160.5 279t273 228t388 157l74 -260q-147 -49 -242 -99t-159 -118t-97 -166q55 41 189 41q202 0 319 -123t117 -327zM750 446q0 48 -15.5 86
t-46.5 60t-78 22q-73 0 -170 -41q-6 -41 -6 -135q0 -42 11.5 -86.5t46.5 -78t98 -33.5q71 0 115.5 55.5t44.5 150.5z" />
    <glyph glyph-name="seven" unicode="7" 
d="M1081 1382l-30 -290q-27 -44 -95.5 -161t-144 -274.5t-129.5 -335.5t-57 -350l-387 -92q17 205 64.5 390t111.5 337t123 258.5t122 212.5q-18 -6 -53 -6h-512l41 311h946z" />
    <glyph glyph-name="eight" unicode="8" 
d="M1130 393q0 -205 -152.5 -312.5t-434.5 -107.5q-200 0 -317.5 57.5t-163.5 146.5t-46 196q0 121 47.5 205.5t149.5 119.5q-166 85 -166 299q0 88 39 165t109 130.5t164.5 82t207.5 28.5q235 0 374.5 -99t139.5 -280q0 -111 -68 -187.5t-177 -101.5q294 -84 294 -342z
M676 1030q0 115 -129 115q-65 0 -100 -31t-35 -88q0 -39 13 -62.5t44 -41t92 -39.5q115 53 115 147zM729 354q0 56 -25.5 92.5t-85.5 57.5l-141 51q-30 -30 -44.5 -76.5t-14.5 -83.5q0 -162 168 -162q67 0 105 32t38 89z" />
    <glyph glyph-name="nine" unicode="9" 
d="M1096 860q0 -197 -48 -344.5t-141.5 -259.5t-229.5 -198t-339 -171l-184 217q141 45 245.5 114t165.5 138t78 117q-68 -33 -143 -33q-127 0 -229 52.5t-161 158.5t-59 264q0 144 67 256t191 175t285 63q127 0 221 -38.5t156 -109t93.5 -172t31.5 -229.5zM707 905
q0 110 -33.5 165.5t-100.5 55.5q-71 0 -108 -51.5t-37 -148.5q0 -86 49.5 -142.5t126.5 -56.5q57 0 90 25q13 49 13 153z" />
    <glyph glyph-name="colon" unicode=":" horiz-adv-x="625" 
d="M522 754q0 -87 -63 -149t-148 -62t-147 62t-62 149q0 57 28 103.5t75.5 75t105.5 28.5t106 -28.5t76.5 -76t28.5 -102.5zM522 174q0 -87 -63 -149t-148 -62t-147 62t-62 149q0 57 28 103.5t76 75t105 28.5t105.5 -28.5t77 -76.5t28.5 -102z" />
    <glyph glyph-name="semicolon" unicode=";" horiz-adv-x="659" 
d="M545 754q0 -87 -63 -149t-148 -62q-86 0 -147.5 62.5t-61.5 148.5q0 56 28 103t75.5 75.5t105.5 28.5t106 -28.5t76.5 -76t28.5 -102.5zM557 84q0 -141 -86 -256q-36 -44 -96 -84t-129 -55l-144 131q68 14 107 44t39 62q0 22 -7.5 33.5t-27.5 25.5t-35 29q-57 59 -57 154
q0 83 58 138.5t143 55.5q110 0 172.5 -73.5t62.5 -204.5z" />
    <glyph glyph-name="less" unicode="&#x3c;" horiz-adv-x="913" 
d="M831 160l-256 -185l-493 637l493 637l256 -188l-344 -449z" />
    <glyph glyph-name="equal" unicode="=" horiz-adv-x="1323" 
d="M1241 682h-1159v332h1159v-332zM1241 227h-1159v332h1159v-332z" />
    <glyph glyph-name="greater" unicode="&#x3e;" horiz-adv-x="913" 
d="M831 612l-493 -637l-256 185l344 452l-344 449l256 188z" />
    <glyph glyph-name="question" unicode="?" horiz-adv-x="1016" 
d="M913 1106q0 -111 -48.5 -192.5t-137.5 -133.5q-71 -42 -110.5 -89t-53.5 -99t-14 -127v-45h-299q-12 68 -12 125q0 119 47.5 202t146.5 154q67 49 94 81t27 75q0 106 -139 106q-64 0 -115 -28t-80 -62l-158 219q176 166 414 166q121 0 220.5 -40.5t158.5 -119.5t59 -192z
M614 162q0 -82 -60 -139.5t-144 -57.5q-53 0 -97.5 26.5t-70 72t-25.5 100.5q0 53 27 99.5t74 74t100 27.5t97.5 -27t71.5 -74.5t27 -101.5z" />
    <glyph glyph-name="at" unicode="@" horiz-adv-x="1825" 
d="M1763 563q0 -175 -65 -314.5t-177 -217.5t-243 -78q-127 0 -181.5 43t-68.5 117q-59 -59 -132.5 -94t-154.5 -35q-135 0 -211.5 83.5t-76.5 235.5q0 130 39.5 245t117.5 206.5t188.5 141.5t250.5 50q122 0 309 -98q-28 -88 -51 -193l-76 -352q-10 -46 -10 -77
q0 -40 16 -56t47 -16q51 0 96.5 49t73 141t27.5 219q0 128 -37.5 224.5t-112 166t-175.5 104t-226 34.5q-114 0 -219.5 -54t-188 -151.5t-129.5 -225.5t-47 -268q0 -282 153 -430.5t394 -148.5q148 0 309 51l47 -209q-195 -64 -356 -64q-241 0 -429.5 91.5t-295.5 272.5
t-107 437q0 187 64.5 355.5t182 294.5t278 197t344.5 71q174 0 326.5 -55t266.5 -156t177 -238.5t63 -298.5zM1079 741q-31 9 -49 9q-155 0 -233 -134t-78 -321q0 -107 65 -107q39 0 84.5 26.5t84 78t55.5 125.5z" />
    <glyph glyph-name="A" unicode="A" horiz-adv-x="1223" 
d="M1247 0h-397l-74 274h-338l-78 -274h-385l459 1427h381zM702 557l-61 260q-23 107 -27 201q-8 -109 -39 -227l-57 -234h184z" />
    <glyph glyph-name="B" unicode="B" horiz-adv-x="1243" 
d="M1182 440q0 -101 -28.5 -179t-89 -138t-151 -91.5t-211.5 -31.5h-579v1427h633q108 0 193 -34.5t133 -111.5t48 -204q0 -67 -21 -130.5t-67.5 -111.5t-121.5 -73q110 -28 186 -114.5t76 -207.5zM754 1014q0 112 -123 112h-142v-247h146q119 0 119 135zM760 453
q0 62 -28.5 98.5t-106.5 36.5h-136v-283h140q131 0 131 148z" />
    <glyph glyph-name="C" unicode="C" horiz-adv-x="1137" 
d="M1137 121q-71 -66 -184.5 -106t-260.5 -40q-287 0 -467 197q-83 93 -123.5 225t-40.5 289q0 136 23 241t76 201q59 109 146.5 182t195.5 107.5t235 34.5q112 0 214 -28.5t151 -75.5l-156 -271q-98 76 -213 76q-108 0 -160 -55t-72 -122.5t-20 -191.5q0 -129 5.5 -205
t20.5 -127.5t44 -84.5q76 -91 182 -91q71 0 129 21t117 74z" />
    <glyph glyph-name="D" unicode="D" horiz-adv-x="1262" 
d="M1200 739q0 -87 -7.5 -164.5t-26 -147.5t-50 -134.5t-78.5 -120.5q-71 -85 -165 -128.5t-232 -43.5h-518v1427h504q95 0 179.5 -17.5t160.5 -70.5q79 -55 131 -139t77 -200t25 -261zM797 752q0 159 -24.5 240.5t-66 107.5t-104.5 26h-113v-821h123q59 0 98.5 32t63 129.5
t23.5 285.5z" />
    <glyph glyph-name="E" unicode="E" horiz-adv-x="1020" 
d="M979 0h-856v1427h829l-26 -301h-437v-239h357v-291h-357v-291h490v-305z" />
    <glyph glyph-name="F" unicode="F" horiz-adv-x="889" 
d="M909 1427l-26 -301h-396v-239h322v-291h-320v-596h-366v1427h786z" />
    <glyph glyph-name="G" unicode="G" horiz-adv-x="1346" 
d="M1243 1270l-203 -228q-55 55 -130 83t-160 28q-95 0 -155.5 -47t-88 -147t-27.5 -259q0 -424 254 -424q82 0 133 21v225h-174l-41 291h582v-696q-75 -47 -160.5 -80t-175.5 -47.5t-178 -14.5q-178 0 -305 59t-217 185q-72 102 -104 212t-32 255q0 156 40 289t121 237
t198 164q140 74 325 74q142 0 269.5 -45.5t228.5 -134.5z" />
    <glyph glyph-name="H" unicode="H" horiz-adv-x="1272" 
d="M1149 0h-367v600h-293v-600h-366v1427h366v-524h293v524h367v-1427z" />
    <glyph glyph-name="I" unicode="I" horiz-adv-x="621" 
d="M498 0h-375v1427h375v-1427z" />
    <glyph glyph-name="J" unicode="J" horiz-adv-x="625" 
d="M502 96q0 -91 -32 -167t-87.5 -138t-127 -107t-149.5 -73l-167 180q88 61 127 116t50 127t11 218v1175h375v-1331z" />
    <glyph glyph-name="K" unicode="K" horiz-adv-x="1294" 
d="M1335 0h-483l-358 768l315 659h455l-375 -653zM489 0h-366v1427h366v-1427z" />
    <glyph glyph-name="L" unicode="L" horiz-adv-x="979" 
d="M979 303l-70 -303h-786v1427h371v-1124h485z" />
    <glyph glyph-name="M" unicode="M" horiz-adv-x="1747" 
d="M1645 0h-357l-35 575q-4 55 -7 127.5t-3 159.5h-2q-24 -182 -49 -268l-174 -594h-311l-152 578q-36 140 -47 286h-2q0 -160 -6 -295l-29 -569h-369l140 1427h448l139 -565q31 -117 48 -270h2q17 152 55 291l145 544h434z" />
    <glyph glyph-name="N" unicode="N" horiz-adv-x="1313" 
d="M1190 0h-377l-252 496q-63 125 -110 268q7 -51 13.5 -147t6.5 -216v-401h-348v1427h352l260 -489q61 -113 119 -272q-12 101 -12 319v442h348v-1427z" />
    <glyph glyph-name="O" unicode="O" horiz-adv-x="1405" 
d="M1343 768q0 -354 -143.5 -573.5t-494.5 -219.5q-306 0 -475 189t-169 514q0 247 84 422t232 263.5t340 88.5q174 0 296.5 -60t195 -159t103.5 -218t31 -247zM934 723q0 175 -23.5 271t-71.5 133.5t-132 37.5q-121 0 -178.5 -117t-57.5 -329q0 -175 27.5 -275.5t79.5 -140
t133 -39.5t129 39t71 138t23 282z" />
    <glyph glyph-name="P" unicode="P" horiz-adv-x="1184" 
d="M1163 983q0 -123 -46 -229t-170.5 -176t-342.5 -70h-115v-508h-366v1427h465q186 0 313 -43.5t194.5 -141.5t67.5 -259zM764 985q0 83 -36 112t-112 29h-127v-327h107q92 0 130 37.5t38 148.5z" />
    <glyph glyph-name="Q" unicode="Q" horiz-adv-x="1405" 
d="M1460 -35l-90 -235q-27 -4 -94 -4q-104 0 -157.5 28.5t-172.5 111.5t-211 109q-342 0 -508 189t-166 541q0 234 84.5 403.5t232.5 256.5t339 87q201 0 342 -83t212.5 -237.5t71.5 -363.5q0 -194 -35.5 -331t-94 -219.5t-134.5 -133.5q40 -7 100.5 -44t105 -56t114.5 -19
h61zM934 723q0 175 -23.5 271t-71.5 133.5t-132 37.5q-121 0 -178.5 -117t-57.5 -329q0 -175 27.5 -275.5t79.5 -140t133 -39.5t129 39t71 138t23 282z" />
    <glyph glyph-name="R" unicode="R" horiz-adv-x="1241" 
d="M1231 0h-424l-150 399q-27 72 -50 108t-49 47t-69 11v-565h-366v1427h491q156 0 263.5 -30t171 -84t92 -126t28.5 -167q0 -177 -81.5 -277t-215.5 -122q36 -10 77.5 -54.5t66.5 -99.5q84 -172 215 -467zM762 991q0 75 -40.5 105t-129.5 30h-103v-290h105q90 0 129 39.5
t39 115.5z" />
    <glyph glyph-name="S" unicode="S" horiz-adv-x="1264" 
d="M1202 498q0 -166 -77.5 -284.5t-219 -178.5t-327.5 -60q-149 0 -277.5 33.5t-249.5 95.5l129 287q201 -115 402 -115q103 0 151.5 35t48.5 97q0 47 -33 72t-110 44l-168 43q-166 44 -257 141.5t-91 272.5q0 103 40.5 191t116 150.5t177.5 96t219 33.5q309 0 510 -139
l-176 -260q-71 47 -159 73.5t-163 26.5q-69 0 -107 -29t-38 -73q0 -87 139 -121l145 -37q106 -27 183.5 -64.5t134.5 -117.5t57 -213z" />
    <glyph glyph-name="T" unicode="T" horiz-adv-x="1057" 
d="M1098 1427l-43 -303h-332v-1124h-371v1124h-332v303h1078z" />
    <glyph glyph-name="U" unicode="U" horiz-adv-x="1298" 
d="M1186 440q0 -100 -7 -147.5t-28 -87.5q-50 -99 -177.5 -164.5t-324.5 -65.5q-341 0 -467 179q-26 38 -37 59t-17.5 48t-10.5 77t-4 119v970h368v-931q0 -106 39 -163t131 -57q65 0 101.5 24t51.5 70.5t15 118.5v938h367v-987z" />
    <glyph glyph-name="V" unicode="V" horiz-adv-x="1237" 
d="M1278 1427l-504 -1427h-330l-485 1427h403l181 -587q31 -103 41.5 -142.5t25.5 -126.5h2q29 146 76 279l203 577h387z" />
    <glyph glyph-name="W" unicode="W" horiz-adv-x="1778" 
d="M1788 1427l-371 -1427h-391l-74 414q-61 350 -69 469h-2q-3 -48 -25.5 -201.5t-44.5 -267.5l-76 -414h-399l-346 1427h387l80 -385q75 -362 82 -534h2q16 224 71 524l74 395h408l92 -477q49 -264 57 -440h2q5 88 32 274t48 289l72 354h391z" />
    <glyph glyph-name="X" unicode="X" horiz-adv-x="1196" 
d="M1237 0h-444l-183 401l-186 -401h-465l444 741l-399 686h453l151 -346l150 346h440l-385 -663z" />
    <glyph glyph-name="Y" unicode="Y" horiz-adv-x="1149" 
d="M1210 1427l-456 -823v-604h-375v596l-440 831h438l125 -303q39 -98 71 -198q21 51 38.5 97t37.5 95l125 309h436z" />
    <glyph glyph-name="Z" unicode="Z" horiz-adv-x="1106" 
d="M1055 305l-29 -305h-975v250l473 766q69 109 86 125q-35 -15 -145 -15h-371l27 301h926v-256l-492 -802q-25 -43 -66 -76q50 12 156 12h410z" />
    <glyph glyph-name="bracketleft" unicode="[" horiz-adv-x="635" 
d="M614 -319h-491v1818h491v-225h-180v-1368h180v-225z" />
    <glyph glyph-name="backslash" unicode="\" horiz-adv-x="907" 
d="M907 -29l-295 -102l-612 1610l297 102z" />
    <glyph glyph-name="bracketright" unicode="]" horiz-adv-x="637" 
d="M514 -319h-494v225h181v1368h-181v225h494v-1818z" />
    <glyph glyph-name="asciicircum" unicode="^" horiz-adv-x="1282" 
d="M1159 797h-385l-133 333l-137 -333h-381l309 653h418z" />
    <glyph glyph-name="underscore" unicode="_" horiz-adv-x="1024" 
d="M1024 -256h-1024v102h1024v-102z" />
    <glyph glyph-name="grave" unicode="`" horiz-adv-x="666" 
d="M625 1290l-105 -180l-479 197l135 231z" />
    <glyph glyph-name="a" unicode="a" horiz-adv-x="1057" 
d="M1014 156l-205 -199q-36 11 -77 45t-54 59q-44 -37 -110 -62.5t-154 -25.5q-186 0 -274.5 95.5t-88.5 248.5q0 101 56 179t162.5 122t250.5 44q49 0 60 -3v66q0 52 -16 75t-70 23q-153 0 -301 -110l-130 221q108 66 230 107.5t246 41.5q102 0 180 -22t130 -65t71 -105
q16 -54 16 -164l-4 -365q0 -78 16 -126t66 -80zM580 254v184q-105 0 -144 -31.5t-39 -84.5q0 -47 26 -75t73 -28q21 0 48 11.5t36 23.5z" />
    <glyph glyph-name="b" unicode="b" horiz-adv-x="1135" 
d="M1073 555q0 -110 -22 -202t-67.5 -167.5t-115.5 -130.5q-56 -44 -111.5 -63t-123.5 -19q-67 0 -120 25.5t-89 67.5q-4 -41 -21 -66h-305q25 54 25 203v948q0 103 -5.5 168t-21.5 125l361 61q10 -51 16 -103t6 -99v-162q0 -96 -8 -117q68 59 186 59q191 0 303.5 -134.5
t112.5 -393.5zM692 537q0 97 -13.5 156.5t-39.5 81.5t-68 22q-36 0 -54 -13.5t-38 -38.5v-442q42 -35 88 -35q68 0 96.5 61t28.5 208z" />
    <glyph glyph-name="c" unicode="c" horiz-adv-x="940" 
d="M920 123q-80 -80 -176 -115t-203 -35q-109 0 -198 34.5t-153 105t-96.5 173.5t-32.5 232q0 130 34.5 236t100 179.5t159.5 111.5t212 38q66 0 120 -13t103.5 -40.5t102.5 -71.5l-164 -215q-30 33 -72 55.5t-77 22.5q-68 0 -98.5 -56t-30.5 -224q0 -167 25 -235t99 -68
q113 0 195 94z" />
    <glyph glyph-name="d" unicode="d" horiz-adv-x="1124" 
d="M1040 0h-309q-12 31 -16 63q-77 -90 -230 -90q-135 0 -229.5 63.5t-144.5 184t-50 287.5q0 118 28.5 223t84.5 183.5t142 123.5t200 45q40 0 79.5 -11t61.5 -25q-12 60 -12 167v285l356 -47v-1032q0 -197 7.5 -276.5t31.5 -143.5zM645 276v492q-7 17 -28.5 29t-47.5 12
q-47 0 -72.5 -26.5t-36.5 -92t-11 -188.5q0 -130 24 -195t94 -65q55 0 78 34z" />
    <glyph glyph-name="e" unicode="e" horiz-adv-x="1071" 
d="M1020 416h-590q0 -71 36.5 -132t133.5 -61q141 0 279 107l137 -205q-105 -80 -208 -116t-222 -36q-125 0 -223 38t-165.5 109.5t-102 173t-34.5 228.5q0 172 58 299t166 194.5t258 67.5q247 0 362 -148.5t115 -430.5v-88zM668 647q0 96 -26.5 142.5t-86.5 46.5
q-125 0 -125 -189h238z" />
    <glyph glyph-name="f" unicode="f" horiz-adv-x="686" 
d="M748 1470l-84 -223q-42 25 -103 25q-34 0 -58 -21t-24 -55v-139h223l-47 -234h-176v-823h-356v823h-90v234h90q-6 37 -6 127q0 139 59.5 215.5t140.5 101.5t168 25t146.5 -12t116.5 -44z" />
    <glyph glyph-name="g" unicode="g" horiz-adv-x="1124" 
d="M1020 1057q-11 -60 -15 -134.5t-4 -197.5v-670q0 -95 -6.5 -158t-31 -125.5t-74.5 -103.5q-124 -104 -369 -104q-88 0 -206.5 24t-209.5 72l68 238q51 -25 133.5 -48.5t138.5 -23.5q96 0 139.5 18t56.5 57.5t13 121.5v24q-23 -24 -70 -40.5t-100 -16.5
q-223 0 -322.5 148.5t-99.5 367.5q0 145 45 276.5t146 215t252 83.5q66 0 115 -30t81 -76q0 45 21 82h299zM653 317v441q-28 37 -90 37q-60 0 -90.5 -58.5t-30.5 -193.5q0 -112 8.5 -170.5t33.5 -83.5t75 -25q56 0 94 53z" />
    <glyph glyph-name="h" unicode="h" horiz-adv-x="1163" 
d="M1040 0h-356v694q0 50 -4.5 71t-21 30.5t-54.5 9.5q-29 0 -65 -20.5t-60 -45.5v-739h-356v1182q0 172 -27 262l361 61q22 -100 22 -248v-167q0 -37 -0.5 -52.5t-1.5 -33.5q85 79 246 79q91 0 161 -25.5t113 -94t43 -189.5v-774z" />
    <glyph glyph-name="i" unicode="i" horiz-adv-x="602" 
d="M506 1335q0 -83 -61 -141.5t-146 -58.5q-54 0 -101 27t-74.5 72.5t-27.5 100.5q0 83 61 142t148 59q54 0 101 -27t73.5 -74t26.5 -100zM479 0h-356v1040l356 33v-1073z" />
    <glyph glyph-name="j" unicode="j" horiz-adv-x="602" 
d="M496 1335q0 -55 -28 -100.5t-76 -72.5t-103 -27q-54 0 -101 27t-74.5 72.5t-27.5 100.5q0 83 61 142t148 59q54 0 101 -27t73.5 -74t26.5 -100zM479 35q0 -152 -29 -244.5t-100.5 -154.5t-202.5 -117l-141 184q63 51 90 118t27 189v1030l356 33v-1038z" />
    <glyph glyph-name="k" unicode="k" horiz-adv-x="1133" 
d="M1153 0h-399l-273 598l187 459h417l-288 -430zM479 0h-356v1130q0 232 -21 314l355 61q22 -132 22 -372v-1133z" />
    <glyph glyph-name="l" unicode="l" horiz-adv-x="623" 
d="M659 6q-35 -14 -97.5 -23.5t-131.5 -9.5q-108 0 -171 26.5t-92.5 75.5t-36.5 110.5t-7 154.5v721v95q0 220 -12 290l352 59q16 -101 16 -264v-784q0 -97 5 -146.5t23 -69.5t58 -20q19 0 37 6z" />
    <glyph glyph-name="m" unicode="m" horiz-adv-x="1645" 
d="M1522 0h-342v653q0 69 -6 101t-21.5 40.5t-48.5 8.5q-16 0 -53 -13t-62 -28v-762h-334v655q0 79 -4 107t-18 37.5t-49 9.5q-27 0 -60 -11.5t-55 -29.5v-768h-346v672q0 216 -33 354l328 55q18 -67 20 -102q56 50 123 77t133 27q144 0 238 -114q128 114 303 114
q131 0 209 -66.5t78 -246.5v-770z" />
    <glyph glyph-name="n" unicode="n" horiz-adv-x="1163" 
d="M1040 0h-356v676q0 78 -20 96.5t-68 18.5q-46 0 -117 -62v-729h-356v672q0 216 -33 354l328 55q17 -52 20 -98q61 45 135 72.5t170 27.5q170 0 233.5 -80t63.5 -210v-793z" />
    <glyph glyph-name="o" unicode="o" horiz-adv-x="1096" 
d="M1044 555q0 -291 -146 -436.5t-357 -145.5q-151 0 -261.5 64.5t-169.5 190t-59 296.5q0 163 63 290.5t179 198t268 70.5q137 0 245.5 -54.5t173 -174t64.5 -299.5zM659 565q0 156 -24.5 213.5t-87.5 57.5q-60 0 -85.5 -64.5t-25.5 -253.5q0 -116 7.5 -175.5t32 -89.5
t73.5 -30q41 0 65.5 33t34.5 107.5t10 201.5z" />
    <glyph glyph-name="p" unicode="p" horiz-adv-x="1139" 
d="M1077 582q0 -153 -30 -267.5t-87 -190.5t-139.5 -113.5t-191.5 -37.5q-80 0 -166 35q16 -45 16 -162v-217l-356 -96v1139q0 216 -33 354l328 55q16 -45 22 -94q20 37 84 66.5t138 29.5q132 0 216.5 -47.5t126.5 -122t57 -159t15 -172.5zM696 551q0 139 -19.5 198.5
t-86.5 59.5q-75 0 -111 -53v-473q3 -13 23 -21t45 -8q38 0 63.5 9t44 36.5t30 89.5t11.5 162z" />
    <glyph glyph-name="q" unicode="q" horiz-adv-x="1130" 
d="M1026 1057q-10 -39 -14 -112.5t-4 -213.5v-1118l-357 -94v393q0 67 8 104q-24 -19 -71 -31t-113 -12q-138 0 -230 65t-138 189t-46 299q0 130 37.5 235.5t100 177t141 108t160.5 36.5q69 0 121.5 -28t76.5 -74q6 37 19 76h309zM651 309v439q-20 40 -78 40q-65 0 -98 -46
t-33 -205q0 -100 9 -159t35.5 -89.5t76.5 -30.5q32 0 56 17t32 34z" />
    <glyph glyph-name="r" unicode="r" horiz-adv-x="770" 
d="M791 1057l-82 -287q-51 29 -105 29q-81 0 -125 -76v-723h-356v643q0 252 -33 383l328 55q22 -81 22 -125q46 60 94 95.5t123 35.5q59 0 134 -30z" />
    <glyph glyph-name="s" unicode="s" horiz-adv-x="1042" 
d="M991 350q0 -111 -61 -198t-172.5 -133t-257.5 -46q-203 0 -459 133l125 259q78 -47 177.5 -91.5t168.5 -44.5q46 0 78.5 25.5t32.5 54.5q0 42 -29 61t-111 36l-137 28q-248 51 -248 289q0 163 118.5 261.5t315.5 98.5q76 0 137 -10t110 -25.5t89 -34t82 -38.5l-110 -221
q-147 77 -260 77q-41 0 -67 -16.5t-26 -42.5q0 -30 24 -49.5t87 -34.5l131 -29q138 -30 200 -106t62 -203z" />
    <glyph glyph-name="t" unicode="t" horiz-adv-x="764" 
d="M743 33q-130 -62 -268 -62q-162 0 -247 56t-85 200v596h-86v234h86q0 179 13 262l354 53q-10 -93 -10 -240v-75h194l-47 -234h-147v-426q0 -110 21.5 -145t88.5 -35q54 0 90 21z" />
    <glyph glyph-name="u" unicode="u" horiz-adv-x="1153" 
d="M1083 84l-309 -111q-19 23 -45 97q-106 -97 -264 -97q-96 0 -163.5 21t-109 62.5t-59.5 101.5q-20 66 -20 256v614l356 57v-766q0 -46 23 -62.5t71 -16.5q27 0 57 14t54 39v735l356 57v-761q0 -143 53 -240z" />
    <glyph glyph-name="v" unicode="v" horiz-adv-x="967" 
d="M1008 1057l-383 -1057h-275l-391 1036l360 35l95 -315q37 -127 75 -305h5q19 158 69 327l80 279h365z" />
    <glyph glyph-name="w" unicode="w" horiz-adv-x="1473" 
d="M1483 1057l-305 -1057h-318l-86 395q-35 174 -41 273q-15 -144 -49 -283l-90 -385h-313l-291 1032l348 39l53 -328q19 -108 32 -190.5t21 -163.5h2q11 130 66 377l66 291h317l84 -379q36 -168 47 -283h2q14 169 45 363l49 299h361z" />
    <glyph glyph-name="x" unicode="x" horiz-adv-x="1069" 
d="M1110 0h-453l-75 164q-39 75 -47 119h-5q-13 -75 -71 -172l-64 -111h-436l365 551l-304 469l386 74l79 -140q40 -67 64 -161h2q2 28 16 79t37 95l47 90h418l-317 -496z" />
    <glyph glyph-name="y" unicode="y" horiz-adv-x="1106" 
d="M1126 1057l-401 -1059q-48 -129 -92 -212.5t-100.5 -139.5t-140.5 -88.5t-208 -42.5l-125 229q94 23 142 40.5t87 44.5t67.5 66t60.5 105h-99q-22 117 -75 272l-262 775l364 26l158 -553q37 -132 49 -217h2q24 189 72 328l141 426h360z" />
    <glyph glyph-name="z" unicode="z" horiz-adv-x="958" 
d="M907 260l-33 -260h-823v240l412 563h-397v254h823v-254l-404 -543h422z" />
    <glyph glyph-name="braceleft" unicode="{" horiz-adv-x="637" 
d="M616 -319h-161q-297 0 -297 327v320q0 81 -28.5 104t-109.5 23v274q81 0 109.5 25t28.5 98v322q0 120 34.5 192t99 102.5t163.5 30.5h161v-309h-47q-98 0 -98 -109v-309q0 -180 -149 -180v-4q149 0 149 -174v-316q0 -38 22.5 -73t75.5 -35h47v-309z" />
    <glyph glyph-name="bar" unicode="|" horiz-adv-x="586" 
d="M463 -426h-340v1974h340v-1974z" />
    <glyph glyph-name="braceright" unicode="}" horiz-adv-x="637" 
d="M616 455q-80 0 -108.5 -23t-28.5 -104v-320q0 -327 -297 -327h-162v309h48q55 0 76.5 35t21.5 73v316q0 174 149 174v4q-149 0 -149 180v309q0 109 -98 109h-48v309h162q74 0 129 -17.5t92 -54t56.5 -99.5t19.5 -154v-322q0 -73 28.5 -98t108.5 -25v-274z" />
    <glyph glyph-name="asciitilde" unicode="~" horiz-adv-x="1204" 
d="M1081 508q-85 -115 -262 -115q-68 0 -119 14.5t-118 45t-104 45t-89 14.5q-56 0 -98.5 -18t-89.5 -58l-78 316q102 98 258 98q63 0 112 -15t117 -45.5t107.5 -43.5t95.5 -13q121 0 199 94z" />
    <glyph glyph-name="uni00A0" unicode="&#xa0;" horiz-adv-x="460" 
 />
    <glyph glyph-name="exclamdown" unicode="&#xa1;" horiz-adv-x="659" 
d="M524 879q0 -53 -27 -100t-73 -74t-100 -27q-80 0 -138.5 60t-58.5 143q0 54 27 98t75 71t103 27q51 0 96 -26.5t70.5 -71t25.5 -100.5zM537 -367l-414 -59l70 1049h266z" />
    <glyph glyph-name="cent" unicode="&#xa2;" horiz-adv-x="940" 
d="M920 123q-105 -105 -248 -135v-256h-254v254q-110 23 -191 90.5t-123.5 179.5t-42.5 262q0 147 42 260t122 186t193 101v248h254v-240q60 -12 111.5 -39t109.5 -76l-164 -215q-30 33 -72 55.5t-77 22.5q-68 0 -98.5 -56t-30.5 -224q0 -167 25 -235t99 -68q113 0 195 94z
" />
    <glyph glyph-name="sterling" unicode="&#xa3;" horiz-adv-x="1133" 
d="M1153 1358l-195 -256q-76 55 -172 55t-140 -45t-44 -113v-127h293v-258h-293v-344h496v-270h-1037v270h142v344h-142v258h142v134q0 83 28.5 162t94.5 148t174 109.5t258 40.5q122 0 217.5 -24.5t177.5 -83.5z" />
    <glyph glyph-name="yen" unicode="&#xa5;" horiz-adv-x="1231" 
d="M1251 1427l-309 -557h164v-272h-311v-117h311v-272h-311v-209h-375v209h-314v272h314l-2 117h-312v272h168l-294 557h438l125 -303q39 -98 71 -198q21 51 38.5 97t37.5 95l125 309h436z" />
    <glyph glyph-name="brokenbar" unicode="&#xa6;" horiz-adv-x="586" 
d="M463 659h-340v889h340v-889zM463 -426h-340v889h340v-889z" />
    <glyph glyph-name="section" unicode="&#xa7;" horiz-adv-x="1257" 
d="M1196 545q0 -77 -40 -146t-107 -116q88 -96 88 -226q0 -132 -81.5 -222t-208 -133.5t-255.5 -43.5q-180 0 -313.5 68.5t-217.5 236.5l342 162q41 -154 197 -154q123 0 123 64q0 30 -27.5 50.5t-71 38t-108.5 42.5l-164 67q-119 50 -182.5 142.5t-63.5 191.5
q0 181 150 293q-100 87 -100 223q0 120 70.5 203.5t181 125.5t229.5 42q163 0 301.5 -60.5t212.5 -205.5l-334 -184q-55 137 -168 137q-37 0 -64.5 -15.5t-27.5 -48.5q0 -28 23 -46.5t73 -41.5l205 -84q157 -64 247.5 -146.5t90.5 -213.5zM831 489q0 40 -30.5 63.5
t-79.5 43.5l-215 96q-35 -24 -35 -69q0 -27 13 -46.5t34 -33.5t43 -23.5t49 -21.5l189 -82q32 23 32 73z" />
    <glyph glyph-name="dieresis" unicode="&#xa8;" horiz-adv-x="895" 
d="M854 1331q0 -45 -24 -84.5t-64.5 -61.5t-87.5 -22q-49 0 -90.5 22.5t-65.5 61.5t-24 84q0 72 50 122t122 50q52 0 93.5 -23t66 -62t24.5 -87zM399 1331q0 -46 -24.5 -85t-65 -61t-86.5 -22q-72 0 -127 49t-55 119q0 47 24 86.5t63.5 62.5t86.5 23q51 0 92.5 -23t66.5 -62
t25 -87z" />
    <glyph glyph-name="copyright" unicode="&#xa9;" horiz-adv-x="1647" 
d="M1585 725q0 -151 -58 -289.5t-163.5 -245t-245 -167t-295.5 -60.5q-155 0 -294 60.5t-245 167t-164.5 244.5t-58.5 290q0 154 58.5 291.5t163.5 243t245 166.5t295 61q156 0 297 -61t245 -166.5t162 -244t58 -290.5zM1327 725q0 107 -38.5 201.5t-107.5 168t-161.5 116
t-196.5 42.5q-102 0 -194 -42t-162 -117t-109 -170.5t-39 -198.5q0 -140 68.5 -261.5t185.5 -194t250 -72.5q134 0 251 72.5t185 194t68 261.5zM1102 440q-67 -58 -131 -85t-148 -27q-75 0 -140.5 22.5t-118.5 70t-82 119t-29 167.5q0 121 47.5 213.5t136 143t201.5 50.5
q144 0 243 -84l-118 -174q-59 51 -121 51q-61 0 -82 -34.5t-21 -120.5q0 -84 7 -127t31.5 -63.5t70.5 -20.5q70 0 125 61z" />
    <glyph glyph-name="ordfeminine" unicode="&#xaa;" horiz-adv-x="901" 
d="M809 883l-147 -148q-76 36 -105 82q-76 -76 -197 -76q-134 0 -210 70.5t-76 192.5q0 117 83.5 191.5t278.5 74.5h39v30q0 50 -12 63t-57 13q-87 0 -216 -86l-106 185q56 32 97 52t111.5 41t147.5 21q121 0 205 -48.5t84 -168.5l-2 -309q0 -70 15.5 -105t66.5 -75z
M473 1098q-68 0 -94.5 -20.5t-26.5 -59.5q0 -34 17.5 -55t46.5 -21q40 0 55 29zM860 451h-819v217h819v-217z" />
    <glyph glyph-name="guillemotleft" unicode="&#xab;" horiz-adv-x="1239" 
d="M1198 174l-235 -158l-349 506l349 508l235 -160l-235 -348zM625 174l-236 -158l-348 506l348 508l236 -160l-236 -348z" />
    <glyph glyph-name="logicalnot" unicode="&#xac;" horiz-adv-x="1182" 
d="M1079 92h-325v287h-652v276h977v-563z" />
    <glyph glyph-name="uni00AD" unicode="&#xad;" horiz-adv-x="723" 
d="M641 424h-559v293h559v-293z" />
    <glyph glyph-name="registered" unicode="&#xae;" horiz-adv-x="1647" 
d="M1585 725q0 -151 -58 -289.5t-163.5 -245t-245 -167t-295.5 -60.5q-155 0 -294 60.5t-245 167t-164.5 244.5t-58.5 290q0 154 58.5 291.5t163.5 243t245 166.5t295 61q156 0 297 -61t245 -166.5t162 -244t58 -290.5zM1327 725q0 107 -38.5 201.5t-107.5 168t-161.5 116
t-196.5 42.5q-102 0 -194 -42t-162 -117t-109 -170.5t-39 -198.5q0 -140 68.5 -261.5t185.5 -194t250 -72.5q134 0 251 72.5t185 194t68 261.5zM1157 373h-266q-8 29 -20 77t-25 91t-25 65q-17 33 -45 33h-8v-266h-242v739h365q98 0 166.5 -57t68.5 -158q0 -93 -42 -146.5
t-105 -68.5q42 -8 69.5 -35.5t51.5 -101.5zM858 872q0 52 -45 52h-45v-103h45q45 0 45 51z" />
    <glyph glyph-name="uni00AF" unicode="&#xaf;" horiz-adv-x="1024" 
d="M1024 1581h-1024v102h1024v-102z" />
    <glyph glyph-name="degree" unicode="&#xb0;" horiz-adv-x="848" 
d="M786 1128q0 -108 -44 -185.5t-126 -119t-196 -41.5q-110 0 -191 35t-124.5 109t-43.5 188q0 103 47 179.5t130.5 118.5t189.5 42q108 0 188 -33.5t125 -106t45 -186.5zM504 1124q0 87 -16.5 120.5t-63.5 33.5q-49 0 -64.5 -33.5t-15.5 -130.5q0 -86 18.5 -118.5
t61.5 -32.5q47 0 63.5 33t16.5 128z" />
    <glyph glyph-name="plusminus" unicode="&#xb1;" horiz-adv-x="1102" 
d="M1020 565h-307v-297h-324v297h-307v289h307v287h324v-287h307v-289zM1016 -49h-930v274h930v-274z" />
    <glyph glyph-name="twosuperior" unicode="&#xb2;" horiz-adv-x="758" 
d="M717 721l-58 -209h-577v176q161 131 244 230q49 58 69.5 93.5t20.5 84.5q0 55 -56 55q-34 0 -65 -17.5t-84 -62.5l-170 148q96 76 175.5 107.5t180.5 31.5q92 0 159 -32.5t101.5 -90t34.5 -133.5q0 -194 -278 -383q8 1 14.5 1.5t15.5 0.5h273z" />
    <glyph glyph-name="threesuperior" unicode="&#xb3;" horiz-adv-x="725" 
d="M684 764q0 -134 -131 -214.5t-332 -80.5q-70 0 -133 8l-47 199q66 -12 104 -12q248 0 248 122q0 55 -91 55q-13 0 -20 -0.5t-16 -0.5q-10 -1 -22 -2.5t-30.5 -3t-31.5 -3.5v207q65 -8 105 -8q62 0 82 17.5t20 56.5q0 17 -14.5 30t-40.5 13q-50 0 -88 -17t-80 -59
l-119 182q144 101 311 101q89 0 159 -28t109.5 -80.5t39.5 -123.5q0 -119 -84 -176q49 -24 75.5 -73t26.5 -109z" />
    <glyph glyph-name="acute" unicode="&#xb4;" horiz-adv-x="668" 
d="M627 1307l-473 -197l-113 180l446 248z" />
    <glyph glyph-name="uni00B5" unicode="&#xb5;" horiz-adv-x="1171" 
d="M1100 90l-289 -119q-39 32 -57 90q-71 -41 -126 -62.5t-112 -21.5q-27 0 -41 9l-4 2q2 -23 2 -138v-221l-350 -96v1499l356 64v-777q0 -47 23 -66.5t71 -19.5t111 48v743l356 74v-779q0 -143 60 -229z" />
    <glyph glyph-name="paragraph" unicode="&#xb6;" horiz-adv-x="1235" 
d="M1112 -258h-240v1501h-141v-1501h-239v956q-229 0 -340 95t-111 272q0 198 127 280t358 82h586v-1685z" />
    <glyph glyph-name="uni00B7" unicode="&#xb7;" horiz-adv-x="633" 
d="M530 551q0 -86 -64 -148.5t-155 -62.5q-87 0 -148 63t-61 152q0 56 29.5 107t79.5 80.5t108 29.5t106.5 -30t76.5 -80.5t28 -110.5z" />
    <glyph glyph-name="cedilla" unicode="&#xb8;" horiz-adv-x="592" 
d="M510 -201q0 -86 -60 -147.5t-188 -61.5q-42 0 -94.5 12t-85.5 29l65 127q46 -22 99 -22q67 0 67 49t-67 49q-28 0 -58 -4l-20 35l55 176l162 -21l-33 -71q74 -6 116 -47t42 -103z" />
    <glyph glyph-name="onesuperior" unicode="&#xb9;" horiz-adv-x="631" 
d="M590 512h-500v190h146v363q-74 -41 -125 -55l-70 137l274 196h162v-641h113v-190z" />
    <glyph glyph-name="ordmasculine" unicode="&#xba;" horiz-adv-x="901" 
d="M848 1167q0 -114 -42 -210.5t-132 -156t-225 -59.5q-116 0 -205.5 52t-139 148t-49.5 222q0 125 49.5 222t139 150.5t205.5 53.5q96 0 187.5 -39t151.5 -133t60 -250zM535 1169q0 113 -20 153t-62 40q-43 0 -62.5 -45t-19.5 -150q0 -104 20.5 -152t69.5 -48q74 0 74 202z
M860 451h-819v217h819v-217z" />
    <glyph glyph-name="guillemotright" unicode="&#xbb;" horiz-adv-x="1239" 
d="M1198 522l-348 -506l-236 158l236 348l-236 348l236 160zM625 522l-349 -506l-235 158l235 348l-235 348l235 160z" />
    <glyph glyph-name="onequarter" unicode="&#xbc;" horiz-adv-x="1993" 
d="M1952 150h-58l-12 2q1 -7 1.5 -12.5t0.5 -14.5v-158l-256 -18v190l2 15q-2 0 -9 -2t-9 -2h-344v155l202 529h256l-145 -398q-13 -40 -33 -69h80q0 51 7.5 96t27.5 121l221 32v-157q0 -52 -4 -92h72v-217zM1649 1567l-1084 -1882h-278l1081 1882h281zM590 512h-500v190
h146v363q-74 -41 -125 -55l-70 137l274 196h162v-641h113v-190z" />
    <glyph glyph-name="onehalf" unicode="&#xbd;" horiz-adv-x="1982" 
d="M1942 209l-58 -209h-577v176q161 132 243 230q52 61 71 95t19 83q0 55 -55 55q-34 0 -64 -16.5t-85 -63.5l-170 148q94 75 174.5 107t181.5 32q92 0 159 -32.5t101.5 -91.5t34.5 -132q0 -110 -75.5 -203t-203.5 -180q8 1 15 1.5t16 0.5h273zM1610 1567l-1084 -1882h-278
l1081 1882h281zM590 512h-500v190h146v363q-74 -41 -125 -55l-70 137l274 196h162v-641h113v-190z" />
    <glyph glyph-name="threequarters" unicode="&#xbe;" horiz-adv-x="2077" 
d="M2036 150h-58l-12 2q1 -7 1.5 -12.5t0.5 -14.5v-158l-256 -18v190l2 15q-2 0 -9 -2t-9 -2h-344v155l202 529h256l-145 -398q-13 -40 -33 -69h80q0 51 7.5 96t27.5 121l221 32v-157q0 -52 -4 -92h72v-217zM1741 1567l-1084 -1882h-278l1081 1882h281zM684 764
q0 -134 -131 -214.5t-332 -80.5q-70 0 -133 8l-47 199q66 -12 104 -12q248 0 248 122q0 55 -91 55q-13 0 -20 -0.5t-16 -0.5q-10 -1 -22 -2.5t-30.5 -3t-31.5 -3.5v207q65 -8 105 -8q62 0 82 17.5t20 56.5q0 17 -14.5 30t-40.5 13q-50 0 -88 -17t-80 -59l-119 182
q144 101 311 101q89 0 159 -28t109.5 -80.5t39.5 -123.5q0 -119 -84 -176q49 -24 75.5 -73t26.5 -109z" />
    <glyph glyph-name="questiondown" unicode="&#xbf;" horiz-adv-x="1016" 
d="M799 879q0 -53 -27 -100t-74 -74t-100 -27q-79 0 -138 60t-59 143q0 54 28 98.5t75.5 71t101.5 26.5q53 0 97.5 -26.5t70 -71t25.5 -100.5zM954 -250q-56 -53 -115.5 -89t-134 -56.5t-163.5 -20.5q-120 0 -221 40.5t-159.5 119.5t-58.5 193q0 216 187 325
q106 63 142.5 134.5t36.5 181.5q0 29 -1 45h299q11 -63 11 -125q0 -121 -47.5 -203.5t-145.5 -153.5q-66 -46 -93.5 -79t-27.5 -76q0 -107 139 -107q66 0 117 29.5t78 60.5z" />
    <glyph glyph-name="Agrave" unicode="&#xc0;" horiz-adv-x="1223" 
d="M1247 0h-397l-74 274h-338l-78 -274h-385l459 1427h381zM702 557l-61 260q-23 107 -27 201q-8 -109 -39 -227l-57 -234h184zM905 1634l-105 -180l-479 197l135 231z" />
    <glyph glyph-name="Aacute" unicode="&#xc1;" horiz-adv-x="1223" 
d="M1247 0h-397l-74 274h-338l-78 -274h-385l459 1427h381zM702 557l-61 260q-23 107 -27 201q-8 -109 -39 -227l-57 -234h184zM909 1651l-473 -197l-113 180l446 248z" />
    <glyph glyph-name="Acircumflex" unicode="&#xc2;" horiz-adv-x="1223" 
d="M1247 0h-397l-74 274h-338l-78 -274h-385l459 1427h381zM702 557l-61 260q-23 107 -27 201q-8 -109 -39 -227l-57 -234h184zM1009 1637l-114 -191l-285 144l-277 -144l-102 191l391 243z" />
    <glyph glyph-name="Atilde" unicode="&#xc3;" horiz-adv-x="1223" 
d="M1247 0h-397l-74 274h-338l-78 -274h-385l459 1427h381zM702 557l-61 260q-23 107 -27 201q-8 -109 -39 -227l-57 -234h184zM999 1625q-47 -56 -106.5 -84t-145.5 -28q-40 0 -65 8t-66.5 27.5t-73.5 30t-70 10.5q-81 0 -143 -62l-90 205q98 121 240 121q46 0 77 -9.5
t70.5 -27.5t68 -26.5t62.5 -8.5q40 0 84.5 18t65.5 41z" />
    <glyph glyph-name="Adieresis" unicode="&#xc4;" horiz-adv-x="1223" 
d="M1247 0h-397l-74 274h-338l-78 -274h-385l459 1427h381zM702 557l-61 260q-23 107 -27 201q-8 -109 -39 -227l-57 -234h184zM1028 1659q0 -45 -24 -84.5t-64.5 -61.5t-87.5 -22q-49 0 -90.5 22.5t-65.5 61.5t-24 84q0 72 50 122t122 50q52 0 93.5 -23t66 -62t24.5 -87z
M573 1659q0 -46 -24.5 -85t-65 -61t-86.5 -22q-72 0 -127 49t-55 119q0 47 24 86.5t63.5 62.5t86.5 23q51 0 92.5 -23t66.5 -62t25 -87z" />
    <glyph glyph-name="Aring" unicode="&#xc5;" horiz-adv-x="1223" 
d="M1247 0h-397l-74 274h-338l-78 -274h-385l459 1427h381zM702 557l-61 260q-23 107 -27 201q-8 -109 -39 -227l-57 -234h184zM860 1692q0 -57 -33.5 -108t-88 -80t-113.5 -29q-67 0 -122.5 29t-87.5 78.5t-32 109.5q0 59 33.5 108.5t89.5 79t119 29.5t117 -29.5t86 -80
t32 -107.5zM707 1692q0 36 -23.5 61t-56.5 25q-41 0 -65.5 -24.5t-24.5 -61.5q0 -35 24.5 -60.5t59.5 -25.5q38 0 62 25t24 61z" />
    <glyph glyph-name="AE" unicode="&#xc6;" horiz-adv-x="1706" 
d="M1665 0h-866v274h-330l-139 -274h-412l834 1427h886l-47 -301h-426v-239h357v-291h-357v-291h500v-305zM801 934h-4q-42 -130 -181 -377h183v291q0 55 2 86z" />
    <glyph glyph-name="Ccedilla" unicode="&#xc7;" horiz-adv-x="1137" 
d="M1137 121q-71 -66 -180.5 -105.5t-256.5 -40.5l-12 -26q74 -6 116 -47t42 -103q0 -86 -60 -147.5t-188 -61.5q-42 0 -94.5 12t-85.5 29l65 127q46 -22 99 -22q67 0 67 49t-67 49q-28 0 -58 -4l-20 35l39 125q-189 39 -318 182q-83 93 -123.5 225t-40.5 289q0 136 23 241
t76 201q59 109 146.5 182t195.5 107.5t235 34.5q112 0 214 -28.5t151 -75.5l-156 -271q-98 76 -213 76q-108 0 -160 -55t-72 -122.5t-20 -191.5q0 -129 5.5 -205t20.5 -127.5t44 -84.5q76 -91 182 -91q71 0 129 21t117 74z" />
    <glyph glyph-name="Egrave" unicode="&#xc8;" horiz-adv-x="1020" 
d="M979 0h-856v1427h829l-26 -301h-437v-239h357v-291h-357v-291h490v-305zM762 1634l-105 -180l-479 197l135 231z" />
    <glyph glyph-name="Eacute" unicode="&#xc9;" horiz-adv-x="1020" 
d="M979 0h-856v1427h829l-26 -301h-437v-239h357v-291h-357v-291h490v-305zM874 1651l-473 -197l-113 180l446 248z" />
    <glyph glyph-name="Ecircumflex" unicode="&#xca;" horiz-adv-x="1020" 
d="M979 0h-856v1427h829l-26 -301h-437v-239h357v-291h-357v-291h490v-305zM905 1637l-114 -191l-285 144l-277 -144l-102 191l391 243z" />
    <glyph glyph-name="Edieresis" unicode="&#xcb;" horiz-adv-x="1020" 
d="M979 0h-856v1427h829l-26 -301h-437v-239h357v-291h-357v-291h490v-305zM948 1667q0 -45 -24 -84.5t-64.5 -61.5t-87.5 -22q-49 0 -90.5 22.5t-65.5 61.5t-24 84q0 72 50 122t122 50q52 0 93.5 -23t66 -62t24.5 -87zM493 1667q0 -46 -24.5 -85t-65 -61t-86.5 -22
q-72 0 -127 49t-55 119q0 47 24 86.5t63.5 62.5t86.5 23q51 0 92.5 -23t66.5 -62t25 -87z" />
    <glyph glyph-name="Igrave" unicode="&#xcc;" horiz-adv-x="621" 
d="M498 0h-375v1427h375v-1427zM598 1634l-105 -180l-479 197l135 231z" />
    <glyph glyph-name="Iacute" unicode="&#xcd;" horiz-adv-x="621" 
d="M498 0h-375v1427h375v-1427zM610 1651l-473 -197l-113 180l446 248z" />
    <glyph glyph-name="Icircumflex" unicode="&#xce;" horiz-adv-x="621" 
d="M498 0h-375v1427h375v-1427zM698 1637l-114 -191l-285 144l-277 -144l-102 191l391 243z" />
    <glyph glyph-name="Idieresis" unicode="&#xcf;" horiz-adv-x="621" 
d="M498 0h-375v1427h375v-1427zM717 1665q0 -45 -24 -84.5t-64.5 -61.5t-87.5 -22q-49 0 -90.5 22.5t-65.5 61.5t-24 84q0 72 50 122t122 50q52 0 93.5 -23t66 -62t24.5 -87zM262 1665q0 -46 -24.5 -85t-65 -61t-86.5 -22q-72 0 -127 49t-55 119q0 47 24 86.5t63.5 62.5
t86.5 23q51 0 92.5 -23t66.5 -62t25 -87z" />
    <glyph glyph-name="Eth" unicode="&#xd0;" horiz-adv-x="1262" 
d="M1200 739q0 -87 -7.5 -164.5t-26 -147.5t-50 -134.5t-78.5 -120.5q-71 -85 -165 -128.5t-232 -43.5h-518v606h-146v223h146v598h504q95 0 179.5 -17.5t160.5 -70.5q79 -55 131 -139t77 -200t25 -261zM797 752q0 159 -24.5 240.5t-66 107.5t-104.5 26h-113v-297h175
l-50 -223h-125v-301h123q59 0 98.5 32t63 129.5t23.5 285.5z" />
    <glyph glyph-name="Ntilde" unicode="&#xd1;" horiz-adv-x="1313" 
d="M1190 0h-377l-252 496q-63 125 -110 268q7 -51 13.5 -147t6.5 -216v-401h-348v1427h352l260 -489q61 -113 119 -272q-12 101 -12 319v442h348v-1427zM1034 1603q-47 -56 -106.5 -84t-145.5 -28q-40 0 -65 8t-66.5 27.5t-73.5 30t-70 10.5q-81 0 -143 -62l-90 205
q98 121 240 121q46 0 77 -9.5t70.5 -27.5t68 -26.5t62.5 -8.5q40 0 84.5 18t65.5 41z" />
    <glyph glyph-name="Ograve" unicode="&#xd2;" horiz-adv-x="1405" 
d="M1343 768q0 -354 -143.5 -573.5t-494.5 -219.5q-306 0 -475 189t-169 514q0 247 84 422t232 263.5t340 88.5q174 0 296.5 -60t195 -159t103.5 -218t31 -247zM934 723q0 175 -23.5 271t-71.5 133.5t-132 37.5q-121 0 -178.5 -117t-57.5 -329q0 -175 27.5 -275.5t79.5 -140
t133 -39.5t129 39t71 138t23 282zM983 1634l-105 -180l-479 197l135 231z" />
    <glyph glyph-name="Oacute" unicode="&#xd3;" horiz-adv-x="1405" 
d="M1343 768q0 -354 -143.5 -573.5t-494.5 -219.5q-306 0 -475 189t-169 514q0 247 84 422t232 263.5t340 88.5q174 0 296.5 -60t195 -159t103.5 -218t31 -247zM934 723q0 175 -23.5 271t-71.5 133.5t-132 37.5q-121 0 -178.5 -117t-57.5 -329q0 -175 27.5 -275.5t79.5 -140
t133 -39.5t129 39t71 138t23 282zM1018 1651l-473 -197l-113 180l446 248z" />
    <glyph glyph-name="Ocircumflex" unicode="&#xd4;" horiz-adv-x="1405" 
d="M1343 768q0 -354 -143.5 -573.5t-494.5 -219.5q-306 0 -475 189t-169 514q0 247 84 422t232 263.5t340 88.5q174 0 296.5 -60t195 -159t103.5 -218t31 -247zM934 723q0 175 -23.5 271t-71.5 133.5t-132 37.5q-121 0 -178.5 -117t-57.5 -329q0 -175 27.5 -275.5t79.5 -140
t133 -39.5t129 39t71 138t23 282zM1108 1637l-114 -191l-285 144l-277 -144l-102 191l391 243z" />
    <glyph glyph-name="Otilde" unicode="&#xd5;" horiz-adv-x="1405" 
d="M1343 768q0 -354 -143.5 -573.5t-494.5 -219.5q-306 0 -475 189t-169 514q0 247 84 422t232 263.5t340 88.5q174 0 296.5 -60t195 -159t103.5 -218t31 -247zM934 723q0 175 -23.5 271t-71.5 133.5t-132 37.5q-121 0 -178.5 -117t-57.5 -329q0 -175 27.5 -275.5t79.5 -140
t133 -39.5t129 39t71 138t23 282zM1087 1625q-47 -56 -106.5 -84t-145.5 -28q-40 0 -65 8t-66.5 27.5t-73.5 30t-70 10.5q-81 0 -143 -62l-90 205q98 121 240 121q46 0 77 -9.5t70.5 -27.5t68 -26.5t62.5 -8.5q40 0 84.5 18t65.5 41z" />
    <glyph glyph-name="Odieresis" unicode="&#xd6;" horiz-adv-x="1405" 
d="M1343 768q0 -354 -143.5 -573.5t-494.5 -219.5q-306 0 -475 189t-169 514q0 247 84 422t232 263.5t340 88.5q174 0 296.5 -60t195 -159t103.5 -218t31 -247zM934 723q0 175 -23.5 271t-71.5 133.5t-132 37.5q-121 0 -178.5 -117t-57.5 -329q0 -175 27.5 -275.5t79.5 -140
t133 -39.5t129 39t71 138t23 282zM1116 1667q0 -45 -24 -84.5t-64.5 -61.5t-87.5 -22q-49 0 -90.5 22.5t-65.5 61.5t-24 84q0 72 50 122t122 50q52 0 93.5 -23t66 -62t24.5 -87zM661 1667q0 -46 -24.5 -85t-65 -61t-86.5 -22q-72 0 -127 49t-55 119q0 47 24 86.5t63.5 62.5
t86.5 23q51 0 92.5 -23t66.5 -62t25 -87z" />
    <glyph glyph-name="multiply" unicode="&#xd7;" horiz-adv-x="1415" 
d="M1282 356l-235 -235l-347 344l-335 -338l-230 229l338 338l-340 338l236 236l340 -338l338 338l227 -230l-336 -338z" />
    <glyph glyph-name="Oslash" unicode="&#xd8;" horiz-adv-x="1405" 
d="M1343 768q0 -354 -143.5 -573.5t-494.5 -219.5q-162 0 -289 56l-144 -234l-174 113l146 237q-183 186 -183 531q0 247 84 422t232 263.5t340 88.5q172 0 293 -59l123 198l174 -102l-131 -215q87 -97 127 -229.5t40 -276.5zM844 1122q-46 43 -137 43q-121 0 -178.5 -117
t-57.5 -329q0 -100 10 -187zM934 723q0 61 -4 147l-348 -569q49 -37 129 -37q81 0 129 39t71 138t23 282z" />
    <glyph glyph-name="Ugrave" unicode="&#xd9;" horiz-adv-x="1298" 
d="M1186 440q0 -100 -7 -147.5t-28 -87.5q-50 -99 -177.5 -164.5t-324.5 -65.5q-341 0 -467 179q-26 38 -37 59t-17.5 48t-10.5 77t-4 119v970h368v-931q0 -106 39 -163t131 -57q65 0 101.5 24t51.5 70.5t15 118.5v938h367v-987zM872 1634l-105 -180l-479 197l135 231z" />
    <glyph glyph-name="Uacute" unicode="&#xda;" horiz-adv-x="1298" 
d="M1186 440q0 -100 -7 -147.5t-28 -87.5q-50 -99 -177.5 -164.5t-324.5 -65.5q-341 0 -467 179q-26 38 -37 59t-17.5 48t-10.5 77t-4 119v970h368v-931q0 -106 39 -163t131 -57q65 0 101.5 24t51.5 70.5t15 118.5v938h367v-987zM1018 1651l-473 -197l-113 180l446 248z" />
    <glyph glyph-name="Ucircumflex" unicode="&#xdb;" horiz-adv-x="1298" 
d="M1186 440q0 -100 -7 -147.5t-28 -87.5q-50 -99 -177.5 -164.5t-324.5 -65.5q-341 0 -467 179q-26 38 -37 59t-17.5 48t-10.5 77t-4 119v970h368v-931q0 -106 39 -163t131 -57q65 0 101.5 24t51.5 70.5t15 118.5v938h367v-987zM1046 1643l-114 -191l-285 144l-277 -144
l-102 191l391 243z" />
    <glyph glyph-name="Udieresis" unicode="&#xdc;" horiz-adv-x="1298" 
d="M1186 440q0 -100 -7 -147.5t-28 -87.5q-50 -99 -177.5 -164.5t-324.5 -65.5q-341 0 -467 179q-26 38 -37 59t-17.5 48t-10.5 77t-4 119v970h368v-931q0 -106 39 -163t131 -57q65 0 101.5 24t51.5 70.5t15 118.5v938h367v-987zM1056 1659q0 -45 -24 -84.5t-64.5 -61.5
t-87.5 -22q-49 0 -90.5 22.5t-65.5 61.5t-24 84q0 72 50 122t122 50q52 0 93.5 -23t66 -62t24.5 -87zM601 1659q0 -46 -24.5 -85t-65 -61t-86.5 -22q-72 0 -127 49t-55 119q0 47 24 86.5t63.5 62.5t86.5 23q51 0 92.5 -23t66.5 -62t25 -87z" />
    <glyph glyph-name="Yacute" unicode="&#xdd;" horiz-adv-x="1149" 
d="M1210 1427l-456 -823v-604h-375v596l-440 831h438l125 -303q39 -98 71 -198q21 51 38.5 97t37.5 95l125 309h436zM924 1651l-473 -197l-113 180l446 248z" />
    <glyph glyph-name="Thorn" unicode="&#xde;" horiz-adv-x="1184" 
d="M1163 758q0 -123 -46 -229t-170.5 -176t-342.5 -70h-115v-283h-366v1427h366v-225h99q143 0 247 -24t178 -76.5t112 -137t38 -206.5zM764 760q0 83 -36 112t-112 29h-127v-328h107q92 0 130 37.5t38 149.5z" />
    <glyph glyph-name="germandbls" unicode="&#xdf;" horiz-adv-x="1319" 
d="M1268 414q0 -98 -36.5 -178t-106 -139.5t-162 -90.5t-203.5 -31q-100 0 -166 25l43 264q32 -18 92 -18q75 0 115.5 41.5t40.5 115.5q0 66 -37 99t-111 71.5t-112.5 82.5t-38.5 128q0 70 24 108t69.5 69.5t65 52.5t19.5 65q0 60 -28.5 88.5t-76.5 28.5q-65 0 -88.5 -39
t-23.5 -141v-776q0 -121 -33 -240h-360q32 137 32 285v491h-168v281h168v49q0 80 35.5 148.5t98 117t151 76t191.5 27.5q112 0 203.5 -26t154.5 -73t98 -114t35 -148q0 -83 -41.5 -157t-130.5 -123q-25 -14 -42 -21.5t-17 -13.5q0 -5 4 -8t16.5 -8t26.5 -11q87 -39 147 -76
t106 -106.5t46 -175.5z" />
    <glyph glyph-name="agrave" unicode="&#xe0;" horiz-adv-x="1057" 
d="M1014 156l-205 -199q-36 11 -77 45t-54 59q-44 -37 -110 -62.5t-154 -25.5q-186 0 -274.5 95.5t-88.5 248.5q0 101 56 179t162.5 122t250.5 44q49 0 60 -3v66q0 52 -16 75t-70 23q-153 0 -301 -110l-130 221q108 66 230 107.5t246 41.5q102 0 180 -22t130 -65t71 -105
q16 -54 16 -164l-4 -365q0 -78 16 -126t66 -80zM580 254v184q-105 0 -144 -31.5t-39 -84.5q0 -47 26 -75t73 -28q21 0 48 11.5t36 23.5zM764 1290l-105 -180l-479 197l135 231z" />
    <glyph glyph-name="aacute" unicode="&#xe1;" horiz-adv-x="1057" 
d="M1014 156l-205 -199q-36 11 -77 45t-54 59q-44 -37 -110 -62.5t-154 -25.5q-186 0 -274.5 95.5t-88.5 248.5q0 101 56 179t162.5 122t250.5 44q49 0 60 -3v66q0 52 -16 75t-70 23q-153 0 -301 -110l-130 221q108 66 230 107.5t246 41.5q102 0 180 -22t130 -65t71 -105
q16 -54 16 -164l-4 -365q0 -78 16 -126t66 -80zM580 254v184q-105 0 -144 -31.5t-39 -84.5q0 -47 26 -75t73 -28q21 0 48 11.5t36 23.5zM866 1307l-473 -197l-113 180l446 248z" />
    <glyph glyph-name="acircumflex" unicode="&#xe2;" horiz-adv-x="1057" 
d="M1014 156l-205 -199q-36 11 -77 45t-54 59q-44 -37 -110 -62.5t-154 -25.5q-186 0 -274.5 95.5t-88.5 248.5q0 101 56 179t162.5 122t250.5 44q49 0 60 -3v66q0 52 -16 75t-70 23q-153 0 -301 -110l-130 221q108 66 230 107.5t246 41.5q102 0 180 -22t130 -65t71 -105
q16 -54 16 -164l-4 -365q0 -78 16 -126t66 -80zM580 254v184q-105 0 -144 -31.5t-39 -84.5q0 -47 26 -75t73 -28q21 0 48 11.5t36 23.5zM911 1283l-114 -191l-285 144l-277 -144l-102 191l391 243z" />
    <glyph glyph-name="atilde" unicode="&#xe3;" horiz-adv-x="1057" 
d="M1014 156l-205 -199q-36 11 -77 45t-54 59q-44 -37 -110 -62.5t-154 -25.5q-186 0 -274.5 95.5t-88.5 248.5q0 101 56 179t162.5 122t250.5 44q49 0 60 -3v66q0 52 -16 75t-70 23q-153 0 -301 -110l-130 221q108 66 230 107.5t246 41.5q102 0 180 -22t130 -65t71 -105
q16 -54 16 -164l-4 -365q0 -78 16 -126t66 -80zM580 254v184q-105 0 -144 -31.5t-39 -84.5q0 -47 26 -75t73 -28q21 0 48 11.5t36 23.5zM907 1290q-47 -56 -106.5 -84t-145.5 -28q-40 0 -65 8t-66.5 27.5t-73.5 30t-70 10.5q-81 0 -143 -62l-90 205q98 121 240 121
q46 0 77 -9.5t70.5 -27.5t68 -26.5t62.5 -8.5q40 0 84.5 18t65.5 41z" />
    <glyph glyph-name="adieresis" unicode="&#xe4;" horiz-adv-x="1057" 
d="M1014 156l-205 -199q-36 11 -77 45t-54 59q-44 -37 -110 -62.5t-154 -25.5q-186 0 -274.5 95.5t-88.5 248.5q0 101 56 179t162.5 122t250.5 44q49 0 60 -3v66q0 52 -16 75t-70 23q-153 0 -301 -110l-130 221q108 66 230 107.5t246 41.5q102 0 180 -22t130 -65t71 -105
q16 -54 16 -164l-4 -365q0 -78 16 -126t66 -80zM580 254v184q-105 0 -144 -31.5t-39 -84.5q0 -47 26 -75t73 -28q21 0 48 11.5t36 23.5zM938 1331q0 -45 -24 -84.5t-64.5 -61.5t-87.5 -22q-49 0 -90.5 22.5t-65.5 61.5t-24 84q0 72 50 122t122 50q52 0 93.5 -23t66 -62
t24.5 -87zM483 1331q0 -46 -24.5 -85t-65 -61t-86.5 -22q-72 0 -127 49t-55 119q0 47 24 86.5t63.5 62.5t86.5 23q51 0 92.5 -23t66.5 -62t25 -87z" />
    <glyph glyph-name="aring" unicode="&#xe5;" horiz-adv-x="1057" 
d="M1014 156l-205 -199q-36 11 -77 45t-54 59q-44 -37 -110 -62.5t-154 -25.5q-186 0 -274.5 95.5t-88.5 248.5q0 101 56 179t162.5 122t250.5 44q49 0 60 -3v66q0 52 -16 75t-70 23q-153 0 -301 -110l-130 221q108 66 230 107.5t246 41.5q102 0 180 -22t130 -65t71 -105
q16 -54 16 -164l-4 -365q0 -78 16 -126t66 -80zM580 254v184q-105 0 -144 -31.5t-39 -84.5q0 -47 26 -75t73 -28q21 0 48 11.5t36 23.5zM770 1347q0 -57 -33.5 -108t-88 -80t-113.5 -29q-67 0 -122.5 29t-87.5 78.5t-32 109.5q0 59 33.5 108.5t89.5 79t119 29.5t117 -29.5
t86 -80t32 -107.5zM617 1347q0 36 -23.5 61t-56.5 25q-41 0 -65.5 -24.5t-24.5 -61.5q0 -35 24.5 -60.5t59.5 -25.5q38 0 62 25t24 61z" />
    <glyph glyph-name="ae" unicode="&#xe6;" horiz-adv-x="1571" 
d="M1520 416h-590q0 -71 36.5 -132t133.5 -61q141 0 278 107l138 -205q-105 -80 -208.5 -116t-222.5 -36q-116 0 -209.5 30t-158.5 91q-35 -50 -113.5 -85.5t-189.5 -35.5q-186 0 -274.5 95.5t-88.5 248.5q0 101 56.5 179t165.5 122t255 44q41 0 52 -3v66q0 52 -16 75
t-70 23q-153 0 -301 -110l-130 221q108 66 230 107.5t246 41.5q96 0 157.5 -16.5t108.5 -50.5q84 67 237 67q248 0 363 -148.5t115 -430.5v-88zM1167 647v20q0 169 -112 169q-125 0 -125 -189h237zM580 254v184q-105 0 -144 -31.5t-39 -84.5q0 -47 26 -75t73 -28
q21 0 48 11.5t36 23.5z" />
    <glyph glyph-name="ccedilla" unicode="&#xe7;" horiz-adv-x="940" 
d="M920 123q-147 -147 -363 -150l-25 -53q74 -6 116 -47t42 -102q0 -87 -59.5 -148t-188.5 -61q-42 0 -91.5 11t-88.5 30l66 127q43 -23 98 -23q32 0 50 13t18 36q0 49 -68 49q-29 0 -57 -4l-21 35l49 154q-107 28 -182 96.5t-114.5 178t-39.5 253.5q0 130 34.5 236
t100 179.5t159.5 111.5t212 38q66 0 120 -13t103.5 -40.5t102.5 -71.5l-164 -215q-30 33 -72 55.5t-77 22.5q-68 0 -98.5 -56t-30.5 -224q0 -167 25 -235t99 -68q113 0 195 94z" />
    <glyph glyph-name="egrave" unicode="&#xe8;" horiz-adv-x="1071" 
d="M1020 416h-590q0 -71 36.5 -132t133.5 -61q141 0 279 107l137 -205q-105 -80 -208 -116t-222 -36q-125 0 -223 38t-165.5 109.5t-102 173t-34.5 228.5q0 172 58 299t166 194.5t258 67.5q247 0 362 -148.5t115 -430.5v-88zM668 647q0 96 -26.5 142.5t-86.5 46.5
q-125 0 -125 -189h238zM799 1290l-105 -180l-479 197l135 231z" />
    <glyph glyph-name="eacute" unicode="&#xe9;" horiz-adv-x="1071" 
d="M1020 416h-590q0 -71 36.5 -132t133.5 -61q141 0 279 107l137 -205q-105 -80 -208 -116t-222 -36q-125 0 -223 38t-165.5 109.5t-102 173t-34.5 228.5q0 172 58 299t166 194.5t258 67.5q247 0 362 -148.5t115 -430.5v-88zM668 647q0 96 -26.5 142.5t-86.5 46.5
q-125 0 -125 -189h238zM887 1307l-473 -197l-113 180l446 248z" />
    <glyph glyph-name="ecircumflex" unicode="&#xea;" horiz-adv-x="1071" 
d="M1020 416h-590q0 -71 36.5 -132t133.5 -61q141 0 279 107l137 -205q-105 -80 -208 -116t-222 -36q-125 0 -223 38t-165.5 109.5t-102 173t-34.5 228.5q0 172 58 299t166 194.5t258 67.5q247 0 362 -148.5t115 -430.5v-88zM668 647q0 96 -26.5 142.5t-86.5 46.5
q-125 0 -125 -189h238zM936 1283l-114 -191l-285 144l-277 -144l-102 191l391 243z" />
    <glyph glyph-name="edieresis" unicode="&#xeb;" horiz-adv-x="1071" 
d="M1020 416h-590q0 -71 36.5 -132t133.5 -61q141 0 279 107l137 -205q-105 -80 -208 -116t-222 -36q-125 0 -223 38t-165.5 109.5t-102 173t-34.5 228.5q0 172 58 299t166 194.5t258 67.5q247 0 362 -148.5t115 -430.5v-88zM668 647q0 96 -26.5 142.5t-86.5 46.5
q-125 0 -125 -189h238zM954 1331q0 -45 -24 -84.5t-64.5 -61.5t-87.5 -22q-49 0 -90.5 22.5t-65.5 61.5t-24 84q0 72 50 122t122 50q52 0 93.5 -23t66 -62t24.5 -87zM499 1331q0 -46 -24.5 -85t-65 -61t-86.5 -22q-72 0 -127 49t-55 119q0 47 24 86.5t63.5 62.5t86.5 23
q51 0 92.5 -23t66.5 -62t25 -87z" />
    <glyph glyph-name="igrave" unicode="&#xec;" horiz-adv-x="602" 
d="M479 0h-356v1040l356 33v-1073zM588 1290l-105 -180l-479 197l135 231z" />
    <glyph glyph-name="iacute" unicode="&#xed;" horiz-adv-x="602" 
d="M479 0h-356v1040l356 33v-1073zM608 1307l-473 -197l-113 180l446 248z" />
    <glyph glyph-name="icircumflex" unicode="&#xee;" horiz-adv-x="602" 
d="M479 0h-356v1040l356 33v-1073zM690 1309l-114 -191l-285 144l-277 -144l-102 191l391 243z" />
    <glyph glyph-name="idieresis" unicode="&#xef;" horiz-adv-x="602" 
d="M479 0h-356v1040l356 33v-1073zM708 1331q0 -45 -24 -84.5t-64.5 -61.5t-87.5 -22q-49 0 -90.5 22.5t-65.5 61.5t-24 84q0 72 50 122t122 50q52 0 93.5 -23t66 -62t24.5 -87zM253 1331q0 -46 -24.5 -85t-65 -61t-86.5 -22q-72 0 -127 49t-55 119q0 47 24 86.5t63.5 62.5
t86.5 23q51 0 92.5 -23t66.5 -62t25 -87z" />
    <glyph glyph-name="eth" unicode="&#xf0;" horiz-adv-x="1063" 
d="M1001 496q0 -169 -61.5 -286.5t-168.5 -175t-243 -57.5q-101 0 -185.5 30t-147.5 89.5t-97.5 148t-34.5 199.5q0 96 32 175.5t90 136.5t137.5 87t174.5 30q22 0 33 -1q-77 86 -141 119l-90 -100l-186 74l100 110q-114 39 -274 60l219 260q132 -15 252 -62l65 88l207 -94
l-80 -92q107 -69 174 -152q111 -129 168 -276t57 -311zM662 479q0 52 -7 113q-48 18 -110 18q-69 0 -103 -45.5t-34 -124.5t34 -128.5t99 -49.5q63 0 92 59.5t29 157.5z" />
    <glyph glyph-name="ntilde" unicode="&#xf1;" horiz-adv-x="1163" 
d="M1040 0h-356v676q0 78 -20 96.5t-68 18.5q-46 0 -117 -62v-729h-356v672q0 216 -33 354l328 55q17 -52 20 -98q61 45 135 72.5t170 27.5q170 0 233.5 -80t63.5 -210v-793zM942 1288q-47 -56 -106.5 -84t-145.5 -28q-40 0 -65 8t-66.5 27.5t-73.5 30t-70 10.5
q-81 0 -143 -62l-90 205q98 121 240 121q46 0 77 -9.5t70.5 -27.5t68 -26.5t62.5 -8.5q40 0 84.5 18t65.5 41z" />
    <glyph glyph-name="ograve" unicode="&#xf2;" horiz-adv-x="1096" 
d="M1044 555q0 -291 -146 -436.5t-357 -145.5q-151 0 -261.5 64.5t-169.5 190t-59 296.5q0 163 63 290.5t179 198t268 70.5q137 0 245.5 -54.5t173 -174t64.5 -299.5zM659 565q0 156 -24.5 213.5t-87.5 57.5q-60 0 -85.5 -64.5t-25.5 -253.5q0 -116 7.5 -175.5t32 -89.5
t73.5 -30q41 0 65.5 33t34.5 107.5t10 201.5zM786 1290l-105 -180l-479 197l135 231z" />
    <glyph glyph-name="oacute" unicode="&#xf3;" horiz-adv-x="1096" 
d="M1044 555q0 -291 -146 -436.5t-357 -145.5q-151 0 -261.5 64.5t-169.5 190t-59 296.5q0 163 63 290.5t179 198t268 70.5q137 0 245.5 -54.5t173 -174t64.5 -299.5zM659 565q0 156 -24.5 213.5t-87.5 57.5q-60 0 -85.5 -64.5t-25.5 -253.5q0 -116 7.5 -175.5t32 -89.5
t73.5 -30q41 0 65.5 33t34.5 107.5t10 201.5zM870 1307l-473 -197l-113 180l446 248z" />
    <glyph glyph-name="ocircumflex" unicode="&#xf4;" horiz-adv-x="1096" 
d="M1044 555q0 -291 -146 -436.5t-357 -145.5q-151 0 -261.5 64.5t-169.5 190t-59 296.5q0 163 63 290.5t179 198t268 70.5q137 0 245.5 -54.5t173 -174t64.5 -299.5zM659 565q0 156 -24.5 213.5t-87.5 57.5q-60 0 -85.5 -64.5t-25.5 -253.5q0 -116 7.5 -175.5t32 -89.5
t73.5 -30q41 0 65.5 33t34.5 107.5t10 201.5zM946 1283l-114 -191l-285 144l-277 -144l-102 191l391 243z" />
    <glyph glyph-name="otilde" unicode="&#xf5;" horiz-adv-x="1096" 
d="M1044 555q0 -291 -146 -436.5t-357 -145.5q-151 0 -261.5 64.5t-169.5 190t-59 296.5q0 163 63 290.5t179 198t268 70.5q137 0 245.5 -54.5t173 -174t64.5 -299.5zM659 565q0 156 -24.5 213.5t-87.5 57.5q-60 0 -85.5 -64.5t-25.5 -253.5q0 -116 7.5 -175.5t32 -89.5
t73.5 -30q41 0 65.5 33t34.5 107.5t10 201.5zM928 1281q-47 -56 -106.5 -84t-145.5 -28q-40 0 -65 8t-66.5 27.5t-73.5 30t-70 10.5q-81 0 -143 -62l-90 205q98 121 240 121q46 0 77 -9.5t70.5 -27.5t68 -26.5t62.5 -8.5q40 0 84.5 18t65.5 41z" />
    <glyph glyph-name="odieresis" unicode="&#xf6;" horiz-adv-x="1096" 
d="M1044 555q0 -291 -146 -436.5t-357 -145.5q-151 0 -261.5 64.5t-169.5 190t-59 296.5q0 163 63 290.5t179 198t268 70.5q137 0 245.5 -54.5t173 -174t64.5 -299.5zM659 565q0 156 -24.5 213.5t-87.5 57.5q-60 0 -85.5 -64.5t-25.5 -253.5q0 -116 7.5 -175.5t32 -89.5
t73.5 -30q41 0 65.5 33t34.5 107.5t10 201.5zM956 1333q0 -45 -24 -84.5t-64.5 -61.5t-87.5 -22q-49 0 -90.5 22.5t-65.5 61.5t-24 84q0 72 50 122t122 50q52 0 93.5 -23t66 -62t24.5 -87zM501 1333q0 -46 -24.5 -85t-65 -61t-86.5 -22q-72 0 -127 49t-55 119q0 47 24 86.5
t63.5 62.5t86.5 23q51 0 92.5 -23t66.5 -62t25 -87z" />
    <glyph glyph-name="divide" unicode="&#xf7;" horiz-adv-x="1198" 
d="M805 958q0 -86 -63 -148t-148 -62q-86 0 -147.5 62.5t-61.5 147.5q0 56 28 103t76 75.5t105 28.5t105.5 -28.5t77 -76.5t28.5 -102zM1116 418h-1034v256h1034v-256zM805 150q0 -87 -63 -149t-148 -62q-86 0 -147.5 62.5t-61.5 148.5q0 55 28.5 103t76 75.5t104.5 27.5
t105 -28t77 -76.5t29 -101.5z" />
    <glyph glyph-name="oslash" unicode="&#xf8;" horiz-adv-x="1096" 
d="M1044 555q0 -291 -146 -436.5t-357 -145.5q-113 0 -207 37l-92 -147l-140 90l93 151q-47 47 -79 110t-48.5 141.5t-16.5 168.5q0 163 63 290.5t179 198t268 70.5q117 0 211 -39l92 150l142 -84l-97 -158q135 -135 135 -397zM662 565q0 157 -25 214t-88 57
q-60 0 -85.5 -64.5t-25.5 -253.5q0 -116 7.5 -175.5t32 -89.5t73.5 -30q41 0 66 33t35 107.5t10 201.5z" />
    <glyph glyph-name="ugrave" unicode="&#xf9;" horiz-adv-x="1153" 
d="M1083 84l-309 -111q-19 23 -45 97q-106 -97 -264 -97q-96 0 -163.5 21t-109 62.5t-59.5 101.5q-20 66 -20 256v614l356 57v-766q0 -46 23 -62.5t71 -16.5q27 0 57 14t54 39v735l356 57v-761q0 -143 53 -240zM788 1290l-105 -180l-479 197l135 231z" />
    <glyph glyph-name="uacute" unicode="&#xfa;" horiz-adv-x="1153" 
d="M1083 84l-309 -111q-19 23 -45 97q-106 -97 -264 -97q-96 0 -163.5 21t-109 62.5t-59.5 101.5q-20 66 -20 256v614l356 57v-766q0 -46 23 -62.5t71 -16.5q27 0 57 14t54 39v735l356 57v-761q0 -143 53 -240zM946 1307l-473 -197l-113 180l446 248z" />
    <glyph glyph-name="ucircumflex" unicode="&#xfb;" horiz-adv-x="1153" 
d="M1083 84l-309 -111q-19 23 -45 97q-106 -97 -264 -97q-96 0 -163.5 21t-109 62.5t-59.5 101.5q-20 66 -20 256v614l356 57v-766q0 -46 23 -62.5t71 -16.5q27 0 57 14t54 39v735l356 57v-761q0 -143 53 -240zM973 1303l-114 -191l-285 144l-277 -144l-102 191l391 243z
" />
    <glyph glyph-name="udieresis" unicode="&#xfc;" horiz-adv-x="1153" 
d="M1083 84l-309 -111q-19 23 -45 97q-106 -97 -264 -97q-96 0 -163.5 21t-109 62.5t-59.5 101.5q-20 66 -20 256v614l356 57v-766q0 -46 23 -62.5t71 -16.5q27 0 57 14t54 39v735l356 57v-761q0 -143 53 -240zM977 1331q0 -45 -24 -84.5t-64.5 -61.5t-87.5 -22
q-49 0 -90.5 22.5t-65.5 61.5t-24 84q0 72 50 122t122 50q52 0 93.5 -23t66 -62t24.5 -87zM522 1331q0 -46 -24.5 -85t-65 -61t-86.5 -22q-72 0 -127 49t-55 119q0 47 24 86.5t63.5 62.5t86.5 23q51 0 92.5 -23t66.5 -62t25 -87z" />
    <glyph glyph-name="yacute" unicode="&#xfd;" horiz-adv-x="1106" 
d="M1126 1057l-401 -1059q-48 -129 -92 -212.5t-100.5 -139.5t-140.5 -88.5t-208 -42.5l-125 229q94 23 142 40.5t87 44.5t67.5 66t60.5 105h-99q-22 117 -75 272l-262 775l364 26l158 -553q37 -132 49 -217h2q24 189 72 328l141 426h360zM901 1307l-473 -197l-113 180
l446 248z" />
    <glyph glyph-name="thorn" unicode="&#xfe;" horiz-adv-x="1135" 
d="M1073 555q0 -110 -22 -202t-67.5 -167.5t-115.5 -130.5q-56 -44 -111.5 -63t-123.5 -19q-86 0 -154 43v-387l-356 -96v1618q0 103 -5.5 168t-21.5 125l361 61q10 -51 16 -103t6 -99v-162q0 -96 -8 -117q68 59 186 59q191 0 303.5 -134.5t112.5 -393.5zM692 537
q0 97 -13.5 156.5t-39.5 81.5t-68 22q-36 0 -54 -13.5t-38 -38.5v-442q42 -35 88 -35q68 0 96.5 61t28.5 208z" />
    <glyph glyph-name="ydieresis" unicode="&#xff;" horiz-adv-x="1106" 
d="M1126 1057l-401 -1059q-48 -129 -92 -212.5t-100.5 -139.5t-140.5 -88.5t-208 -42.5l-125 229q94 23 142 40.5t87 44.5t67.5 66t60.5 105h-99q-22 117 -75 272l-262 775l364 26l158 -553q37 -132 49 -217h2q24 189 72 328l141 426h360zM963 1331q0 -45 -24 -84.5
t-64.5 -61.5t-87.5 -22q-49 0 -90.5 22.5t-65.5 61.5t-24 84q0 72 50 122t122 50q52 0 93.5 -23t66 -62t24.5 -87zM508 1331q0 -46 -24.5 -85t-65 -61t-86.5 -22q-72 0 -127 49t-55 119q0 47 24 86.5t63.5 62.5t86.5 23q51 0 92.5 -23t66.5 -62t25 -87z" />
    <glyph glyph-name="dotlessi" unicode="&#x131;" horiz-adv-x="602" 
d="M479 0h-356v1040l356 33v-1073z" />
    <glyph glyph-name="Lslash" unicode="&#x141;" horiz-adv-x="979" 
d="M979 303l-70 -303h-786v582l-115 -37v229l115 37v616h371v-495l348 117v-234l-348 -113v-399h485z" />
    <glyph glyph-name="lslash" unicode="&#x142;" horiz-adv-x="623" 
d="M659 6q-35 -14 -97.5 -23.5t-131.5 -9.5q-108 0 -171 26.5t-92.5 75.5t-36.5 110.5t-7 154.5v213l-103 -35v230l103 34v279v95q0 220 -12 290l352 59q16 -101 16 -264v-340l137 47v-229l-137 -47v-215q0 -97 5 -146.5t23 -69.5t58 -20q19 0 37 6z" />
    <glyph glyph-name="OE" unicode="&#x152;" horiz-adv-x="1700" 
d="M1659 0h-954q-204 0 -349.5 80t-220 232t-74.5 366q0 184 48.5 326.5t137 236.5t208.5 140t262 46h915l-26 -301h-437v-239h357v-291h-357v-291h490v-305zM803 301v825q-42 13 -96 13q-236 0 -236 -420q0 -128 16 -216t46 -133.5t73 -63t105 -17.5q52 0 92 12z" />
    <glyph glyph-name="oe" unicode="&#x153;" horiz-adv-x="1653" 
d="M1602 416h-590q0 -71 36.5 -132t133.5 -61q141 0 278 107l137 -205q-104 -80 -207.5 -116t-222.5 -36q-203 0 -327 97q-138 -97 -299 -97q-151 0 -261.5 64.5t-169.5 190t-59 296.5q0 163 63 290.5t179 198t268 70.5q167 0 287 -82q52 39 121 60.5t155 21.5
q248 0 363 -148.5t115 -430.5v-88zM1249 647v20q0 169 -112 169q-125 0 -125 -189h237zM659 565q0 156 -24.5 213.5t-87.5 57.5q-60 0 -85.5 -64.5t-25.5 -253.5q0 -116 7.5 -175.5t32 -89.5t73.5 -30q41 0 65.5 33t34.5 107.5t10 201.5z" />
    <glyph glyph-name="Scaron" unicode="&#x160;" horiz-adv-x="1264" 
d="M1202 498q0 -166 -77.5 -284.5t-219 -178.5t-327.5 -60q-149 0 -277.5 33.5t-249.5 95.5l129 287q201 -115 402 -115q103 0 151.5 35t48.5 97q0 47 -33 72t-110 44l-168 43q-166 44 -257 141.5t-91 272.5q0 103 40.5 191t116 150.5t177.5 96t219 33.5q309 0 510 -139
l-176 -260q-71 47 -159 73.5t-163 26.5q-69 0 -107 -29t-38 -73q0 -87 139 -121l145 -37q106 -27 183.5 -64.5t134.5 -117.5t57 -213zM1018 1758l-383 -277l-395 277l104 190l285 -143l277 143z" />
    <glyph glyph-name="scaron" unicode="&#x161;" horiz-adv-x="1042" 
d="M991 350q0 -111 -61 -198t-172.5 -133t-257.5 -46q-203 0 -459 133l125 259q78 -47 177.5 -91.5t168.5 -44.5q46 0 78.5 25.5t32.5 54.5q0 42 -29 61t-111 36l-137 28q-248 51 -248 289q0 163 118.5 261.5t315.5 98.5q76 0 137 -10t110 -25.5t89 -34t82 -38.5l-110 -221
q-147 77 -260 77q-41 0 -67 -16.5t-26 -42.5q0 -30 24 -49.5t87 -34.5l131 -29q138 -30 200 -106t62 -203zM889 1405l-383 -277l-395 277l104 190l285 -143l277 143z" />
    <glyph glyph-name="Ydieresis" unicode="&#x178;" horiz-adv-x="1149" 
d="M1210 1427l-456 -823v-604h-375v596l-440 831h438l125 -303q39 -98 71 -198q21 51 38.5 97t37.5 95l125 309h436zM963 1667q0 -45 -24 -84.5t-64.5 -61.5t-87.5 -22q-49 0 -90.5 22.5t-65.5 61.5t-24 84q0 72 50 122t122 50q52 0 93.5 -23t66 -62t24.5 -87zM508 1667
q0 -46 -24.5 -85t-65 -61t-86.5 -22q-72 0 -127 49t-55 119q0 47 24 86.5t63.5 62.5t86.5 23q51 0 92.5 -23t66.5 -62t25 -87z" />
    <glyph glyph-name="Zcaron" unicode="&#x17d;" horiz-adv-x="1106" 
d="M1055 305l-29 -305h-975v250l473 766q69 109 86 125q-35 -15 -145 -15h-371l27 301h926v-256l-492 -802q-25 -43 -66 -76q50 12 156 12h410zM960 1758l-383 -277l-395 277l104 190l285 -143l277 143z" />
    <glyph glyph-name="zcaron" unicode="&#x17e;" horiz-adv-x="958" 
d="M907 260l-33 -260h-823v240l412 563h-397v254h823v-254l-404 -543h422zM860 1405l-383 -277l-395 277l104 190l285 -143l277 143z" />
    <glyph glyph-name="florin" unicode="&#x192;" horiz-adv-x="1647" 
d="M1585 725q0 -151 -58 -289.5t-163.5 -245t-245 -167t-295.5 -60.5q-155 0 -294 60.5t-245 167t-164.5 244.5t-58.5 290q0 154 58.5 291.5t163.5 243t245 166.5t295 61q156 0 297 -61t245 -166.5t162 -244t58 -290.5zM1327 725q0 107 -38.5 201.5t-107.5 168t-161.5 116
t-196.5 42.5q-102 0 -194 -42t-162 -117t-109 -170.5t-39 -198.5q0 -140 68.5 -261.5t185.5 -194t250 -72.5q134 0 251 72.5t185 194t68 261.5zM1116 623q0 -68 -24 -119.5t-68 -86.5t-104.5 -53t-135.5 -18q-145 0 -278 68l67 151q110 -59 213 -59q107 0 107 69
q0 25 -17 38t-59 24l-88 22q-89 24 -136.5 75.5t-47.5 144.5q0 111 82 180t209 69q80 0 149 -19t121 -54l-92 -140q-35 25 -83.5 39.5t-86.5 14.5q-36 0 -57 -15t-21 -39q0 -44 74 -63l78 -21q86 -21 142 -64.5t56 -143.5z" />
    <glyph glyph-name="circumflex" unicode="&#x2c6;" horiz-adv-x="860" 
d="M819 1309l-114 -191l-285 144l-277 -144l-102 191l391 243z" />
    <glyph glyph-name="caron" unicode="&#x2c7;" horiz-adv-x="860" 
d="M819 1405l-383 -277l-395 277l104 190l285 -143l277 143z" />
    <glyph glyph-name="macron" unicode="&#x2c9;" horiz-adv-x="782" 
d="M741 1339h-700v195h700v-195z" />
    <glyph glyph-name="breve" unicode="&#x2d8;" horiz-adv-x="885" 
d="M844 1393q-63 -81 -174 -150t-226 -69q-117 0 -234 72.5t-169 148.5l127 114q147 -118 285 -118q66 0 135.5 33.5t148.5 84.5z" />
    <glyph glyph-name="dotaccent" unicode="&#x2d9;" horiz-adv-x="479" 
d="M438 1339q0 -84 -59 -142t-141 -58q-52 0 -97.5 27t-72.5 73t-27 100t27.5 100.5t74.5 73.5t101 27q52 0 97 -26.5t71 -73t26 -101.5z" />
    <glyph glyph-name="ring" unicode="&#x2da;" horiz-adv-x="559" 
d="M518 1350q0 -57 -33.5 -108t-88 -80t-113.5 -29q-67 0 -122.5 29t-87.5 78.5t-32 109.5q0 59 33.5 108.5t89.5 79t119 29.5t117 -29.5t86 -80t32 -107.5zM365 1350q0 36 -23.5 61t-56.5 25q-41 0 -65.5 -24.5t-24.5 -61.5q0 -35 24.5 -60.5t59.5 -25.5q38 0 62 25t24 61z
" />
    <glyph glyph-name="ogonek" unicode="&#x2db;" horiz-adv-x="651" 
d="M569 -356q-84 -33 -138 -47.5t-132 -14.5q-95 0 -156 51.5t-61 145.5q0 90 61 162.5t127 113.5l205 -100q-64 -34 -95.5 -66.5t-31.5 -68.5q0 -43 55 -43q45 0 99 33z" />
    <glyph glyph-name="tilde" unicode="&#x2dc;" horiz-adv-x="842" 
d="M801 1298q-47 -56 -106.5 -84t-145.5 -28q-40 0 -65 8t-66.5 27.5t-73.5 30t-70 10.5q-81 0 -143 -62l-90 205q98 121 240 121q46 0 77 -9.5t70.5 -27.5t68 -26.5t62.5 -8.5q40 0 84.5 18t65.5 41z" />
    <glyph glyph-name="hungarumlaut" unicode="&#x2dd;" horiz-adv-x="1057" 
d="M1016 1466l-352 -391l-213 115l280 422zM549 1503l-277 -430l-231 84l197 453z" />
    <glyph glyph-name="endash" unicode="&#x2013;" horiz-adv-x="1163" 
d="M1081 420h-999v272h999v-272z" />
    <glyph glyph-name="emdash" unicode="&#x2014;" horiz-adv-x="1626" 
d="M1544 420h-1462v272h1462v-272z" />
    <glyph glyph-name="quoteleft" unicode="&#x2018;" horiz-adv-x="547" 
d="M516 1358q-65 -14 -105 -44.5t-40 -62.5q0 -22 8 -34t27 -25.5t34 -28.5q33 -33 45.5 -69t12.5 -84q0 -83 -58 -139t-143 -56q-110 0 -173 74t-63 205q0 141 86 256q36 45 96 84t130 55z" />
    <glyph glyph-name="quoteright" unicode="&#x2019;" horiz-adv-x="547" 
d="M485 1208q0 -144 -86 -256q-33 -41 -95 -81.5t-130 -57.5l-143 131q68 16 106.5 45.5t38.5 61.5q0 23 -7.5 34t-27.5 25t-35 29q-34 38 -45.5 72t-11.5 81q0 83 58 139t143 56q110 0 172.5 -74t62.5 -205z" />
    <glyph glyph-name="quotesinglbase" unicode="&#x201a;" horiz-adv-x="547" 
d="M485 84q0 -144 -86 -256q-36 -44 -96 -84t-129 -55l-143 131q47 10 79 27t49 37.5t17 41.5q0 22 -7.5 33.5t-27.5 25.5t-35 29q-57 59 -57 154q0 83 58 138.5t143 55.5q110 0 172.5 -73.5t62.5 -204.5z" />
    <glyph glyph-name="quotedblleft" unicode="&#x201c;" horiz-adv-x="1051" 
d="M1020 1358q-65 -14 -105.5 -45t-40.5 -62q0 -22 7.5 -33.5t27.5 -25.5t35 -29q34 -34 45.5 -67.5t11.5 -85.5q0 -54 -26 -98.5t-71.5 -70.5t-102.5 -26q-111 0 -173.5 74t-62.5 205q0 141 86 256q36 45 96 84t130 55zM516 1358q-65 -14 -105 -44.5t-40 -62.5q0 -22 8 -34
t27 -25.5t34 -28.5q33 -33 45.5 -69t12.5 -84q0 -83 -58 -139t-143 -56q-110 0 -173 74t-63 205q0 141 86 256q36 45 96 84t130 55z" />
    <glyph glyph-name="quotedblright" unicode="&#x201d;" horiz-adv-x="1051" 
d="M989 1208q0 -141 -86 -256q-33 -41 -95 -81.5t-130 -57.5l-143 131q68 16 106.5 45.5t38.5 61.5q0 23 -7.5 34t-27.5 25t-35 29q-34 38 -45.5 72t-11.5 81q0 83 58 139t143 56q110 0 172.5 -74t62.5 -205zM485 1208q0 -144 -86 -256q-33 -41 -95 -81.5t-130 -57.5
l-143 131q68 16 106.5 45.5t38.5 61.5q0 23 -7.5 34t-27.5 25t-35 29q-34 38 -45.5 72t-11.5 81q0 83 58 139t143 56q110 0 172.5 -74t62.5 -205z" />
    <glyph glyph-name="quotedblbase" unicode="&#x201e;" horiz-adv-x="1051" 
d="M989 84q0 -141 -86 -256q-36 -44 -96 -84t-129 -55l-143 131q47 10 79 27t49 37.5t17 41.5q0 22 -7.5 33.5t-27.5 25.5t-35 29q-57 59 -57 154q0 83 58 138.5t143 55.5q110 0 172.5 -73.5t62.5 -204.5zM485 84q0 -144 -86 -256q-36 -44 -96 -84t-129 -55l-143 131
q47 10 79 27t49 37.5t17 41.5q0 22 -7.5 33.5t-27.5 25.5t-35 29q-57 59 -57 154q0 83 58 138.5t143 55.5q110 0 172.5 -73.5t62.5 -204.5z" />
    <glyph glyph-name="dagger" unicode="&#x2020;" horiz-adv-x="1059" 
d="M1018 1137l-66 -312h-268v-825h-344v825h-299v312h299v290h344v-290h334z" />
    <glyph glyph-name="daggerdbl" unicode="&#x2021;" horiz-adv-x="1096" 
d="M1055 1137l-66 -316h-268v-215h297v-315h-297v-291h-344v291h-336l65 315h271v215h-299v316h299v290h344v-290h334z" />
    <glyph glyph-name="bullet" unicode="&#x2022;" horiz-adv-x="971" 
d="M848 725q0 -98 -48.5 -182t-132.5 -132.5t-182 -48.5t-181.5 48.5t-132 132.5t-48.5 182t49 182t132 132t181 48t181.5 -48t132.5 -132t49 -182z" />
    <glyph glyph-name="ellipsis" unicode="&#x2026;" horiz-adv-x="1663" 
d="M1581 174q0 -87 -63 -149t-148 -62q-88 0 -148.5 61.5t-60.5 149.5q0 56 28 103t76 75.5t105 28.5t105.5 -28.5t77 -76.5t28.5 -102zM1040 174q0 -87 -63 -149t-148 -62q-84 0 -145 62t-61 149q0 56 27.5 103t75.5 75.5t103 28.5q57 0 105.5 -28.5t77 -76.5t28.5 -102z
M502 174q0 -87 -63 -149t-148 -62q-88 0 -148.5 61.5t-60.5 149.5q0 56 28 103.5t75.5 75.5t103.5 28q89 0 151 -61t62 -146z" />
    <glyph glyph-name="perthousand" unicode="&#x2030;" horiz-adv-x="2454" 
d="M2413 340q0 -108 -45 -191t-128.5 -129.5t-193.5 -46.5q-108 0 -189 39.5t-125 119t-44 194.5q0 77 28 144t78 115.5t115 74.5t145 26t144.5 -21t113.5 -64.5t75 -108t26 -152.5zM2130 336q0 95 -17 134.5t-63 39.5q-34 0 -51 -16.5t-23 -53.5t-6 -114q0 -98 16.5 -135
t63.5 -37q46 0 63 39.5t17 142.5zM1651 340q0 -108 -45 -191t-128.5 -129.5t-193.5 -46.5q-108 0 -189 39.5t-125 119t-44 194.5q0 77 28 144t78 115.5t115 74.5t145 26t144.5 -21t113.5 -64.5t75 -108t26 -152.5zM1368 336q0 98 -17 136t-63 38q-34 0 -50.5 -16.5
t-23 -53.5t-6.5 -114q0 -98 16.5 -135t63.5 -37q46 0 63 38t17 144zM1444 1427l-869 -1427h-331l868 1427h332zM766 1108q0 -108 -44.5 -191t-128 -129.5t-194.5 -46.5q-108 0 -189 39.5t-125 119t-44 194.5q0 77 28 144t77.5 115.5t115.5 74.5t146 26t145.5 -21.5
t113 -64.5t73.5 -107.5t26 -152.5zM483 1104q0 98 -17 136t-63 38q-33 0 -50 -16.5t-23 -53.5t-6 -114q0 -63 6.5 -101.5t23 -54.5t49.5 -16q46 0 63 38t17 144z" />
    <glyph glyph-name="guilsinglleft" unicode="&#x2039;" horiz-adv-x="705" 
d="M664 201l-258 -166l-365 491l365 490l258 -162l-248 -328z" />
    <glyph glyph-name="guilsinglright" unicode="&#x203a;" horiz-adv-x="705" 
d="M664 526l-365 -491l-258 166l248 325l-248 328l258 162z" />
    <glyph glyph-name="uni2044" unicode="&#x2044;" horiz-adv-x="543" 
d="M952 1567l-1083 -1882h-279l1082 1882h280z" />
    <glyph glyph-name="Euro" unicode="&#x20ac;" horiz-adv-x="1341" 
d="M1321 121q-71 -66 -183.5 -106t-260.5 -40q-136 0 -252.5 46t-214.5 151q-91 100 -134 262h-235v211h205v41q0 59 2 88h-207v211h244q20 69 59 143q59 109 146.5 182t196 107.5t235.5 34.5q111 0 214 -28.5t150 -75.5l-156 -271q-98 76 -212 76q-108 0 -160 -55t-70 -113
h309v-211h-331q0 -90 2 -129h329v-211h-301q19 -44 39 -67q76 -91 183 -91q70 0 128 21t117 74z" />
    <glyph glyph-name="trademark" unicode="&#x2122;" horiz-adv-x="2034" 
d="M1952 584h-303v440h-4l-148 -440h-242l-147 440h-4v-440h-291l35 843h387l160 -481l151 481h359zM778 1188h-225v-604h-287v604h-225v239h737v-239z" />
    <glyph glyph-name="uni2126" unicode="&#x2126;" horiz-adv-x="1573" 
d="M496 160q-108 67 -165 130q-87 96 -134 225.5t-47 286.5q0 196 79.5 360.5t231 252.5t347.5 88q336 0 516 -254q131 -186 131 -448q0 -168 -54 -297.5t-141 -222.5q-53 -58 -149 -121l364 6v-166h-575v177q80 40 124 78q72 61 122 145t75.5 179t25.5 198
q0 138 -49.5 277.5t-150 212.5t-243.5 73q-191 0 -296 -120q-146 -169 -146 -440q0 -217 91 -372.5t251 -227.5v-180h-577v168z" />
    <glyph glyph-name="partialdiff" unicode="&#x2202;" horiz-adv-x="1012" 
d="M426 1138l-135 60q70 157 168 225t192 68q76 0 137.5 -39.5t92.5 -90.5q47 -79 69.5 -187t22.5 -248q0 -288 -86.5 -512.5t-233.5 -331.5t-289 -107q-137 0 -222.5 91t-85.5 256q0 226 153 387q197 207 649 215q-4 168 -24 256t-68 135.5t-113 47.5q-62 0 -121 -49.5
t-106 -175.5zM854 796q-244 -14 -357.5 -68t-187 -176.5t-73.5 -248.5q0 -83 51 -137t119 -54q75 0 160 55q117 76 190.5 234.5t97.5 394.5z" />
    <glyph glyph-name="uni2206" unicode="&#x2206;" horiz-adv-x="1253" 
d="M1227 0h-1200l628 1386zM991 82l-399 967l-440 -967h839z" />
    <glyph glyph-name="product" unicode="&#x220f;" horiz-adv-x="1686" 
d="M161 1491h1362v-1922h-191v1748h-978v-1748h-193v1922z" />
    <glyph glyph-name="summation" unicode="&#x2211;" horiz-adv-x="1460" 
d="M139 1491h1237v-164h-988l607 -775l-649 -822h1040v-161h-1264v187l620 788l-603 772v175z" />
    <glyph glyph-name="minus" unicode="&#x2212;" horiz-adv-x="1163" 
d="M1081 420h-999v272h999v-272z" />
    <glyph glyph-name="fraction" unicode="&#x2215;" horiz-adv-x="543" 
d="M952 1567l-1083 -1882h-279l1082 1882h280z" />
    <glyph glyph-name="periodcentered" unicode="&#x2219;" horiz-adv-x="633" 
d="M530 551q0 -86 -64 -148.5t-155 -62.5q-87 0 -148 63t-61 152q0 56 29.5 107t79.5 80.5t108 29.5t106.5 -30t76.5 -80.5t28 -110.5z" />
    <glyph glyph-name="radical" unicode="&#x221a;" horiz-adv-x="1124" 
d="M1124 1870l-311 -1948l-496 1022l-198 -92l-35 63l301 152l403 -823h5l258 1626h73z" />
    <glyph glyph-name="infinity" unicode="&#x221e;" horiz-adv-x="1460" 
d="M689 812q105 132 164 174q80 58 169 58q105 0 196.5 -76t91.5 -245q0 -118 -34 -185.5t-106 -108.5t-148 -41q-89 0 -169 57q-59 43 -164 175q-136 -171 -289 -171q-101 0 -173.5 76.5t-72.5 190.5q0 113 72.5 190t173.5 77q153 0 289 -171zM758 717q87 -135 159 -185
q46 -33 103 -33q76 0 127.5 56t51.5 158q0 106 -52.5 162t-130.5 56q-49 0 -92 -28q-58 -39 -166 -186zM620 716q-80 100 -128 128.5t-92 28.5q-58 0 -96.5 -41t-38.5 -113q0 -71 40 -113.5t97 -42.5q101 0 218 153z" />
    <glyph glyph-name="integral" unicode="&#x222b;" horiz-adv-x="561" 
d="M561 1755q0 -29 -12.5 -53t-34 -36.5t-47.5 -12.5q-36 0 -76 35q-20 20 -39 20q-41 0 -41 -63q0 -46 11 -146q18 -204 27 -371t9 -294l-2 -121l-14 -471q-6 -190 -49 -320q-22 -67 -68 -104t-106 -37q-54 0 -86.5 33.5t-32.5 87.5q0 44 25 71t65 27q42 0 70 -33
q13 -14 24 -22t25 -8q39 0 39 61q0 37 -10 119q-20 170 -29 395q-3 104 -6 229q-2 70 -2 154l16 553q6 191 66 317q19 40 63.5 69.5t87.5 29.5q31 0 61.5 -15t48 -41t17.5 -53z" />
    <glyph glyph-name="approxequal" unicode="&#x2248;" horiz-adv-x="1124" 
d="M51 738v205q106 120 278 120q60 0 125.5 -17t188.5 -70q69 -30 103.5 -38.5t69.5 -8.5q65 0 134.5 39t123.5 98v-212q-64 -60 -129.5 -87t-147.5 -27q-60 0 -114 13.5t-173 67t-198 53.5q-64 0 -120.5 -27.5t-140.5 -108.5zM51 376v205q106 120 278 120q60 0 125.5 -17
t188.5 -70q69 -29 103.5 -38t69.5 -9q65 0 134.5 39t123.5 98v-212q-64 -60 -129.5 -87t-147.5 -27q-60 0 -114 14t-173 67t-198 53q-64 0 -120.5 -27.5t-140.5 -108.5z" />
    <glyph glyph-name="notequal" unicode="&#x2260;" horiz-adv-x="1124" 
d="M495 417l-194 -445h-136l195 445h-282v168h356l122 277h-478v168h551l196 444h134l-195 -444h282v-168h-356l-121 -277h477v-168h-551z" />
    <glyph glyph-name="lessequal" unicode="&#x2264;" horiz-adv-x="1124" 
d="M77 762v168l971 410v-180l-770 -315l770 -319v-179zM1046 106h-968v167h968v-167z" />
    <glyph glyph-name="greaterequal" unicode="&#x2265;" horiz-adv-x="1124" 
d="M1048 762l-971 -415v179l769 319l-769 315v180l971 -410v-168zM1046 106h-968v167h968v-167z" />
    <glyph glyph-name="lozenge" unicode="&#x25ca;" horiz-adv-x="1012" 
d="M549 1422l418 -713l-418 -709h-111l-391 709l391 713h111zM495 1325l-340 -616l340 -615l359 615z" />
    <glyph glyph-name="uniF001" unicode="&#xf001;" horiz-adv-x="1245" 
d="M1149 1325q0 -84 -61 -142.5t-146 -58.5q-54 0 -101 27t-74.5 73.5t-27.5 100.5q0 83 61.5 142t147.5 59q54 0 101 -27t73.5 -74t26.5 -100zM1122 0h-356v823h-287v-823h-356v823h-90v234h90q-6 37 -6 127q0 139 59.5 215.5t140.5 101.5t168 25q119 0 203 -29l-37 -244
q-38 19 -90 19q-34 0 -58 -21t-24 -55v-139h643v-1057z" />
    <glyph glyph-name="uniF001" unicode="&#xfb01;" horiz-adv-x="1245" 
d="M1149 1325q0 -84 -61 -142.5t-146 -58.5q-54 0 -101 27t-74.5 73.5t-27.5 100.5q0 83 61.5 142t147.5 59q54 0 101 -27t73.5 -74t26.5 -100zM1122 0h-356v823h-287v-823h-356v823h-90v234h90q-6 37 -6 127q0 139 59.5 215.5t140.5 101.5t168 25q119 0 203 -29l-37 -244
q-38 19 -90 19q-34 0 -58 -21t-24 -55v-139h643v-1057z" />
    <glyph glyph-name="uniF002" unicode="&#xf002;" horiz-adv-x="1278" 
d="M1315 6q-93 -33 -234 -33q-108 0 -171 26.5t-92.5 75.5t-36.5 110.5t-7 154.5v721v95q0 222 -12 292l362 86q7 -38 9 -102.5t2 -190.5v-801q0 -146 14.5 -190.5t71.5 -44.5q18 0 36 6zM739 1477l-88 -226q-45 21 -90 21q-34 0 -58 -21t-24 -55v-139h223l-47 -234h-176
v-823h-356v823h-90v234h90q-6 37 -6 127q0 139 59.5 215.5t140.5 101.5t168 25q82 0 137.5 -10.5t116.5 -38.5z" />
    <glyph glyph-name="uniF002" unicode="&#xfb02;" horiz-adv-x="1278" 
d="M1315 6q-93 -33 -234 -33q-108 0 -171 26.5t-92.5 75.5t-36.5 110.5t-7 154.5v721v95q0 222 -12 292l362 86q7 -38 9 -102.5t2 -190.5v-801q0 -146 14.5 -190.5t71.5 -44.5q18 0 36 6zM739 1477l-88 -226q-45 21 -90 21q-34 0 -58 -21t-24 -55v-139h223l-47 -234h-176
v-823h-356v823h-90v234h90q-6 37 -6 127q0 139 59.5 215.5t140.5 101.5t168 25q82 0 137.5 -10.5t116.5 -38.5z" />
    <glyph glyph-name="uniF006" unicode="&#xf006;" horiz-adv-x="1413" 
d="M505 916v-916h-180v916h-280v146h1324v-146h-242v-916h-180v916h-442z" />
    </font>
</defs>
</svg>
